<?xml version="1.0" encoding="UTF-8" standalone="no"?>
<svg width="128px" height="128px" viewBox="0 0 128 128" version="1.1" xmlns="http://www.w3.org/2000/svg" xmlns:xlink="http://www.w3.org/1999/xlink">
    <!-- Generator: Sketch 3.8.3 (29802) - http://www.bohemiancoding.com/sketch -->
    <title>icon-instagram</title>
    <desc>Created with Sketch.</desc>
    <defs></defs>
    <g id="Page-1" stroke="none" stroke-width="1"  fill-rule="evenodd">
        <g id="icon-instagram" >
            <path d="M64,43 C51.8692,43 42,52.8692 42,65 C42,77.1308 51.8692,87 64,87 C76.1308,87 86,77.1308 86,65 C86,52.8692 76.1308,43 64,43 L64,43 Z M64,83 C54.0748,83 46,74.9252 46,65 C46,55.0748 54.0748,47 64,47 C73.9252,47 82,55.0748 82,65 C82,74.9252 73.9252,83 64,83 L64,83 Z" id="Shape"></path>
            <path d="M86,34 C82.1402,34 79,37.1402 79,41 C79,44.8598 82.1402,48 86,48 C89.8598,48 93,44.8598 93,41 C93,37.1402 89.8598,34 86,34 L86,34 Z M86,44 C84.3456,44 83,42.6542 83,41 C83,39.3458 84.3456,38 86,38 C87.6544,38 89,39.3458 89,41 C89,42.6542 87.6544,44 86,44 L86,44 Z" id="Shape"></path>
            <path d="M64,51 C56.2804,51 50,57.2804 50,65 C50,72.7196 56.2804,79 64,79 C71.7196,79 78,72.7196 78,65 C78,57.2804 71.7196,51 64,51 L64,51 Z M64,75 C58.486,75 54,70.514 54,65 C54,59.486 58.486,55 64,55 C69.514,55 74,59.486 74,65 C74,70.514 69.514,75 64,75 L64,75 Z" id="Shape"></path>
            <path d="M83,25 L45,25 C33.972,25 25,33.972 25,45 L25,84 C25,95.028 33.972,104 45,104 L83,104 C94.0282,104 103,95.028 103,84 L103,45 C103,33.972 94.0282,25 83,25 L83,25 Z M99,84 C99,92.8224 91.8224,100 83,100 L45,100 C36.1776,100 29,92.8224 29,84 L29,45 C29,36.1776 36.1776,29 45,29 L83,29 C91.8224,29 99,36.1776 99,45 L99,84 L99,84 Z" id="Shape"></path>
        </g>
    </g>
</svg>