<?xml version="1.0" encoding="UTF-8" standalone="no"?>
<svg width="128px" height="128px" viewBox="0 0 128 128" version="1.1" xmlns="http://www.w3.org/2000/svg" xmlns:xlink="http://www.w3.org/1999/xlink">
    <!-- Generator: Sketch 3.8.3 (29802) - http://www.bohemiancoding.com/sketch -->
    <title>icon-facebook</title>
    <desc>Created with Sketch.</desc>
    <defs></defs>
    <g id="Page-1" stroke="none" stroke-width="1" fill-rule="evenodd">
        <g id="icon-facebook">
            <path d="M86.012,18.02 L73.547,18 C59.543,18 50.493,27.285 50.493,41.656 L50.493,52.563 L37.96,52.563 C36.877,52.563 36,53.441 36,54.524 L36,70.327 C36,71.41 36.878,72.287 37.96,72.287 L50.493,72.287 L50.493,112.163 C50.493,113.246 51.37,114.123 52.453,114.123 L68.805,114.123 C69.888,114.123 70.765,113.245 70.765,112.163 L70.765,72.287 L85.419,72.287 C86.502,72.287 87.379,71.41 87.379,70.327 L87.385,54.524 C87.385,54.004 87.178,53.506 86.811,53.138 C86.444,52.77 85.944,52.563 85.424,52.563 L70.765,52.563 L70.765,43.317 C70.765,38.873 71.824,36.617 77.613,36.617 L86.01,36.614 C87.092,36.614 87.969,35.736 87.969,34.654 L87.969,19.98 C87.969,18.899 87.093,18.022 86.012,18.02 L86.012,18.02 Z" id="Shape"></path>
        </g>
    </g>
</svg>