<?xml version="1.0" encoding="utf-8"?>
<!-- Generator: Adobe Illustrator 20.1.0, SVG Export Plug-In . SVG Version: 6.00 Build 0)  -->
<!DOCTYPE svg PUBLIC "-//W3C//DTD SVG 1.1//EN" "http://www.w3.org/Graphics/SVG/1.1/DTD/svg11.dtd">
<svg version="1.1" id="Layer_1" xmlns="http://www.w3.org/2000/svg" xmlns:xlink="http://www.w3.org/1999/xlink" x="0px" y="0px"
	 viewBox="0 0 384 367" style="enable-background:new 0 0 384 367;" xml:space="preserve">
<path d="M127.3,143.8v153.1h-51V143.8H127.3z M130.5,96.5c0.1,7.5-2.5,13.8-7.8,18.8s-12.3,7.6-20.9,7.6h-0.3
	c-8.4,0-15.2-2.5-20.4-7.6s-7.7-11.3-7.7-18.8c0-7.6,2.7-13.9,8-18.9s12.2-7.5,20.8-7.5s15.4,2.5,20.5,7.5S130.4,88.9,130.5,96.5z
	 M310.6,209.1v87.7h-50.8V215c0-10.8-2.1-19.3-6.3-25.4c-4.2-6.1-10.7-9.2-19.5-9.2c-6.5,0-11.9,1.8-16.3,5.3
	c-4.4,3.6-7.6,8-9.8,13.2c-1.1,3.1-1.7,7.3-1.7,12.5v85.4h-50.8c0.2-41.1,0.3-74.4,0.3-99.9s-0.1-40.8-0.2-45.7l-0.2-7.4h50.8V166
	h-0.3c2.1-3.3,4.2-6.2,6.3-8.6s5.1-5.1,8.7-8s8.1-5.1,13.4-6.7s11.2-2.4,17.7-2.4c17.6,0,31.8,5.8,42.5,17.5
	S310.6,186.6,310.6,209.1z"/>
</svg>
