<?xml version="1.0" encoding="UTF-8" standalone="no"?>
<svg width="128px" height="128px" viewBox="0 0 128 128" version="1.1" xmlns="http://www.w3.org/2000/svg" xmlns:xlink="http://www.w3.org/1999/xlink">
    <!-- Generator: Sketch 3.8.3 (29802) - http://www.bohemiancoding.com/sketch -->
    <title>icon-twitter</title>
    <desc>Created with Sketch.</desc>
    <defs></defs>
    <g id="Page-1" stroke="none" stroke-width="1" fill-rule="evenodd">
        <g id="icon-twitter" >
            <path d="M109.999851,35.7398755 C106.650546,37.222996 103.056789,38.2288313 99.280884,38.6778835 C103.13634,36.3706586 106.087595,32.7110763 107.486348,28.3637992 C103.869842,30.5004378 99.8778856,32.0519116 95.6243791,32.8929558 C92.2182729,29.261755 87.373415,27 81.9996569,27 C71.6901895,27 63.3311258,35.3535301 63.3311258,45.6505261 C63.3311258,47.1109116 63.4960261,48.5372691 63.8145261,49.9012169 C48.302,49.1225823 34.5465768,41.6953896 25.3402614,30.409498 C23.7309592,33.1599799 22.8154575,36.3648635 22.8154575,39.7859518 C22.8154575,46.2585743 26.1136127,51.9696506 31.1177206,55.3109438 C28.058366,55.2087108 25.1810114,54.3676667 22.6620065,52.9696908 L22.6620065,53.2026867 C22.6620065,62.2381165 29.099067,69.7789839 37.6343317,71.495249 C36.0705294,71.9157711 34.4215261,72.1487671 32.7155735,72.1487671 C31.5101209,72.1487671 30.3443693,72.0294458 29.2013676,71.8020964 C31.5782222,79.217996 38.4702827,84.6107831 46.6360458,84.7586345 C40.2501356,89.7594297 32.1981225,92.7314659 23.4524575,92.7314659 C21.9456046,92.7314659 20.4613529,92.6405261 19,92.4757349 C27.2624134,97.7777309 37.0715294,100.869088 47.6141471,100.869088 C81.9544542,100.869088 100.725435,72.4443213 100.725435,47.7929598 L100.662835,45.3778554 C104.330492,42.7636345 107.503448,39.4791044 109.999851,35.7398755 L109.999851,35.7398755 Z" id="Shape"></path>
        </g>
    </g>
</svg>