<svg id="rocket" data-name="Layer 1" xmlns="http://www.w3.org/2000/svg" viewBox="0 0 222.61 403.3" style="transform: matrix3d(0.999983, 0.00586427, 0, 0, -0.00586427, 0.999983, 0, 0, 0, 0, 1, 0, 0, 0, 0, 1);">
<title>activate-rocket</title>
<polygon points="81.63 22.26 81.63 29.82 74.2 29.82 74.2 37.24 81.63 37.24 81.63 37.1 89.05 37.1 89.05 22.26 81.63 22.26 81.63 22.26" fill="#e83644"></polygon>
<polygon points="74.2 244.87 81.63 244.87 81.63 237.45 74.2 237.45 74.2 244.87 74.2 244.87" fill="#2ebec1"></polygon>
<polygon points="66.78 215.19 66.78 222.61 74.2 222.61 74.2 215.19 66.78 215.19 66.78 215.19" fill="#2ebec1"></polygon>
<polygon points="74.2 222.61 74.2 230.03 81.63 230.03 81.63 222.61 74.2 222.61 74.2 222.61" fill="#2ebec1"></polygon>
<polygon points="66.78 237.45 66.78 230.03 59.36 230.03 59.36 170.67 51.94 170.67 51.94 155.83 44.52 155.83 44.52 118.73 37.1 118.73 37.1 222.61 44.52 222.61 44.52 244.87 51.94 244.87 51.94 259.71 59.36 259.71 59.36 274.56 81.63 274.56 81.63 259.71 74.2 259.71 74.2 244.87 66.78 244.87 66.78 237.45 66.78 237.45" fill="#2ebec1"></polygon>
<polygon points="51.94 244.87 44.52 244.87 44.52 259.71 51.94 259.71 51.94 244.87 51.94 244.87" fill="#b72133"></polygon>
<polygon points="51.94 259.71 51.94 274.56 59.36 274.56 59.36 259.71 51.94 259.71 51.94 259.71" fill="#b72133"></polygon>
<polygon points="37.1 207.77 37.1 140.99 29.68 140.99 29.68 222.61 37.1 222.61 37.1 207.77 37.1 207.77" fill="#b72133"></polygon>
<polygon points="44.52 230.03 44.52 222.61 37.1 222.61 37.1 244.87 44.52 244.87 44.52 230.03 44.52 230.03" fill="#b72133"></polygon>
<polygon points="51.94 274.56 51.94 259.71 44.52 259.71 44.52 244.87 37.1 244.87 37.1 222.61 29.68 222.61 29.68 163.25 22.26 163.25 22.26 185.51 14.84 185.51 14.84 215.19 7.42 215.19 7.42 244.87 0 244.87 0 296.82 7.42 296.82 7.42 311.66 14.84 311.66 14.84 319.08 29.68 319.08 29.68 311.66 37.1 311.66 37.1 304.24 44.52 304.24 44.52 289.4 51.94 289.4 51.94 281.98 59.36 281.98 59.36 274.56 51.94 274.56 51.94 274.56" fill="#db232a"></polygon>
<polygon points="111.31 22.26 111.31 0 103.89 0 103.89 7.42 96.47 7.42 96.47 14.84 89.05 14.84 89.05 37.1 118.73 37.1 118.73 22.26 111.31 22.26 111.31 22.26" fill="#db232a"></polygon>
<polygon points="140.99 29.82 140.99 22.26 133.57 22.26 133.57 14.84 126.14 14.84 126.14 7.42 118.73 7.42 118.73 0 111.31 0 111.31 22.26 118.73 22.26 118.73 37.1 140.99 37.1 140.99 37.24 148.41 37.24 148.41 29.82 140.99 29.82 140.99 29.82" fill="#b72133"></polygon>
<polygon points="96.47 289.4 89.05 289.4 89.05 281.98 96.47 281.98 96.47 289.4 96.47 289.4" fill="#146488"></polygon>
<polygon points="89.05 281.98 81.62 281.98 81.62 274.56 89.05 274.56 89.05 281.98 89.05 281.98" fill="#146488"></polygon>
<polygon points="89.05 274.56 89.05 281.98 96.47 281.98 96.47 274.56 89.05 274.56 89.05 274.56" fill="#0d5075"></polygon>
<polygon points="96.47 289.4 103.89 289.4 103.89 281.98 96.47 281.98 96.47 289.4 96.47 289.4" fill="#0d5075"></polygon>
<polygon points="126.15 289.4 133.57 289.4 133.57 281.98 126.15 281.98 126.15 289.4 126.15 289.4" fill="#0d5075"></polygon>
<polygon points="133.57 274.56 133.57 281.98 140.99 281.98 140.99 274.56 133.57 274.56 133.57 274.56" fill="#0d5075"></polygon>
<polygon points="148.41 274.56 140.99 274.56 140.99 281.98 133.57 281.98 133.57 289.4 148.41 289.4 148.41 281.98 155.83 281.98 155.83 274.56 148.41 274.56 148.41 274.56" fill="#063249"></polygon>
<path d="M133.57,200.35V155.83h-7.42v7.42H96.47v-7.42H89v-7.42H81.58V141H74.2V118.73h7.42V103.89H89V96.47h7.42V89.05H126.1V66.78h-7.42V37.1H74.2v7.42H66.78V59.36H59.36V74.2H51.94V96.46H44.52v59.36h7.42v14.84h7.42V230h7.42v14.84H74.2v-7.42h7.42v7.42H74.2V259.7h7.42v14.9H111.3V259.71h7.42V244.87h7.42V230h7.42V207.77H141v-7.42h-7.43ZM81.63,230H74.2V222.6H66.78v-7.42H74.2v7.42h7.42V230h0Zm44.52-37.1h-7.42v-7.42h7.42v7.42h0Z" fill="#00afb4"></path>
<polygon points="126.15 185.51 118.73 185.51 118.73 192.93 126.15 192.93 126.15 185.51 126.15 185.51" fill="#009e9e"></polygon>
<polygon points="178.09 118.73 178.09 96.47 170.67 96.47 170.67 74.2 163.25 74.2 163.25 59.36 155.83 59.36 155.83 44.52 148.41 44.52 148.41 37.1 118.73 37.1 118.73 66.78 126.15 66.78 126.15 96.47 133.57 96.47 133.57 103.89 140.99 103.89 140.99 118.73 148.41 118.73 148.41 140.99 140.99 140.99 140.99 148.41 133.57 148.41 133.57 230.03 126.15 230.03 126.15 244.87 118.73 244.87 118.73 259.71 111.31 259.71 111.31 274.56 163.25 274.56 163.25 259.71 170.67 259.71 170.67 244.87 178.09 244.87 178.09 222.61 185.51 222.61 185.51 118.73 178.09 118.73 178.09 118.73" fill="#009e9e"></polygon>
<polygon points="185.51 140.99 185.51 222.61 192.93 222.61 192.93 140.99 185.51 140.99 185.51 140.99" fill="#9e2036"></polygon>
<polygon points="178.09 230.03 178.09 244.87 185.51 244.87 185.51 222.61 178.09 222.61 178.09 230.03 178.09 230.03" fill="#9e2036"></polygon>
<polygon points="170.67 252.29 170.67 259.71 178.09 259.71 178.09 244.87 170.67 244.87 170.67 252.29 170.67 252.29" fill="#9e2036"></polygon>
<polygon points="163.25 267.13 163.25 274.56 170.67 274.56 170.67 259.71 163.25 259.71 163.25 267.13 163.25 267.13" fill="#9e2036"></polygon>
<polygon points="215.19 244.87 215.19 215.19 207.77 215.19 207.77 185.51 200.35 185.51 200.35 163.25 192.93 163.25 192.93 222.61 185.51 222.61 185.51 244.87 178.09 244.87 178.09 259.71 170.67 259.71 170.67 274.56 163.25 274.56 163.25 281.98 170.67 281.98 170.67 289.4 178.09 289.4 178.09 304.24 185.51 304.24 185.51 311.66 192.93 311.66 192.93 319.08 207.77 319.08 207.77 311.66 215.19 311.66 215.19 296.82 222.61 296.82 222.61 244.87 215.19 244.87 215.19 244.87" fill="#b72133"></polygon>
<g id="flame" data-svg-origin="81.62000274658203 289.3999938964844" style="transform: matrix3d(1, 0, 0, 0, 0, 1.21504, 0, 0, 0, 0, 1, 0, 0, -62.2326, 0, 1);">
<polygon points="111.31 341.34 103.89 341.34 103.89 333.92 111.31 333.92 111.31 341.34 111.31 341.34" fill="#efc818"></polygon>
<polygon points="103.89 341.34 96.47 341.34 96.47 333.92 103.89 333.92 103.89 341.34 103.89 341.34" fill="#efc818"></polygon>
<polygon points="103.89 333.92 96.47 333.92 96.47 326.5 103.89 326.5 103.89 333.92 103.89 333.92" fill="#efc818"></polygon>
<polygon points="96.47 319.08 89.05 319.08 89.05 311.66 96.47 311.66 96.47 319.08 96.47 319.08" fill="#efc818"></polygon>
<polygon points="96.47 326.5 89.05 326.5 89.05 319.08 96.47 319.08 96.47 326.5 96.47 326.5" fill="#efc818"></polygon>
<polygon points="96.47 341.34 89.05 341.34 89.05 333.92 96.47 333.92 96.47 341.34 96.47 341.34" fill="#efc818"></polygon>
<polygon points="96.47 333.92 89.05 333.92 89.05 326.5 96.47 326.5 96.47 333.92 96.47 333.92" fill="#efc818"></polygon>
<polygon points="89.05 311.66 81.62 311.66 81.62 304.24 89.05 304.24 89.05 311.66 89.05 311.66" fill="#efc818"></polygon>
<polygon points="89.05 319.08 81.62 319.08 81.62 311.66 89.05 311.66 89.05 319.08 89.05 319.08" fill="#efc818"></polygon>
<polygon points="89.05 326.5 81.62 326.5 81.62 319.08 89.05 319.08 89.05 326.5 89.05 326.5" fill="#efc818"></polygon>
<polygon points="111.31 356.18 103.89 356.18 103.89 348.76 111.31 348.76 111.31 356.18 111.31 356.18" fill="#efc818"></polygon>
<polygon points="111.31 348.76 103.89 348.76 103.89 341.34 111.31 341.34 111.31 348.76 111.31 348.76" fill="#efc818"></polygon>
<polygon points="103.89 348.76 96.47 348.76 96.47 341.34 103.89 341.34 103.89 348.76 103.89 348.76" fill="#efc818"></polygon>
<polygon points="111.31 363.6 103.89 363.6 103.89 356.18 111.31 356.18 111.31 363.6 111.31 363.6" fill="#efc818"></polygon>
<polygon points="103.89 356.18 96.47 356.18 96.47 348.76 103.89 348.76 103.89 356.18 103.89 356.18" fill="#f47721"></polygon>
<polygon points="89.05 296.82 81.62 296.82 81.62 289.4 89.05 289.4 89.05 296.82 89.05 296.82" fill="#efc818"></polygon>
<polygon points="89.05 304.24 81.62 304.24 81.62 296.82 89.05 296.82 89.05 304.24 89.05 304.24" fill="#efc818"></polygon>
<polygon points="111.31 296.82 103.89 296.82 103.89 289.4 111.31 289.4 111.31 296.82 111.31 296.82" fill="#f47721"></polygon>
<polygon points="111.31 304.24 103.89 304.24 103.89 296.82 111.31 296.82 111.31 304.24 111.31 304.24" fill="#f47721"></polygon>
<polygon points="111.31 319.08 103.89 319.08 103.89 311.66 111.31 311.66 111.31 319.08 111.31 319.08" fill="#f47721"></polygon>
<polygon points="111.31 311.66 103.89 311.66 103.89 304.24 111.31 304.24 111.31 311.66 111.31 311.66" fill="#f47721"></polygon>
<polygon points="103.89 296.82 96.47 296.82 96.47 289.4 103.89 289.4 103.89 296.82 103.89 296.82" fill="#f47721"></polygon>
<polygon points="103.89 304.24 96.47 304.24 96.47 296.82 103.89 296.82 103.89 304.24 103.89 304.24" fill="#f47721"></polygon>
<polygon points="103.89 319.08 96.47 319.08 96.47 311.66 103.89 311.66 103.89 319.08 103.89 319.08" fill="#f47721"></polygon>
<polygon points="103.89 311.66 96.47 311.66 96.47 304.24 103.89 304.24 103.89 311.66 103.89 311.66" fill="#f47721"></polygon>
<polygon points="96.47 296.82 89.05 296.82 89.05 289.4 96.47 289.4 96.47 296.82 96.47 296.82" fill="#f47721"></polygon>
<polygon points="96.47 311.66 89.05 311.66 89.05 304.24 96.47 304.24 96.47 311.66 96.47 311.66" fill="#f47721"></polygon>
<polygon points="96.47 304.24 89.05 304.24 89.05 296.82 96.47 296.82 96.47 304.24 96.47 304.24" fill="#db232a"></polygon>
<polygon points="111.31 333.92 103.89 333.92 103.89 326.5 111.31 326.5 111.31 333.92 111.31 333.92" fill="#f47721"></polygon>
<polygon points="111.31 326.5 103.89 326.5 103.89 319.08 111.31 319.08 111.31 326.5 111.31 326.5" fill="#f47721"></polygon>
<polygon points="103.89 326.5 96.47 326.5 96.47 319.08 103.89 319.08 103.89 326.5 103.89 326.5" fill="#f47721"></polygon>
<polygon points="111.31 341.34 118.73 341.34 118.73 333.92 111.31 333.92 111.31 341.34 111.31 341.34" fill="#efc818"></polygon>
<polygon points="118.73 341.34 126.15 341.34 126.15 333.92 118.73 333.92 118.73 341.34 118.73 341.34" fill="#efc818"></polygon>
<polygon points="118.73 333.92 126.15 333.92 126.15 326.5 118.73 326.5 118.73 333.92 118.73 333.92" fill="#efc818"></polygon>
<polygon points="126.15 319.08 133.57 319.08 133.57 311.66 126.15 311.66 126.15 319.08 126.15 319.08" fill="#efc818"></polygon>
<polygon points="126.15 326.5 133.57 326.5 133.57 319.08 126.15 319.08 126.15 326.5 126.15 326.5" fill="#efc818"></polygon>
<polygon points="126.15 341.34 133.57 341.34 133.57 333.92 126.15 333.92 126.15 341.34 126.15 341.34" fill="#efc818"></polygon>
<polygon points="126.15 333.92 133.57 333.92 133.57 326.5 126.15 326.5 126.15 333.92 126.15 333.92" fill="#efc818"></polygon>
<polygon points="133.57 311.66 140.99 311.66 140.99 304.24 133.57 304.24 133.57 311.66 133.57 311.66" fill="#efc818"></polygon>
<polygon points="133.57 319.08 140.99 319.08 140.99 311.66 133.57 311.66 133.57 319.08 133.57 319.08" fill="#efc818"></polygon>
<polygon points="133.57 326.5 140.99 326.5 140.99 319.08 133.57 319.08 133.57 326.5 133.57 326.5" fill="#efc818"></polygon>
<polygon points="111.31 356.18 118.73 356.18 118.73 348.76 111.31 348.76 111.31 356.18 111.31 356.18" fill="#efc818"></polygon>
<polygon points="111.31 348.76 118.73 348.76 118.73 341.34 111.31 341.34 111.31 348.76 111.31 348.76" fill="#efc818"></polygon>
<polygon points="118.73 348.76 126.15 348.76 126.15 341.34 118.73 341.34 118.73 348.76 118.73 348.76" fill="#f47721"></polygon>
<polygon points="111.31 363.6 118.73 363.6 118.73 356.18 111.31 356.18 111.31 363.6 111.31 363.6" fill="#efc818"></polygon>
<polygon points="118.73 356.18 126.15 356.18 126.15 348.76 118.73 348.76 118.73 356.18 118.73 356.18" fill="#efc818"></polygon>
<polygon points="133.57 296.82 140.99 296.82 140.99 289.4 133.57 289.4 133.57 296.82 133.57 296.82" fill="#efc818"></polygon>
<polygon points="133.57 304.24 140.99 304.24 140.99 296.82 133.57 296.82 133.57 304.24 133.57 304.24" fill="#efc818"></polygon>
<polygon points="111.31 296.82 118.73 296.82 118.73 289.4 111.31 289.4 111.31 296.82 111.31 296.82" fill="#f47721"></polygon>
<polygon points="111.31 304.24 118.73 304.24 118.73 296.82 111.31 296.82 111.31 304.24 111.31 304.24" fill="#db232a"></polygon>
<polygon points="111.31 319.08 118.73 319.08 118.73 311.66 111.31 311.66 111.31 319.08 111.31 319.08" fill="#f47721"></polygon>
<polygon points="111.31 311.66 118.73 311.66 118.73 304.24 111.31 304.24 111.31 311.66 111.31 311.66" fill="#f47721"></polygon>
<polygon points="118.73 296.82 126.15 296.82 126.15 289.4 118.73 289.4 118.73 296.82 118.73 296.82" fill="#f47721"></polygon>
<polygon points="118.73 304.24 126.15 304.24 126.15 296.82 118.73 296.82 118.73 304.24 118.73 304.24" fill="#f47721"></polygon>
<polygon points="118.73 319.08 126.15 319.08 126.15 311.66 118.73 311.66 118.73 319.08 118.73 319.08" fill="#f47721"></polygon>
<polygon points="118.73 311.66 126.15 311.66 126.15 304.24 118.73 304.24 118.73 311.66 118.73 311.66" fill="#f47721"></polygon>
<polygon points="126.15 296.82 133.57 296.82 133.57 289.4 126.15 289.4 126.15 296.82 126.15 296.82" fill="#f47721"></polygon>
<polygon points="126.15 311.66 133.57 311.66 133.57 304.24 126.15 304.24 126.15 311.66 126.15 311.66" fill="#f47721"></polygon>
<polygon points="126.15 304.24 133.57 304.24 133.57 296.82 126.15 296.82 126.15 304.24 126.15 304.24" fill="#efc818"></polygon>
<polygon points="111.31 333.92 118.73 333.92 118.73 326.5 111.31 326.5 111.31 333.92 111.31 333.92" fill="#f47721"></polygon>
<polygon points="111.31 326.5 118.73 326.5 118.73 319.08 111.31 319.08 111.31 326.5 111.31 326.5" fill="#efc818"></polygon>
<polygon points="118.73 326.5 126.15 326.5 126.15 319.08 118.73 319.08 118.73 326.5 118.73 326.5" fill="#f47721"></polygon>
</g>
<polygon points="81.63 274.56 66.78 274.56 66.78 281.98 74.2 281.98 74.2 289.4 89.05 289.4 89.05 281.98 81.63 281.98 81.63 274.56 81.63 274.56" fill="#093d5e"></polygon>
<polygon points="118.73 274.56 96.47 274.56 96.47 281.98 103.89 281.98 103.89 289.4 126.15 289.4 126.15 281.98 133.57 281.98 133.57 274.56 118.73 274.56 118.73 274.56" fill="#093d5e"></polygon>
<polygon points="133.57 118.73 133.57 103.89 118.73 103.89 118.73 96.47 103.89 96.47 103.89 103.89 89.05 103.89 89.05 118.73 81.63 118.73 81.63 133.57 89.05 133.57 89.05 148.41 103.89 148.41 103.89 155.83 118.73 155.83 118.73 148.41 133.57 148.41 133.57 133.57 140.99 133.57 140.99 118.73 133.57 118.73 133.57 118.73" fill="#093d5e"></polygon>
<polygon points="103.89 96.47 96.47 96.47 96.47 89.05 103.89 89.05 103.89 96.47 103.89 96.47" fill="#00afb4"></polygon>
<polygon points="103.89 96.47 96.47 96.47 96.47 89.05 103.89 89.05 103.89 96.47 103.89 96.47" fill="#00afb4"></polygon>
<polygon points="81.62 118.72 74.2 118.72 74.2 111.3 81.62 111.3 81.62 118.72 81.62 118.72" fill="#00afb4"></polygon>
<polygon points="103.89 163.25 96.47 163.25 96.47 155.83 103.89 155.83 103.89 163.25 103.89 163.25" fill="#00afb4"></polygon>
<polygon points="103.89 163.25 96.47 163.25 96.47 155.83 103.89 155.83 103.89 163.25 103.89 163.25" fill="#00afb4"></polygon>
<polygon points="81.62 140.99 74.2 140.99 74.2 133.57 81.62 133.57 81.62 140.99 81.62 140.99" fill="#00afb4"></polygon>
<polygon points="81.62 118.72 74.2 118.72 74.2 111.3 81.62 111.3 81.62 118.72 81.62 118.72" fill="#00afb4"></polygon>
<polygon points="81.62 140.99 74.2 140.99 74.2 133.57 81.62 133.57 81.62 140.99 81.62 140.99" fill="#00afb4"></polygon>
<polygon points="89.05 111.31 96.47 111.31 96.47 103.89 103.89 103.89 103.89 96.47 89.05 96.47 89.05 103.89 81.63 103.89 81.63 118.73 89.05 118.73 89.05 111.31 89.05 111.31" fill="#db232a"></polygon>
<polygon points="111.31 89.05 103.89 89.05 103.89 96.47 111.31 96.47 111.31 89.05 111.31 89.05" fill="#db232a"></polygon>
<polygon points="81.63 118.73 74.2 118.73 74.2 133.57 81.63 133.57 81.63 118.73 81.63 118.73" fill="#db232a"></polygon>
<polygon points="111.31 163.25 111.31 155.83 103.89 155.83 103.89 163.25 111.31 163.25 111.31 163.25" fill="#db232a"></polygon>
<polygon points="81.63 148.41 89.05 148.41 89.05 155.83 103.89 155.83 103.89 148.41 96.47 148.41 96.47 140.99 89.05 140.99 89.05 133.57 81.63 133.57 81.63 148.41 81.63 148.41" fill="#db232a"></polygon>
<polygon points="118.73 96.47 126.15 96.47 126.15 89.05 118.73 89.05 118.73 96.47 118.73 96.47" fill="#00afb4"></polygon>
<polygon points="118.73 96.47 126.15 96.47 126.15 89.05 118.73 89.05 118.73 96.47 118.73 96.47" fill="#009e9e"></polygon>
<polygon points="140.99 118.72 148.41 118.72 148.41 111.3 140.99 111.3 140.99 118.72 140.99 118.72" fill="#009e9e"></polygon>
<polygon points="118.73 163.25 126.15 163.25 126.15 155.83 118.73 155.83 118.73 163.25 118.73 163.25" fill="#00afb4"></polygon>
<polygon points="118.73 163.25 126.15 163.25 126.15 155.83 118.73 155.83 118.73 163.25 118.73 163.25" fill="#009e9e"></polygon>
<polygon points="140.99 140.99 148.41 140.99 148.41 133.57 140.99 133.57 140.99 140.99 140.99 140.99" fill="#009e9e"></polygon>
<polygon points="140.99 140.99 148.41 140.99 148.41 133.57 140.99 133.57 140.99 140.99 140.99 140.99" fill="#009e9e"></polygon>
<polygon points="118.73 96.47 118.73 103.89 126.15 103.89 126.15 96.47 118.73 96.47 118.73 96.47" fill="#db232a"></polygon>
<polygon points="111.31 89.05 111.31 96.47 118.73 96.47 118.73 89.05 111.31 89.05 111.31 89.05" fill="#db232a"></polygon>
<polygon points="111.31 163.25 118.73 163.25 118.73 155.83 111.31 155.83 111.31 163.25 111.31 163.25" fill="#db232a"></polygon>
<polygon points="126.15 103.89 126.15 111.31 133.57 111.31 133.57 103.89 126.15 103.89 126.15 103.89" fill="#db232a"></polygon>
<polygon points="126.15 148.41 118.73 148.41 118.73 155.83 133.57 155.83 133.57 140.99 126.15 140.99 126.15 148.41 126.15 148.41" fill="#db232a"></polygon>
<polygon points="126.15 96.47 126.15 103.89 133.57 103.89 133.57 96.47 126.15 96.47 126.15 96.47" fill="#b72133"></polygon>
<polygon points="140.99 103.89 133.57 103.89 133.57 118.73 140.99 118.73 140.99 103.89 140.99 103.89" fill="#b72133"></polygon>
<polygon points="140.99 118.73 140.99 133.57 148.41 133.57 148.41 118.73 140.99 118.73 140.99 118.73" fill="#b72133"></polygon>
<polygon points="133.57 140.99 133.57 148.41 140.99 148.41 140.99 133.57 133.57 133.57 133.57 140.99 133.57 140.99" fill="#b72133"></polygon>
</svg>