<?xml version="1.0" encoding="utf-8"?>
<?xml-stylesheet href="../../css/activate.css" type="text/css"?>
<!DOCTYPE svg PUBLIC "-//W3C//DTD SVG 1.1//EN" "http://www.w3.org/Graphics/SVG/1.1/DTD/svg11.dtd">
<svg version="1.1" id="rocket" xmlns="http://www.w3.org/2000/svg" xmlns:xlink="http://www.w3.org/1999/xlink" x="0px" y="0px"
	 viewBox="0 0 222.6 363.6" style="enable-background:new 0 0 222.6 363.6;" xml:space="preserve">
	
<style type="text/css">
	.st0{fill:#DB232A;}
	.st1{fill:#00AFB4;}
	.st2{fill:#093D5E;}
	.st3{fill:#B72133;}
	.st4{fill:#E83644;}
	.st5{fill:#2EBEC1;}
	.st6{fill:#146488;}
	.st7{fill:#0D5075;}
	.st8{fill:#063249;}
	.st9{fill:#009E9E;}
	.st10{fill:#9E2036;}
	.st11{fill:#F47721;}
	.st12{fill:#EFC818;}
</style>
<polygon class="st0" points="141,29.8 141,22.3 133.6,22.3 133.6,14.8 126.1,14.8 126.1,7.4 118.7,7.4 118.7,0 111.3,0 103.9,0 
	103.9,7.4 96.5,7.4 96.5,14.8 89.1,14.8 89.1,22.3 81.6,22.3 81.6,29.8 74.2,29.8 74.2,37.2 81.6,37.2 81.6,37.1 89.1,37.1 
	118.7,37.1 141,37.1 141,37.2 148.4,37.2 148.4,29.8 "/>
<path class="st1" d="M178.1,118.6V96.4h-7.4V74.1h-7.5V59.3h-7.4V44.4h-7.4V37h-29.7v0.1H74.2v7.4h-7.4v14.8h-7.4v14.8H52v22.3h-7.4
	v22.2h-7.4v103.9v52h44.4h0.1h29.6h51.9v-14.9h7.5v-14.8h7.4v-22.3h7.4V118.6H178.1z M81.6,244.8L81.6,244.8l0-7.4h0V244.8z
	 M118.7,66.8h7.5v0L118.7,66.8L118.7,66.8z"/>
<polygon class="st2" points="148.4,274.5 141,274.5 133.6,274.5 118.7,274.5 96.5,274.5 89.1,274.5 81.6,274.5 66.8,274.5 
	66.8,281.9 74.2,281.9 74.2,289.3 89.1,289.3 96.5,289.3 103.9,289.3 126.2,289.3 133.6,289.3 148.4,289.3 148.4,281.9 155.8,281.9 
	155.8,274.5 "/>
<polygon class="st3" points="215.2,244.8 215.2,215.1 207.8,215.1 207.8,185.4 200.4,185.4 200.4,163.1 192.9,163.1 192.9,140.9 
	185.5,140.9 185.5,222.5 178.1,222.5 178.1,229.9 178.1,244.8 170.7,244.8 170.7,252.2 170.7,259.6 163.2,259.6 163.2,267 
	163.2,274.5 163.2,281.9 170.7,281.9 170.7,289.3 178.1,289.3 178.1,304.1 185.5,304.1 185.5,311.6 192.9,311.6 192.9,319 
	207.8,319 207.8,311.6 215.2,311.6 215.2,296.7 222.6,296.7 222.6,244.8 "/>

<title>clean-rocket</title>
<polygon class="st4" points="81.6,22.3 81.6,29.8 74.2,29.8 74.2,37.1 89.1,37.1 89.1,22.3 "/>
<polygon class="st5" points="74.2,244.9 81.6,244.9 81.6,237.4 74.2,237.4 "/>
<polygon class="st5" points="66.8,215.2 66.8,222.6 74.2,222.6 74.2,215.2 "/>
<polygon class="st5" points="74.2,222.6 74.2,230 81.6,230 81.6,222.6 "/>
<polygon class="st5" points="66.9,237.3 66.9,229.9 59.5,229.9 59.5,170.6 52,170.6 52,155.7 44.6,155.7 44.6,118.6 37.2,118.6 
	37.2,222.5 37.2,274.5 81.7,274.5 81.7,259.6 74.3,259.6 74.3,244.8 66.9,244.8 "/>
<polygon class="st3" points="141,29.8 141,22.3 133.6,22.3 133.6,14.8 126.1,14.8 126.1,7.4 118.7,7.4 118.7,0 111.3,0 111.3,22.3 
	118.7,22.3 118.7,37.1 141,37.1 141,37.2 148.4,37.2 148.4,29.8 "/>
<polygon class="st6" points="96.5,289.3 89.1,289.3 89.1,281.9 96.5,281.9 "/>
<polygon class="st6" points="89.1,281.9 81.6,281.9 81.6,274.5 89.1,274.5 "/>
<polygon class="st7" points="89.1,274.5 89.1,281.9 96.5,281.9 96.5,274.5 "/>
<polygon class="st7" points="96.5,289.3 103.9,289.3 103.9,281.9 96.5,281.9 "/>
<polygon class="st7" points="126.2,289.3 133.6,289.3 133.6,281.9 126.2,281.9 "/>
<polygon class="st7" points="133.6,274.5 133.6,281.9 141,281.9 141,274.5 "/>
<polygon class="st8" points="148.4,274.5 141,274.5 141,281.9 133.6,281.9 133.6,289.3 148.4,289.3 148.4,281.9 155.8,281.9 
	155.8,274.5 "/>
<polygon class="st9" points="126.2,185.5 118.7,185.5 118.7,192.9 126.2,192.9 "/>
<g>
	<rect x="185.5" y="140.9" class="st10" width="7.4" height="81.6"/>
	<polygon class="st10" points="178.1,229.9 178.1,244.8 185.5,244.8 185.5,222.5 178.1,222.5 	"/>
	<polygon class="st10" points="170.7,252.2 170.7,259.6 178.1,259.6 178.1,244.8 170.7,244.8 	"/>
	<polygon class="st10" points="163.2,267 163.2,274.5 170.7,274.5 170.7,259.6 163.2,259.6 	"/>
</g>
<polygon class="st3" points="215.2,244.7 215.2,215 207.8,215 207.8,185.3 200.4,185.3 200.4,163 192.9,163 192.9,222.4 
	185.5,222.4 185.5,244.7 178.1,244.7 178.1,259.5 170.7,259.5 170.7,274.4 163.2,274.4 163.2,281.8 170.7,281.8 170.7,289.2 
	178.1,289.2 178.1,304 185.5,304 185.5,311.5 192.9,311.5 192.9,318.9 207.8,318.9 207.8,311.5 215.2,311.5 215.2,296.6 
	222.6,296.6 222.6,244.7 "/>
<polygon class="st2" points="81.6,274.5 66.8,274.5 66.8,281.9 74.2,281.9 74.2,289.3 89.1,289.3 89.1,281.9 81.6,281.9 "/>
<polygon class="st2" points="118.7,274.4 96.5,274.4 96.5,281.8 103.9,281.8 103.9,289.2 126.2,289.2 126.2,281.8 133.6,281.8 
	133.6,274.4 "/>
<polygon class="st2" points="133.6,118.7 133.6,103.9 118.7,103.9 118.7,96.5 103.9,96.5 103.9,103.9 89.1,103.9 89.1,118.7 
	81.6,118.7 81.6,133.6 89.1,133.6 89.1,148.4 103.9,148.4 103.9,155.8 118.7,155.8 118.7,148.4 133.6,148.4 133.6,133.6 141,133.6 
	141,118.7 "/>
<polygon class="st1" points="103.9,96.5 96.5,96.5 96.5,89.1 103.9,89.1 "/>
<polygon class="st1" points="81.6,118.7 74.2,118.7 74.2,111.3 81.6,111.3 "/>
<polygon class="st1" points="103.9,163.2 96.5,163.2 96.5,155.8 103.9,155.8 "/>
<polygon class="st1" points="81.6,141 74.2,141 74.2,133.6 81.6,133.6 "/>
<polygon class="st1" points="81.6,118.7 74.2,118.7 74.2,111.3 81.6,111.3 "/>
<polygon class="st0" points="89.1,111.3 96.5,111.3 96.5,103.9 103.9,103.9 103.9,96.5 89.1,96.5 89.1,103.9 81.6,103.9 81.6,118.7 
	89.1,118.7 "/>
<polygon class="st0" points="81.6,118.7 74.2,118.7 74.2,133.6 81.6,133.6 "/>
<polygon class="st1" points="118.7,96.5 126.2,96.5 126.2,89.1 118.7,89.1 "/>
<polygon class="st9" points="141,118.7 148.4,118.7 148.4,111.3 141,111.3 "/>
<polygon class="st1" points="118.7,163.2 126.2,163.2 126.2,155.8 118.7,155.8 "/>
<polygon class="st9" points="118.7,163.2 126.2,163.2 126.2,155.8 118.7,155.8 "/>
<polygon class="st9" points="141,141 148.4,141 148.4,133.6 141,133.6 "/>
<polygon class="st0" points="118.7,96.5 118.7,103.9 126.2,103.9 126.2,96.5 "/>
<polygon class="st0" points="111.3,89.1 103.9,89.1 103.9,96.5 111.3,96.5 118.7,96.5 118.7,89.1 "/>
<g>
	<polygon class="st0" points="96.5,148.4 96.5,141 89.1,141 89.1,133.6 81.6,133.6 81.6,148.4 89.1,148.4 89.1,155.8 103.9,155.8 
		103.9,148.4 	"/>
	<polygon class="st0" points="111.3,155.8 103.9,155.8 103.9,163.2 111.3,163.2 118.7,163.2 118.7,155.8 	"/>
</g>
<polygon class="st0" points="126.2,103.9 126.2,111.3 133.6,111.3 133.6,103.9 "/>
<polygon class="st0" points="126.2,148.4 118.7,148.4 118.7,155.8 133.6,155.8 133.6,141 126.2,141 "/>
<polygon class="st3" points="126.2,96.5 126.2,103.9 133.6,103.9 133.6,96.5 "/>
<polygon class="st3" points="141,103.9 133.6,103.9 133.6,118.7 141,118.7 "/>
<polygon class="st3" points="141,118.7 141,133.6 148.4,133.6 148.4,118.7 "/>
<polygon class="st3" points="133.6,141 133.6,148.4 141,148.4 141,133.6 133.6,133.6 "/>
<g id="Layer_2">
	<polygon class="st11" points="103.9,356.1 96.5,356.1 96.5,348.7 103.9,348.7 	"/>
	<polygon class="st11" points="111.3,296.7 103.9,296.7 103.9,289.3 111.3,289.3 	"/>
	<polygon class="st11" points="111.3,304.1 103.9,304.1 103.9,296.7 111.3,296.7 	"/>
	<polygon class="st11" points="111.3,319 103.9,319 103.9,311.6 111.3,311.6 	"/>
	<polygon class="st11" points="111.3,311.6 103.9,311.6 103.9,304.1 111.3,304.1 	"/>
	<polygon class="st11" points="103.9,296.7 96.5,296.7 96.5,289.3 103.9,289.3 	"/>
	<polygon class="st11" points="103.9,304.1 96.5,304.1 96.5,296.7 103.9,296.7 	"/>
	<polygon class="st11" points="103.9,319 96.5,319 96.5,311.6 103.9,311.6 	"/>
	<polygon class="st11" points="103.9,311.6 96.5,311.6 96.5,304.1 103.9,304.1 	"/>
	<polygon class="st11" points="96.5,296.7 89.1,296.7 89.1,289.3 96.5,289.3 	"/>
	<polygon class="st11" points="96.5,311.6 89.1,311.6 89.1,304.1 96.5,304.1 	"/>
	<polygon class="st0" points="96.5,304.1 89.1,304.1 89.1,296.7 96.5,296.7 	"/>
	<polygon class="st11" points="111.3,333.8 103.9,333.8 103.9,326.4 111.3,326.4 	"/>
	<polygon class="st11" points="111.3,326.4 103.9,326.4 103.9,319 111.3,319 	"/>
	<polygon class="st11" points="103.9,326.4 96.5,326.4 96.5,319 103.9,319 	"/>
	<polygon class="st11" points="118.7,348.7 126.2,348.7 126.2,341.2 118.7,341.2 	"/>
	<polygon class="st11" points="111.3,296.7 118.7,296.7 118.7,289.3 111.3,289.3 	"/>
	<polygon class="st0" points="111.3,304.1 118.7,304.1 118.7,296.7 111.3,296.7 	"/>
	<polygon class="st11" points="111.3,319 118.7,319 118.7,311.6 111.3,311.6 	"/>
	<polygon class="st11" points="111.3,311.6 118.7,311.6 118.7,304.1 111.3,304.1 	"/>
	<polygon class="st11" points="118.7,296.7 126.2,296.7 126.2,289.3 118.7,289.3 	"/>
	<polygon class="st11" points="118.7,304.1 126.2,304.1 126.2,296.7 118.7,296.7 	"/>
	<polygon class="st11" points="118.7,319 126.2,319 126.2,311.6 118.7,311.6 	"/>
	<polygon class="st11" points="118.7,311.6 126.2,311.6 126.2,304.1 118.7,304.1 	"/>
	<polygon class="st11" points="126.2,296.7 133.6,296.7 133.6,289.3 126.2,289.3 	"/>
	<polygon class="st11" points="126.2,311.6 133.6,311.6 133.6,304.1 126.2,304.1 	"/>
	<polygon class="st12" points="133.6,289.3 133.6,296.7 126.2,296.7 126.2,304.1 133.6,304.1 133.6,311.6 126.2,311.6 126.2,319 
		126.2,326.4 118.7,326.4 118.7,333.8 111.3,333.8 103.9,333.8 103.9,326.4 96.5,326.4 96.5,319 96.5,311.6 89.1,311.6 89.1,304.1 
		89.1,296.7 89.1,289.3 81.6,289.3 81.6,296.7 81.6,304.1 81.6,311.6 81.6,319 81.6,326.4 89.1,326.4 89.1,333.8 89.1,341.2 
		96.5,341.2 96.5,348.7 103.9,348.7 103.9,356.1 103.9,363.5 111.3,363.5 118.7,363.5 118.7,356.1 126.2,356.1 126.2,348.7 
		118.7,348.7 118.7,341.2 126.2,341.2 133.6,341.2 133.6,333.8 133.6,326.4 141,326.4 141,319 141,311.6 141,304.1 141,296.7 
		141,289.3 	"/>
	<polygon class="st11" points="111.3,333.8 118.7,333.8 118.7,326.4 111.3,326.4 	"/>
	<polygon class="st12" points="111.3,326.4 118.7,326.4 118.7,319 111.3,319 	"/>
	<polygon class="st11" points="118.7,326.4 126.2,326.4 126.2,319 118.7,319 	"/>
</g>
<polygon class="st9" points="178.1,118.6 178.1,96.4 170.7,96.4 170.7,74.1 163.2,74.1 163.2,59.3 155.8,59.3 155.8,44.4 
	148.4,44.4 148.4,37.1 118.7,37.1 118.7,66.8 126.2,66.8 126.2,89.1 118.7,89.1 118.7,96.5 126.2,96.5 133.6,96.5 133.6,103.9 
	141,103.9 141,118.6 148.4,118.6 148.4,133.5 141,133.5 141,140.9 141,148.3 133.6,148.3 133.6,229.9 126.2,229.9 126.2,244.8 
	118.7,244.8 118.7,259.6 111.3,259.6 111.3,274.5 163.2,274.5 163.2,259.6 170.7,259.6 170.7,244.8 178.1,244.8 178.1,222.5 
	185.5,222.5 185.5,118.6 "/>
<polygon class="st0" points="52,259.6 52,244.8 44.6,244.8 44.6,229.9 44.6,222.5 37.2,222.5 37.2,207.7 37.2,140.9 29.8,140.9 
	29.8,163.1 22.4,163.1 22.4,185.4 14.9,185.4 14.9,215.1 7.5,215.1 7.5,244.8 0.1,244.8 0.1,296.7 7.5,296.7 7.5,311.6 14.9,311.6 
	14.9,319 29.8,319 29.8,311.6 37.2,311.6 37.2,304.1 44.6,304.1 44.6,289.3 52,289.3 52,281.9 59.5,281.9 59.5,274.5 59.5,259.6 "/>
<g>
	<rect x="44.6" y="244.8" class="st3" width="7.4" height="14.8"/>
	<rect x="52" y="259.6" class="st3" width="7.5" height="14.9"/>
	<polygon class="st3" points="37.2,140.9 29.8,140.9 29.8,222.5 37.2,222.5 37.2,207.7 	"/>
	<polygon class="st3" points="44.6,222.5 37.2,222.5 37.2,244.8 44.6,244.8 44.6,229.9 	"/>
</g>
</svg>
