<?xml version="1.0" encoding="UTF-8"?>
<svg width="192px" height="84px" viewBox="0 0 192 84" version="1.1" xmlns="http://www.w3.org/2000/svg" xmlns:xlink="http://www.w3.org/1999/xlink">
    <!-- Generator: Sketch 40.1 (33804) - http://www.bohemiancoding.com/sketch -->
    <title>envoc</title>
    <desc>Created with Sketch.</desc>
    <defs></defs>
    <g id="Page-1" stroke="none" stroke-width="1" fill="none" fill-rule="evenodd">
        <g id="envoc">
            <path d="M33.1,34.3 C33.1,35.3 32.7,35.4 31.7,35.8 L9.6,40.3 L9.6,45.4 C9.6,48.8 11.2,50.9 17.7,50.9 C24.2,50.9 25.8,48.8 25.8,45.4 L25.8,44.5 C25.8,43.4 26.2,42.9 27.4,42.9 L31.5,42.9 C32.6,42.9 33.1,43.4 33.1,44.5 L33.1,45.9 C33.1,52.6 29.1,57.1 17.5,57.1 C6,57 2,52.6 2,45.9 L2,26.5 C2,19.8 6.2,15.3 17.7,15.3 C29.2,15.3 33.1,19.8 33.1,26.5 L33.1,34.3 L33.1,34.3 L33.1,34.3 Z M9.6,33.2 L25.9,30 L25.9,27 C25.9,23.7 23.9,21.5 17.8,21.5 C11.6,21.5 9.7,23.7 9.7,27 C9.6,27 9.6,33.2 9.6,33.2 L9.6,33.2 Z" id="Shape" fill="#FFFFFF"></path>
            <path d="M48.3,17.5 L48.5,20.1 C50.8,18.1 55.3,15.3 62,15.3 C69.6,15.3 73.5,19.7 73.5,25.7 L73.5,54.7 C73.5,55.8 73.1,56.3 72,56.3 L67.3,56.3 C66.2,56.3 65.8,55.8 65.8,54.7 L65.8,27.6 C65.8,24.3 64.2,22.2 59.8,22.2 C54.6,22.2 50.5,25 48.7,26.4 L48.7,54.7 C48.7,55.8 48.3,56.3 47.2,56.3 L42.5,56.3 C41.4,56.3 40.9,55.8 40.9,54.7 L40.9,17.5 C40.9,16.4 41.3,16 42.5,16 L46.8,16 C47.9,16 48.2,16.5 48.3,17.5" id="Shape" fill="#FFFFFF"></path>
            <path d="M92.5,56.4 C91.4,56.4 91.1,56 90.9,54.9 L78.1,17.6 C77.8,16.5 78.4,16 79.5,16 L84.5,16 C85.6,16 86,16.7 86.2,17.6 L94,41 L95.3,45 L96.6,41.1 L104.7,17.6 C105,16.6 105.4,16 106.5,16 L111,16 C112.1,16 112.7,16.6 112.4,17.6 L99.5,54.9 C99.2,56 98.9,56.4 97.9,56.4 L92.5,56.4 L92.5,56.4 L92.5,56.4 Z" id="Shape" fill="#FFFFFF"></path>
            <path d="M188.2,26.5 L188.2,28 C188.2,29.1 187.8,29.5 186.7,29.5 L182.3,29.5 C181.2,29.5 180.7,29.1 180.7,28 L180.7,27.1 C180.7,23.7 178.8,21.7 172.6,21.7 C166.5,21.7 164.6,23.7 164.6,27.1 L164.6,45.3 C164.6,48.7 166.5,50.7 172.6,50.7 C178.8,50.7 180.7,48.8 180.7,45.3 L180.7,43.7 C180.7,42.6 181.1,42.1 182.3,42.1 L186.7,42.1 C187.8,42.1 188.2,42.6 188.2,43.7 L188.2,45.9 C188.2,52.6 184,57.1 172.6,57.1 C161.1,57.1 157,52.6 157,45.9 L157,26.5 C157,19.8 161.1,15.3 172.6,15.3 C184.1,15.3 188.2,19.8 188.2,26.5" id="Shape" fill="#FFFFFF"></path>
            <path d="M117.3,26.5 C117.3,19.8 122.1,15.3 133.6,15.3 C145.1,15.3 149.9,19.8 149.9,26.5 L149.9,45.9 C149.9,52.6 145.1,57.1 133.6,57.1 C122.1,57.1 117.3,52.6 117.3,45.9 L117.3,26.5 L117.3,26.5 Z M142.2,27.1 C142.2,23.6 139.8,21.6 133.7,21.6 C127.6,21.6 125.1,23.6 125.1,27.1 L125.1,45.2 C125.1,48.7 127.5,50.7 133.7,50.7 C139.8,50.7 142.2,48.8 142.2,45.2 L142.2,27.1 L142.2,27.1 Z" id="Shape" fill="#B0D135"></path>
            <path d="M142.6,2 C144.1,2 144.6,2.5 144.6,3.9 L144.6,8 C144.6,9.4 144,9.9 142.6,9.9 L124,9.9 C122.5,9.9 121.9,9.3 121.9,8 L121.9,3.9 C121.9,2.4 122.5,2 124,2 L142.6,2 L142.6,2 Z" id="Shape" fill="#B0D135"></path>
            <path d="M74.7,70.7 C74.7,69.2 75.7,68.2 78.2,68.2 C80.8,68.2 81.7,69.2 81.7,70.7 L81.7,77.2 C81.7,77.5 81.6,77.6 81.4,77.6 L80.4,77.6 C80.1,77.6 80.1,77.5 80,77.2 L80,76.7 C79.5,77.1 78.5,77.8 77.1,77.8 C75.4,77.8 74.5,76.8 74.5,75.5 L74.5,74.6 C74.5,73.4 75.4,72.3 77.1,72.3 L80,72.3 L80,70.9 C80,70.1 79.6,69.6 78.2,69.6 C76.8,69.6 76.4,70 76.4,70.8 L76.4,71 C76.4,71.3 76.3,71.4 76,71.4 L75,71.4 C74.8,71.4 74.7,71.3 74.7,71 L74.7,70.7 L74.7,70.7 L74.7,70.7 Z M80,75.3 L80,73.7 L77.4,73.7 C76.5,73.7 76.2,74.1 76.2,74.8 L76.2,75.2 C76.2,75.9 76.6,76.2 77.5,76.2 C78.7,76.2 79.6,75.6 80,75.3 L80,75.3 Z" id="Shape" fill="#B0D135"></path>
            <path d="M88.6,77.6 C88.3,77.6 88.2,77.5 88.2,77.2 L88.2,64.9 C88.2,64.6 88.3,64.5 88.6,64.5 L89.7,64.5 C89.9,64.5 90,64.6 90,64.9 L90,69.2 C90.5,68.8 91.5,68.1 93.1,68.1 C94.9,68.1 95.7,69.1 95.7,70.6 L95.7,75.1 C95.7,76.6 94.9,77.6 93.1,77.6 C91.5,77.6 90.5,76.9 90,76.5 L90,77.1 C90,77.4 89.9,77.5 89.6,77.5 L88.6,77.6 L88.6,77.6 L88.6,77.6 Z M93.9,71 C93.9,70.3 93.6,69.8 92.5,69.8 C91.3,69.8 90.4,70.5 90,70.8 L90,75.2 C90.4,75.5 91.3,76.1 92.5,76.1 C93.6,76.1 93.9,75.5 93.9,74.9 L93.9,71 L93.9,71 Z" id="Shape" fill="#B0D135"></path>
            <path d="M104.5,73 C104.5,73.2 104.4,73.3 104.2,73.3 L99.1,73.3 L99.1,75 C99.1,75.8 99.5,76.2 101,76.2 C102.5,76.2 102.9,75.7 102.9,75 L102.9,74.8 C102.9,74.6 103,74.4 103.3,74.4 L104.2,74.4 C104.4,74.4 104.6,74.5 104.6,74.8 L104.6,75.1 C104.6,76.6 103.7,77.7 101,77.7 C98.4,77.7 97.4,76.7 97.4,75.1 L97.4,70.7 C97.4,69.2 98.3,68.1 101,68.1 C103.6,68.1 104.5,69.1 104.5,70.7 L104.5,73 L104.5,73 L104.5,73 Z M99.1,72 L102.8,72 L102.8,70.8 C102.8,70.1 102.3,69.6 100.9,69.6 C99.5,69.6 99,70.1 99,70.8 L99,72 L99.1,72 Z" id="Shape" fill="#B0D135"></path>
            <path d="M111.4,68.4 C111.6,68.4 111.8,68.5 111.8,68.7 L111.8,69.4 C111.8,69.7 111.7,69.8 111.4,69.8 L109.5,69.8 L109.5,74.8 C109.5,75.6 110,76 111.4,76 L111.8,76 C112,76 112.2,76.1 112.2,76.4 L112.2,77.2 C112.2,77.5 112.1,77.6 111.8,77.6 L111.2,77.6 C108.6,77.6 107.8,76.7 107.8,75 L107.8,69.8 L106.8,69.8 C106.5,69.8 106.4,69.7 106.4,69.4 L106.4,68.7 C106.4,68.5 106.5,68.4 106.8,68.3 L107.7,68.2 L107.8,68.2 L107.8,66.3 C107.8,66 107.9,65.9 108.2,65.9 L109.3,65.9 C109.5,65.9 109.6,66 109.6,66.3 L109.6,68.2 L111.4,68.4 L111.4,68.4 L111.4,68.4 Z" id="Shape" fill="#B0D135"></path>
            <path d="M118.2,68.4 C118.4,68.4 118.6,68.5 118.6,68.7 L118.6,69.4 C118.6,69.7 118.5,69.8 118.2,69.8 L116.3,69.8 L116.3,74.8 C116.3,75.6 116.8,76 118.2,76 L118.6,76 C118.8,76 119,76.1 119,76.4 L119,77.2 C119,77.5 118.9,77.6 118.6,77.6 L118,77.6 C115.4,77.6 114.6,76.7 114.6,75 L114.6,69.8 L113.6,69.8 C113.3,69.8 113.2,69.7 113.2,69.4 L113.2,68.7 C113.2,68.5 113.3,68.4 113.6,68.3 L114.5,68.2 L114.6,68.2 L114.6,66.3 C114.6,66 114.7,65.9 115,65.9 L116.1,65.9 C116.3,65.9 116.4,66 116.4,66.3 L116.4,68.2 L118.2,68.4 L118.2,68.4 L118.2,68.4 Z" id="Shape" fill="#B0D135"></path>
            <path d="M127.7,73 C127.7,73.2 127.6,73.3 127.4,73.3 L122.3,73.3 L122.3,75 C122.3,75.8 122.7,76.2 124.2,76.2 C125.7,76.2 126.1,75.7 126.1,75 L126.1,74.8 C126.1,74.6 126.2,74.4 126.5,74.4 L127.4,74.4 C127.6,74.4 127.8,74.5 127.8,74.8 L127.8,75.1 C127.8,76.6 126.9,77.7 124.2,77.7 C121.6,77.7 120.6,76.7 120.6,75.1 L120.6,70.7 C120.6,69.2 121.5,68.1 124.2,68.1 C126.8,68.1 127.7,69.1 127.7,70.7 L127.7,73 L127.7,73 L127.7,73 Z M122.3,72 L126,72 L126,70.8 C126,70.1 125.5,69.6 124.1,69.6 C122.7,69.6 122.2,70.1 122.2,70.8 C122.3,70.8 122.3,72 122.3,72 L122.3,72 Z" id="Shape" fill="#B0D135"></path>
            <path d="M134.9,68.5 L134.9,69.4 C134.9,69.7 134.8,69.8 134.5,69.8 C133.1,69.9 132,70.6 131.6,71 L131.6,77.2 C131.6,77.5 131.5,77.6 131.3,77.6 L130.2,77.6 C129.9,77.6 129.8,77.5 129.8,77.2 L129.8,68.7 C129.8,68.5 129.9,68.3 130.2,68.3 L131.2,68.3 C131.5,68.3 131.5,68.4 131.6,68.7 L131.7,69.5 C132.2,69 133.2,68.2 134.6,68.2 C134.8,68.2 134.9,68.3 134.9,68.5 L134.9,68.5 Z" id="Shape" fill="#B0D135"></path>
            <path d="M145.5,68.5 L145.5,69.4 C145.5,69.7 145.4,69.8 145.1,69.8 C143.7,69.9 142.6,70.6 142.2,71 L142.2,77.2 C142.2,77.5 142.1,77.6 141.9,77.6 L140.8,77.6 C140.5,77.6 140.4,77.5 140.4,77.2 L140.4,68.7 C140.4,68.5 140.5,68.3 140.8,68.3 L141.8,68.3 C142.1,68.3 142.1,68.4 142.2,68.7 L142.3,69.5 C142.8,69 143.8,68.2 145.2,68.2 C145.3,68.2 145.5,68.3 145.5,68.5 L145.5,68.5 Z" id="Shape" fill="#B0D135"></path>
            <path d="M154,73 C154,73.2 153.9,73.3 153.7,73.3 L148.6,73.3 L148.6,75 C148.6,75.8 149,76.2 150.5,76.2 C152,76.2 152.4,75.7 152.4,75 L152.4,74.8 C152.4,74.6 152.5,74.4 152.8,74.4 L153.7,74.4 C153.9,74.4 154.1,74.5 154.1,74.8 L154.1,75.1 C154.1,76.6 153.2,77.7 150.5,77.7 C147.9,77.7 146.9,76.7 146.9,75.1 L146.9,70.7 C146.9,69.2 147.8,68.1 150.5,68.1 C153.1,68.1 154,69.1 154,70.7 L154,73 L154,73 L154,73 Z M148.6,72 L152.3,72 L152.3,70.8 C152.3,70.1 151.8,69.6 150.4,69.6 C149,69.6 148.5,70.1 148.5,70.8 C148.6,70.8 148.6,72 148.6,72 L148.6,72 Z" id="Shape" fill="#B0D135"></path>
            <path d="M156,70.7 C156,69.2 157,68.2 159.5,68.2 C162.1,68.2 163,69.2 163,70.7 L163,77.2 C163,77.5 162.9,77.6 162.7,77.6 L161.7,77.6 C161.4,77.6 161.4,77.5 161.3,77.2 L161.3,76.7 C160.8,77.1 159.8,77.8 158.4,77.8 C156.7,77.8 155.8,76.8 155.8,75.5 L155.8,74.6 C155.8,73.4 156.7,72.3 158.4,72.3 L161.3,72.3 L161.3,70.9 C161.3,70.1 160.9,69.6 159.5,69.6 C158.1,69.6 157.7,70 157.7,70.8 L157.7,71 C157.7,71.3 157.6,71.4 157.3,71.4 L156.3,71.4 C156.1,71.4 156,71.3 156,71 L156,70.7 L156,70.7 L156,70.7 Z M161.3,75.3 L161.3,73.7 L158.7,73.7 C157.8,73.7 157.5,74.1 157.5,74.8 L157.5,75.2 C157.5,75.9 157.9,76.2 158.8,76.2 C160,76.2 160.9,75.6 161.3,75.3 L161.3,75.3 Z" id="Shape" fill="#B0D135"></path>
            <path d="M167.1,77.2 C167.1,77.5 167,77.6 166.8,77.6 L165.7,77.6 C165.4,77.6 165.3,77.5 165.3,77.2 L165.3,64.9 C165.3,64.6 165.4,64.5 165.7,64.5 L166.8,64.5 C167,64.5 167.1,64.6 167.1,64.9 L167.1,77.2 L167.1,77.2 Z" id="Shape" fill="#B0D135"></path>
            <path d="M171.5,66.6 C171.5,66.8 171.4,67 171.2,67 L170.1,67 C169.8,67 169.7,66.9 169.7,66.6 L169.7,64.9 C169.7,64.6 169.8,64.5 170.1,64.5 L171.2,64.5 C171.4,64.5 171.5,64.6 171.5,64.9 L171.5,66.6 L171.5,66.6 Z M171.5,77.2 C171.5,77.5 171.4,77.6 171.2,77.6 L170.1,77.6 C169.8,77.6 169.7,77.5 169.7,77.2 L169.7,68.7 C169.7,68.4 169.8,68.3 170.1,68.3 L171.2,68.3 C171.4,68.3 171.5,68.4 171.5,68.7 L171.5,77.2 L171.5,77.2 Z" id="Shape" fill="#B0D135"></path>
            <path d="M178.5,68.4 C178.7,68.4 178.9,68.5 178.9,68.7 L178.9,69.4 C178.9,69.7 178.8,69.8 178.5,69.8 L176.6,69.8 L176.6,74.8 C176.6,75.6 177.1,76 178.5,76 L178.9,76 C179.1,76 179.3,76.1 179.3,76.4 L179.3,77.2 C179.3,77.5 179.2,77.6 178.9,77.6 L178.3,77.6 C175.7,77.6 174.9,76.7 174.9,75 L174.9,69.8 L173.9,69.8 C173.6,69.8 173.5,69.7 173.5,69.4 L173.5,68.7 C173.5,68.5 173.6,68.4 173.9,68.3 L174.8,68.2 L174.9,68.2 L174.9,66.3 C174.9,66 175,65.9 175.3,65.9 L176.4,65.9 C176.6,65.9 176.7,66 176.7,66.3 L176.7,68.2 L178.5,68.4 L178.5,68.4 L178.5,68.4 Z" id="Shape" fill="#B0D135"></path>
            <path d="M184,74.1 C184.2,74.6 184.3,75.3 184.3,75.4 C184.3,75.3 184.5,74.7 184.6,74.2 L186.4,68.8 C186.5,68.6 186.6,68.4 186.8,68.4 L187.8,68.4 C188,68.4 188.2,68.5 188.1,68.8 L183.9,81 C183.8,81.2 183.8,81.4 183.5,81.4 L182.7,81.4 C182.4,81.4 182.3,81.3 182.4,81 L183.4,77.7 L180.3,68.7 C180.2,68.5 180.4,68.3 180.6,68.3 L181.7,68.3 C181.9,68.3 182,68.4 182.1,68.7 L184,74.1 L184,74.1 Z" id="Shape" fill="#B0D135"></path>
        </g>
    </g>
</svg>