<?xml version="1.0" encoding="utf-8"?>
<!-- Generator: Adobe Illustrator 20.1.0, SVG Export Plug-In . SVG Version: 6.00 Build 0)  -->
<!DOCTYPE svg PUBLIC "-//W3C//DTD SVG 1.1//EN" "http://www.w3.org/Graphics/SVG/1.1/DTD/svg11.dtd">
<svg version="1.1" id="Layer_1" xmlns="http://www.w3.org/2000/svg" xmlns:xlink="http://www.w3.org/1999/xlink" x="0px" y="0px"
	 viewBox="0 0 186.2 79.4" style="enable-background:new 0 0 186.2 79.4;" xml:space="preserve">
<style type="text/css">
	.st0{fill:#FFFFFF;}
	.st1{fill:#284358;}
</style>
<g>
	<path class="st0" d="M31.1,32.3c0,1-0.4,1.1-1.4,1.5L7.6,38.3v5.1c0,3.4,1.6,5.5,8.1,5.5c6.5,0,8.1-2.1,8.1-5.5v-0.9
		c0-1.1,0.4-1.6,1.6-1.6h4.1c1.1,0,1.6,0.5,1.6,1.6v1.4c0,6.7-4,11.2-15.6,11.2C4,55,0,50.6,0,43.9V24.5c0-6.7,4.2-11.2,15.7-11.2
		c11.5,0,15.4,4.5,15.4,11.2L31.1,32.3L31.1,32.3z M7.6,31.2L23.9,28v-3c0-3.3-2-5.5-8.1-5.5c-6.2,0-8.1,2.2-8.1,5.5
		C7.6,25,7.6,31.2,7.6,31.2z"/>
	<path class="st0" d="M46.3,15.5l0.2,2.6c2.3-2,6.8-4.8,13.5-4.8c7.6,0,11.5,4.4,11.5,10.4v29c0,1.1-0.4,1.6-1.5,1.6h-4.7
		c-1.1,0-1.5-0.5-1.5-1.6V25.6c0-3.3-1.6-5.4-6-5.4c-5.2,0-9.3,2.8-11.1,4.2v28.3c0,1.1-0.4,1.6-1.5,1.6h-4.7
		c-1.1,0-1.6-0.5-1.6-1.6V15.5c0-1.1,0.4-1.5,1.6-1.5h4.3C45.9,14,46.2,14.5,46.3,15.5"/>
	<path class="st0" d="M90.5,54.4c-1.1,0-1.4-0.4-1.6-1.5L76.1,15.6c-0.3-1.1,0.3-1.6,1.4-1.6h5c1.1,0,1.5,0.7,1.7,1.6L92,39l1.3,4
		l1.3-3.9l8.1-23.5c0.3-1,0.7-1.6,1.8-1.6h4.5c1.1,0,1.7,0.6,1.4,1.6L97.5,52.9c-0.3,1.1-0.6,1.5-1.6,1.5L90.5,54.4L90.5,54.4z"/>
	<path class="st0" d="M186.2,24.5V26c0,1.1-0.4,1.5-1.5,1.5h-4.4c-1.1,0-1.6-0.4-1.6-1.5v-0.9c0-3.4-1.9-5.4-8.1-5.4
		c-6.1,0-8,2-8,5.4v18.2c0,3.4,1.9,5.4,8,5.4c6.2,0,8.1-1.9,8.1-5.4v-1.6c0-1.1,0.4-1.6,1.6-1.6h4.4c1.1,0,1.5,0.5,1.5,1.6v2.2
		c0,6.7-4.2,11.2-15.6,11.2c-11.5,0-15.6-4.5-15.6-11.2V24.5c0-6.7,4.1-11.2,15.6-11.2C182.1,13.3,186.2,17.8,186.2,24.5"/>
</g>
<g>
	<path class="st1" d="M115.3,24.5c0-6.7,4.8-11.2,16.3-11.2c11.5,0,16.3,4.5,16.3,11.2v19.4c0,6.7-4.8,11.2-16.3,11.2
		c-11.5,0-16.3-4.5-16.3-11.2V24.5z M140.2,25.1c0-3.5-2.4-5.5-8.5-5.5c-6.1,0-8.6,2-8.6,5.5v18.1c0,3.5,2.4,5.5,8.6,5.5
		c6.1,0,8.5-1.9,8.5-5.5V25.1z"/>
	<path class="st1" d="M140.6,0c1.5,0,2,0.5,2,1.9v4.1c0,1.4-0.6,1.9-2,1.9H122c-1.5,0-2.1-0.6-2.1-1.9V1.9c0-1.5,0.6-1.9,2.1-1.9
		H140.6z"/>
</g>
<g>
	<g>
		<path class="st1" d="M72.7,68.7c0-1.5,1-2.5,3.5-2.5c2.6,0,3.5,1,3.5,2.5v6.5c0,0.3-0.1,0.4-0.3,0.4h-1c-0.3,0-0.3-0.1-0.4-0.4
			l0-0.5c-0.5,0.4-1.5,1.1-2.9,1.1c-1.7,0-2.6-1-2.6-2.3v-0.9c0-1.2,0.9-2.3,2.6-2.3H78v-1.4c0-0.8-0.4-1.3-1.8-1.3
			c-1.4,0-1.8,0.4-1.8,1.2V69c0,0.3-0.1,0.4-0.4,0.4h-1c-0.2,0-0.3-0.1-0.3-0.4L72.7,68.7L72.7,68.7z M78,73.3v-1.6h-2.6
			c-0.9,0-1.2,0.4-1.2,1.1v0.4c0,0.7,0.4,1,1.3,1C76.7,74.2,77.6,73.6,78,73.3z"/>
		<path class="st1" d="M86.6,75.6c-0.3,0-0.4-0.1-0.4-0.4V62.9c0-0.3,0.1-0.4,0.4-0.4h1.1c0.2,0,0.3,0.1,0.3,0.4v4.3
			c0.5-0.4,1.5-1.1,3.1-1.1c1.8,0,2.6,1,2.6,2.5v4.5c0,1.5-0.8,2.5-2.6,2.5c-1.6,0-2.6-0.7-3.1-1.1l0,0.6c0,0.3-0.1,0.4-0.4,0.4
			L86.6,75.6L86.6,75.6z M91.9,69c0-0.7-0.3-1.2-1.4-1.2c-1.2,0-2.1,0.7-2.5,1v4.4c0.4,0.3,1.3,0.9,2.5,0.9c1.1,0,1.4-0.6,1.4-1.2
			V69z"/>
		<path class="st1" d="M102.5,71c0,0.2-0.1,0.3-0.3,0.3h-5.1V73c0,0.8,0.4,1.2,1.9,1.2s1.9-0.5,1.9-1.2v-0.2c0-0.2,0.1-0.4,0.4-0.4
			h0.9c0.2,0,0.4,0.1,0.4,0.4v0.3c0,1.5-0.9,2.6-3.6,2.6c-2.6,0-3.6-1-3.6-2.6v-4.4c0-1.5,0.9-2.6,3.6-2.6c2.6,0,3.5,1,3.5,2.6
			L102.5,71L102.5,71z M97.1,70h3.7v-1.2c0-0.7-0.5-1.2-1.9-1.2c-1.4,0-1.9,0.5-1.9,1.2V70z"/>
		<path class="st1" d="M109.4,66.4c0.2,0,0.4,0.1,0.4,0.3v0.7c0,0.3-0.1,0.4-0.4,0.4h-1.9v5c0,0.8,0.5,1.2,1.9,1.2h0.4
			c0.2,0,0.4,0.1,0.4,0.4v0.8c0,0.3-0.1,0.4-0.4,0.4h-0.6c-2.6,0-3.4-0.9-3.4-2.6v-5.2h-1c-0.3,0-0.4-0.1-0.4-0.4v-0.7
			c0-0.2,0.1-0.3,0.4-0.4l0.9-0.1h0.1v-1.9c0-0.3,0.1-0.4,0.4-0.4h1.1c0.2,0,0.3,0.1,0.3,0.4v1.9L109.4,66.4L109.4,66.4z"/>
		<path class="st1" d="M116.2,66.4c0.2,0,0.4,0.1,0.4,0.3v0.7c0,0.3-0.1,0.4-0.4,0.4h-1.9v5c0,0.8,0.5,1.2,1.9,1.2h0.4
			c0.2,0,0.4,0.1,0.4,0.4v0.8c0,0.3-0.1,0.4-0.4,0.4h-0.6c-2.6,0-3.4-0.9-3.4-2.6v-5.2h-1c-0.3,0-0.4-0.1-0.4-0.4v-0.7
			c0-0.2,0.1-0.3,0.4-0.4l0.9-0.1h0.1v-1.9c0-0.3,0.1-0.4,0.4-0.4h1.1c0.2,0,0.3,0.1,0.3,0.4v1.9L116.2,66.4L116.2,66.4z"/>
		<path class="st1" d="M125.7,71c0,0.2-0.1,0.3-0.3,0.3h-5.1V73c0,0.8,0.4,1.2,1.9,1.2s1.9-0.5,1.9-1.2v-0.2c0-0.2,0.1-0.4,0.4-0.4
			h0.9c0.2,0,0.4,0.1,0.4,0.4v0.3c0,1.5-0.9,2.6-3.6,2.6c-2.6,0-3.6-1-3.6-2.6v-4.4c0-1.5,0.9-2.6,3.6-2.6c2.6,0,3.5,1,3.5,2.6
			L125.7,71L125.7,71z M120.3,70h3.7v-1.2c0-0.7-0.5-1.2-1.9-1.2c-1.4,0-1.9,0.5-1.9,1.2C120.3,68.8,120.3,70,120.3,70z"/>
		<path class="st1" d="M132.9,66.5v0.9c0,0.3-0.1,0.4-0.4,0.4c-1.4,0.1-2.5,0.8-2.9,1.2v6.2c0,0.3-0.1,0.4-0.3,0.4h-1.1
			c-0.3,0-0.4-0.1-0.4-0.4v-8.5c0-0.2,0.1-0.4,0.4-0.4h1c0.3,0,0.3,0.1,0.4,0.4l0.1,0.8c0.5-0.5,1.5-1.3,2.9-1.3
			C132.8,66.2,132.9,66.3,132.9,66.5z"/>
		<path class="st1" d="M143.5,66.5v0.9c0,0.3-0.1,0.4-0.4,0.4c-1.4,0.1-2.5,0.8-2.9,1.2v6.2c0,0.3-0.1,0.4-0.3,0.4h-1.1
			c-0.3,0-0.4-0.1-0.4-0.4v-8.5c0-0.2,0.1-0.4,0.4-0.4h1c0.3,0,0.3,0.1,0.4,0.4l0.1,0.8c0.5-0.5,1.5-1.3,2.9-1.3
			C143.3,66.2,143.5,66.3,143.5,66.5z"/>
		<path class="st1" d="M152,71c0,0.2-0.1,0.3-0.3,0.3h-5.1V73c0,0.8,0.4,1.2,1.9,1.2c1.5,0,1.9-0.5,1.9-1.2v-0.2
			c0-0.2,0.1-0.4,0.4-0.4h0.9c0.2,0,0.4,0.1,0.4,0.4v0.3c0,1.5-0.9,2.6-3.6,2.6c-2.6,0-3.6-1-3.6-2.6v-4.4c0-1.5,0.9-2.6,3.6-2.6
			c2.6,0,3.5,1,3.5,2.6L152,71L152,71z M146.6,70h3.7v-1.2c0-0.7-0.5-1.2-1.9-1.2c-1.4,0-1.9,0.5-1.9,1.2
			C146.6,68.8,146.6,70,146.6,70z"/>
		<path class="st1" d="M154,68.7c0-1.5,1-2.5,3.5-2.5c2.6,0,3.5,1,3.5,2.5v6.5c0,0.3-0.1,0.4-0.3,0.4h-1c-0.3,0-0.3-0.1-0.4-0.4
			l0-0.5c-0.5,0.4-1.5,1.1-2.9,1.1c-1.7,0-2.6-1-2.6-2.3v-0.9c0-1.2,0.9-2.3,2.6-2.3h2.9v-1.4c0-0.8-0.4-1.3-1.8-1.3
			c-1.4,0-1.8,0.4-1.8,1.2V69c0,0.3-0.1,0.4-0.4,0.4h-1c-0.2,0-0.3-0.1-0.3-0.4L154,68.7L154,68.7z M159.3,73.3v-1.6h-2.6
			c-0.9,0-1.2,0.4-1.2,1.1v0.4c0,0.7,0.4,1,1.3,1C158,74.2,158.9,73.6,159.3,73.3z"/>
		<path class="st1" d="M165.1,75.2c0,0.3-0.1,0.4-0.3,0.4h-1.1c-0.3,0-0.4-0.1-0.4-0.4V62.9c0-0.3,0.1-0.4,0.4-0.4h1.1
			c0.2,0,0.3,0.1,0.3,0.4V75.2z"/>
		<path class="st1" d="M169.5,64.6c0,0.2-0.1,0.4-0.3,0.4h-1.1c-0.3,0-0.4-0.1-0.4-0.4v-1.7c0-0.3,0.1-0.4,0.4-0.4h1.1
			c0.2,0,0.3,0.1,0.3,0.4V64.6z M169.5,75.2c0,0.3-0.1,0.4-0.3,0.4h-1.1c-0.3,0-0.4-0.1-0.4-0.4v-8.5c0-0.3,0.1-0.4,0.4-0.4h1.1
			c0.2,0,0.3,0.1,0.3,0.4V75.2z"/>
		<path class="st1" d="M176.5,66.4c0.2,0,0.4,0.1,0.4,0.3v0.7c0,0.3-0.1,0.4-0.4,0.4h-1.9v5c0,0.8,0.5,1.2,1.9,1.2h0.4
			c0.2,0,0.4,0.1,0.4,0.4v0.8c0,0.3-0.1,0.4-0.4,0.4h-0.6c-2.6,0-3.4-0.9-3.4-2.6v-5.2h-1c-0.3,0-0.4-0.1-0.4-0.4v-0.7
			c0-0.2,0.1-0.3,0.4-0.4l0.9-0.1h0.1v-1.9c0-0.3,0.1-0.4,0.4-0.4h1.1c0.2,0,0.3,0.1,0.3,0.4v1.9L176.5,66.4L176.5,66.4z"/>
		<path class="st1" d="M182,72.1c0.2,0.5,0.3,1.2,0.3,1.3c0-0.1,0.2-0.7,0.3-1.2l1.8-5.4c0.1-0.2,0.2-0.4,0.4-0.4h1
			c0.2,0,0.4,0.1,0.3,0.4L181.9,79c-0.1,0.2-0.1,0.4-0.4,0.4h-0.8c-0.3,0-0.4-0.1-0.3-0.4l1-3.3l-3.1-9c-0.1-0.2,0.1-0.4,0.3-0.4
			h1.1c0.2,0,0.3,0.1,0.4,0.4L182,72.1z"/>
	</g>
</g>
</svg>
