<?xml version="1.0" encoding="utf-8"?>
<!-- Generator: Adobe Illustrator 20.0.0, SVG Export Plug-In . SVG Version: 6.00 Build 0)  -->
<svg version="1.1" id="Layer_1" xmlns="http://www.w3.org/2000/svg" xmlns:xlink="http://www.w3.org/1999/xlink" x="0px" y="0px"
	 viewBox="0 0 440.6 162.6" style="enable-background:new 0 0 440.6 162.6;" xml:space="preserve">
<style type="text/css">
	.st0{fill:#76BA29;}
	.st1{fill:#707070;}
</style>
<g>
	<path class="st0" d="M261.6,134.1c16.5,0,27.1-8.6,33.7-28c0.2-0.6-0.3-1.3-0.9-1.3h-2.8c-0.4,0-0.8,0.3-0.9,0.7
		c-7.3,20.8-18.2,24.1-29.1,24.1c-0.8,0-1.5,0-2.3-0.1c-0.2,0-0.5,0-0.7,0c-0.5,0-1-0.1-1.4-0.1c-0.3,0-0.5-0.1-0.8-0.1
		c-0.6-0.1-1.1-0.2-1.7-0.3c-0.3-0.1-0.7-0.1-1-0.2c-0.2-0.1-0.4-0.1-0.7-0.2c-0.4-0.1-0.7-0.2-1.1-0.3c-0.1,0-0.2-0.1-0.3-0.1
		c-0.8-0.3-1.6-0.6-2.2-1c-1.6-3-2.3-6.9-2.3-11.7c0-2.6,0.2-5.1,0.8-9.5c0.1-0.6-0.4-1.1-1-1.1H238c-0.5,0-0.9,0.4-1,0.9
		c-0.1,1.5-0.2,2.7-0.2,4C236.9,126.1,245,134.1,261.6,134.1z"/>
	<path class="st0" d="M220.5,60c0.5,0,0.8-0.3,0.9-0.8c8.1-36.7,28.3-54.6,61.9-54.6c30.2,0,44.8,14.8,44.8,45.2
		c0,2.5-0.1,5.1-0.6,9.1c-0.1,0.6,0.4,1.1,1,1.1h8.8c0.5,0,0.9-0.4,1-0.9c0.1-1.3,0.1-2.4,0.1-3.6c0-14.7-3.5-26.2-10.2-34.5
		c-0.9-1.2-4-4.3-7-7.2c-1.6-1.7-3.3-3.3-5.1-4.6c-0.1,0-0.1-0.1-0.2-0.1c0,0-0.1,0-0.1-0.1c-1-0.7-2-1.4-3-2c0,0,0,0-0.1,0
		c-2.1-1.3-4.4-2.3-6.8-3.3c-0.1-0.1-0.3-0.1-0.4-0.2c-1.2-0.4-2.4-0.8-3.6-1.2c-0.1,0-0.3-0.1-0.4-0.1c-1.3-0.3-2.6-0.7-3.9-0.9
		c0,0,0,0-0.1,0c-1.3-0.3-2.7-0.5-4.1-0.6c-0.2,0-0.5-0.1-0.7-0.1c-1.3-0.2-2.7-0.3-4.1-0.4c-0.3,0-0.5,0-0.8,0
		c-1.5-0.1-3-0.1-4.5-0.1c-35.7,0-58,19.8-66.4,58.8c-0.1,0.6,0.3,1.2,1,1.2H220.5z"/>
	<path class="st0" d="M280.9,22.7c-18.6,0-30,11.2-36.1,36.1c-0.2,0.6,0.3,1.2,0.9,1.2h10c0.4,0,0.8-0.3,0.9-0.7
		c7.4-23,19.6-26.4,29.9-26.4c4.8,0,8.7,0.8,11.7,2.4c0.2,0.4,0.4,0.9,0.6,1.3c0.1,0.2,0.2,0.5,0.3,0.8c0.1,0.3,0.2,0.6,0.3,0.9
		c0.1,0.3,0.2,0.5,0.2,0.8c0.1,0.4,0.2,0.8,0.3,1.2c0,0.2,0.1,0.4,0.1,0.6c0.1,0.6,0.2,1.3,0.3,1.9c0,0.2,0.1,0.5,0.1,0.7
		c0.1,0.5,0.1,1,0.1,1.6c0,0.2,0,0.5,0,0.7c0,0.8,0.1,1.5,0.1,2.3c0,2.2-0.1,4.7-0.9,10.6c-0.1,0.6,0.4,1.1,1,1.1h2.6
		c0.5,0,0.9-0.4,1-0.8c0.8-5.9,0.9-8.5,0.9-10.9C305.5,31.3,297.2,22.7,280.9,22.7z"/>
	<path class="st0" d="M185,127.7l3.9-21.7c0.1-0.6-0.4-1.1-1-1.1h-9.4c-0.5,0-0.9,0.3-1,0.8l-4.7,26l25,1.4l-2.6,16.3h-72.9
		l2.5-16.2l25.5-1.4l4.7-25.7c0.1-0.6-0.3-1.1-1-1.1h-2.7c-0.5,0-0.9,0.3-1,0.8l-4,21.7l-24.2,1.3c-0.8,0-1.4,0.6-1.6,1.4l-3.5,23
		c-0.1,0.5,0.1,1.1,0.5,1.4l4.6,4.6c0.3,0.3,0.7,0.5,1.2,0.5h79.9c0.8,0,1.5-0.6,1.6-1.4l3.7-22.9c0.1-0.5-0.1-1.1-0.5-1.4l-4.6-4.6
		c-0.3-0.3-0.7-0.5-1.1-0.5L185,127.7z"/>
	<path class="st0" d="M162,42.9l-2.9,16c-0.1,0.6,0.3,1.1,1,1.1h2.7c0.5,0,0.9-0.3,1-0.8l5.9-32.1l-25.8,10.2l2.9-16.9l32.1-13.9
		h16.7L186,58.8c-0.1,0.6,0.4,1.1,1,1.1h9.4c0.5,0,0.9-0.3,1-0.8l9.1-50.6c0.1-0.5-0.1-1.1-0.5-1.5l-4.6-4.6
		C201,2.1,200.6,2,200.2,2h-22.1c-0.2,0-0.5,0-0.7,0.1l-34.1,14.7c-0.5,0.2-0.9,0.7-1,1.2L138,43.7c-0.1,0.5,0.1,1.1,0.5,1.5
		l4.3,4.3c0.5,0.5,1.2,0.6,1.8,0.4L162,42.9z"/>
	<path class="st0" d="M319.1,105.5c-9.1,32-28.5,47-60.2,46.9c-24.6-0.1-44.6-20.2-44.6-44.8c0-0.6,0-1.2,0-1.8c0-0.5-0.4-1-1-1
		h-2.6c-0.5,0-1,0.4-1,1c0,0.6,0,1.2,0,1.8c0,0.9,0,1.9,0,2.8c0,0.3,0,0.6,0,0.9c0,0.6,0.1,1.2,0.1,1.8c0,0.4,0.1,0.7,0.1,1.1
		c0,0.5,0.1,1,0.1,1.6c0,0.4,0.1,0.8,0.1,1.1c0.1,0.5,0.1,1,0.2,1.4c0.1,0.4,0.1,0.8,0.2,1.2c0.1,0.4,0.2,0.9,0.2,1.3
		c0.1,0.4,0.1,0.8,0.2,1.2c0.1,0.4,0.2,0.8,0.3,1.2c0.1,0.4,0.2,0.8,0.3,1.2c0.1,0.4,0.2,0.8,0.3,1.1c0.1,0.4,0.2,0.8,0.3,1.2
		c0.1,0.3,0.2,0.6,0.3,1c0.5,1.6,1.1,3.2,1.8,4.6c0.1,0.2,0.2,0.4,0.3,0.6c0.2,0.4,0.4,0.9,0.6,1.3c0.1,0.2,0.2,0.4,0.3,0.6
		c0.2,0.4,0.5,0.8,0.7,1.2c0.1,0.2,0.2,0.4,0.4,0.6c0.2,0.4,0.5,0.8,0.8,1.2c0.1,0.2,0.2,0.4,0.4,0.5c0.3,0.4,0.5,0.8,0.8,1.2
		c0.1,0.2,0.2,0.3,0.3,0.5c0.3,0.4,0.6,0.8,0.9,1.2c0,0,0,0.1,0.1,0.1c0.1,0.1,0.2,0.3,0.4,0.4c0.9,1,1.8,2,2.7,2.9
		c2.6,2.7,5.8,5.9,6.9,6.8c8.3,7.3,20,11.1,34.9,11.1c35.5,0,57.1-18.6,65.9-56.6c0.1-0.6-0.3-1.2-1-1.2h-9.8
		C319.6,104.8,319.3,105.1,319.1,105.5z"/>
</g>
<g>
	<path class="st1" d="M153.8,77.4c0-5-2.1-6.4-6.3-6.4c-1.3,0-4,0.4-5.6,1V75h-7.7v-7.1c2.2-1.2,7.4-3.4,13.4-3.4
		c8.9,0,14.6,3.1,14.6,12.9c0,5.5-0.2,10.1-0.3,14.8l3.8,0v6.6h-11.2v-2.1c0-2.2,0.1-3.3,0.5-4.6h-0.1c-2.2,5.1-5.3,7.4-10.9,7.4
		c-7.6,0-11.2-4.5-11.2-9.7c0-4.8,3.2-7.9,6.7-9.2c3.4-1.2,7.9-1.5,14.5-1.5V77.4z M151.1,84.5c-7.3,0-9.6,1.5-9.6,4.4
		c0,2,1.4,4,4.9,4c3.6,0,7.1-2.3,7.2-8.4L151.1,84.5z"/>
	<path class="st1" d="M170.5,59.3l8.9-3.4l0,9.4h9v6.5h-9v14.8c0,4.7,1.2,5.9,4.9,5.9c1.2,0,2.7-0.4,4.3-1l-0.3,6.3
		c-3.3,1.2-5.6,1.6-7.8,1.6c-6.6,0-10.1-3.1-10.1-9V71.8h-4.5l0-6.5l4.5,0V59.3z"/>
	<path class="st1" d="M207.5,64.5c11.3,0,17.6,6.2,17.6,17.8c0,10-6.9,17.1-17.6,17.1c-10.7,0-17.6-5.8-17.6-17.1
		C189.9,72.7,196.6,64.5,207.5,64.5z M207.5,92.2c5.5,0,7.9-3.6,7.9-9.7c0-7.2-2.4-10.7-7.9-10.7c-5.5,0-7.9,4.7-7.9,10.7
		C199.7,88.5,202,92.2,207.5,92.2z"/>
	<path class="st1" d="M230.5,71.8h-4.4l0-6.5h13l-0.6,7.6h0.1c1.4-5.6,4.5-8.4,9.6-8.4c1.1,0,2,0.2,2.9,0.4l-1,7.9
		c0,0-1.5-0.2-2.4-0.2c-4.9,0-8.3,3.3-8.3,8.8v10.8h4.2l0,6.5h-16.8v-6.5h3.6L230.5,71.8z"/>
	<path class="st1" d="M351.8,71.8h-4.4l0-6.5h13l-0.6,7.6h0.1c1.4-5.6,4.5-8.4,9.6-8.4c1.1,0,2,0.2,2.9,0.4l-1,7.9
		c0,0-1.5-0.2-2.4-0.2c-4.9,0-8.3,3.3-8.3,8.8v10.8h4.2l0,6.5h-16.8v-6.5h3.6L351.8,71.8z"/>
	<path class="st1" d="M296.1,65.3l16,0v6.5l-3.1,0l-11.6,26.9l-9.3,0l-4.5-11.6c-0.3-0.8-0.6-1.7-0.8-2.9l-0.1,0
		c-0.2,1.2-0.4,2-0.8,2.9l-5,11.6l-9.3,0l-11.2-26.9h-3.1v-6.5h16l0,6.5H266c0.6,1,1.1,2.2,1.6,3.7l4.1,11.3c0.4,1.3,0.8,2.4,1,3.8
		h0.1c0.3-1.3,0.9-2.6,1.5-3.9l5-11.1l-1.5-3.8h-3.6l0-6.5h16.2l0,6.5l-3.5,0c0.6,0.9,1.1,2.2,1.6,3.7l4.2,11.3
		c0.6,1.5,0.8,2.4,1,3.8h0.1c0.3-1.4,0.5-2.3,1-3.8l4-11.3c0.5-1.5,1-2.7,1.6-3.7h-4.4V65.3z"/>
	<path class="st1" d="M328.9,64.5c11.2,0,17.6,6.2,17.6,17.8c0,10-6.9,17.1-17.6,17.1c-10.7,0-17.6-5.8-17.6-17.1
		C311.3,72.8,318,64.5,328.9,64.5z M328.9,92.2c5.5,0,7.9-3.6,7.9-9.6c0-7.2-2.4-10.7-7.9-10.7c-5.5,0-7.9,4.7-7.9,10.7
		C321,88.5,323.4,92.2,328.9,92.2z"/>
	<path class="st1" d="M430.9,71.6c-1.8-0.6-3.5-1-5.2-1c-4.1,0-6,1.7-6,3.5c0,1.6,0.4,2.2,3,2.6l7,1c7.7,1.1,10.9,4,10.9,10.1
		c0,5.9-4.2,11.6-15.8,11.6c-4,0-9.6-0.8-13.1-2.1V88l8,0v3.9c1.5,0.5,4,1.1,6,1.1c1.8,0,6.5-0.6,6.5-4.1c0-1.9-1.1-2.8-5-3.4
		l-7.5-1.1c-5.8-0.9-8.3-4.1-8.3-8.9c0-8.2,7.8-10.9,14.7-10.9c3.6,0,8.1,0.6,13,2.2V75l-8.1,0V71.6z"/>
	<path class="st0" d="M0.3,87.1c1.4-1.9,9.1-11.4,24.4-19c17.1-8.4,38.2-8,41.7,6.7c3,12.8-9.3,22.6-19.4,25
		c-9.4,2.2-27.8-0.4-29.4-9.9C16,79.5,34.3,74.4,34.3,74.4S33,83.2,45.3,95c0,0,8-11.9,6.6-20.9c-1.4-9.1-14.2-11.1-29.5-1.4
		C7.1,82.4,4.6,91.9,7.9,97.4c3.3,5.6,14.6,11.8,36.5,9.2c0.4,0.4-19.3,9.7-41.9-4.3c0,0,5.8,18.3,35.4,17.6
		c29.2-0.7,46.9-18.5,45.6-22.5c-1.2-3.6-8.4-2-15.1-0.4c0,0,13.6-11.1,9.3-26.5c-4.3-15.3-25.5-15.9-39.3-12.2
		c-24.4,6.5-37.4,25.8-38,27C-0.1,86-0.1,86.8,0.3,87.1z"/>
	<path class="st1" d="M122.2,94.1l-11.1-1.2c-1.7-0.2-2.4-0.6-2.4-1.8c0-1,1.1-1.8,2.2-1.8l3.2,0c7.4,0,14.1-3.8,14.2-11.9
		c0-1.9-0.2-3.8-1-5.7l3.7-3l-4.5-5.7l-4.1,3.3c-2.2-1.2-5.1-1.9-8.9-1.9c-9.7,0-16.1,4.9-16.1,12.7c0,4.9,2,9,8.4,11.1v0.1
		c-3.2,0.6-6.5,2.2-6.5,5.6c0,3.1,1.7,4.4,4.5,5l0,0.1c-5.9,1.4-7.4,4.7-7.4,7.5c0,4.1,3.3,8.9,16.9,9c13.7,0,17.6-7.7,17.7-12.5
		C131.2,97.2,128,94.8,122.2,94.1z M113.4,71c4,0,7.2,2.3,7.2,5.8c0,2.9-1.9,6-7.5,6c-4.5,0-7.1-2.2-7.1-5.7
		C106,72.7,109.5,71,113.4,71z M114.1,108.9c-5.4,0-9-1.3-9-4.4c0-1.9,2-3.3,3.7-3.9l9.5,1c3,0.3,4.4,0.6,4.4,2.7
		C122.7,107.4,118.1,108.9,114.1,108.9z"/>
	<path class="st1" d="M405.4,92.2l-11.8-12.9l9.6-7.5h4.9v-6.5h-17v6.5h4l-10,7.8V51.9h-12.9v6.6h4v33.7h-3.7v6.5h15.7v-6.5h-3.1
		V81.7c2.3,2.5,7.1,8.3,7.8,8.9c0.8,0.8,2,1.5,2,1.5v0.1h-3.5v6.5h17.8v-6.5H405.4z"/>
</g>
<g>
	<path class="st0" d="M346.5,144.2c-2.4,4.9-3.8,7-8.7,7c-1.9,0-3.8-0.2-5-0.5l0.6-3.6c1.6,0.1,2.3,0.1,3.2,0.1
		c1.7,0,2.2-0.6,3.1-2.3l0.5-1l-3.4-18.5h5.8l1,9.6c0.2,1.6,0.2,3.3,0.3,5c0.6-1.7,1.1-3.2,1.9-5l4.1-9.6h5.7L346.5,144.2z"/>
	<path class="st0" d="M373.8,136.3h-11.9c-0.1,0.8-0.2,1.3-0.2,1.8c0,1.5,0.8,2.3,3.7,2.3c1.9,0,3.5-0.1,6.9-0.3l-0.6,3.8
		c-1.5,0.4-4.1,0.8-7.3,0.8c-5.2,0-8-2-8-6.7c0-1,0.1-2,0.3-3.1l0.2-1c1-6.6,4.8-8.8,10.1-8.8c5.3,0,7.4,2.8,7.4,6.8
		C374.3,133.1,374.1,134.4,373.8,136.3z M366.3,129c-2.7,0-3.5,1.9-3.9,3.9l-0.1,0.3h6.5c0.1-0.7,0.2-1.3,0.2-1.7
		C369.1,130.1,368.5,129,366.3,129z"/>
	<path class="st0" d="M388.6,144.1l0.2-1c-1.4,0.9-3.2,1.4-5.4,1.4c-3.6,0-5.6-2.2-5.6-6.3c0-0.8,0.1-1.8,0.3-2.8l0.4-2.3
		c1.2-6.7,4.2-8.3,10.7-8.3c2.1,0,5.1,0.2,7.7,0.5l-3.1,18.7H388.6z M390.7,129.4c-0.9-0.1-2.1-0.1-2.6-0.1c-2.4,0-3.6,0.7-4.3,4.5
		l-0.4,2.3c-0.1,0.8-0.2,1.4-0.2,1.9c0,1.6,0.8,2.4,2.6,2.4c1.1,0,2.2-0.3,3.1-0.7L390.7,129.4z"/>
	<path class="st0" d="M412.9,129.7c-2,0-4.3,0.4-5.8,0.9l-2.3,13.5h-5.6l3.2-18.7h5.1l-0.3,1.5c2.1-1.7,4.4-2,6.4-2L412.9,129.7z"/>
	<path class="st0" d="M430,129.2c-2.3-0.2-4.4-0.4-5.8-0.4c-1.3,0-2.9,0.1-2.9,1.6c0,0.8,0.6,1.1,2.1,1.7l1.5,0.6
		c3.1,1.3,4.4,2.7,4.4,5.3c0,4.8-3.9,6.5-9.1,6.5c-2.5,0-5.4-0.4-6.4-0.7l0.6-3.4c2.4,0.1,3.4,0.4,6.1,0.4c1.7,0,3.2-0.3,3.2-1.9
		c0-0.9-0.4-1.2-2.4-2l-1.3-0.6c-2.8-1.1-4.3-2.8-4.3-5.5c0-4.9,4.1-5.9,8.3-5.9c2.7,0,5.1,0.4,6.5,0.8L430,129.2z"/>
</g>
</svg>
