<?xml version="1.0" encoding="utf-8"?>
<!-- Generator: Adobe Illustrator 20.1.0, SVG Export Plug-In . SVG Version: 6.00 Build 0)  -->
<!DOCTYPE svg PUBLIC "-//W3C//DTD SVG 1.1//EN" "http://www.w3.org/Graphics/SVG/1.1/DTD/svg11.dtd">
<svg version="1.1" id="Layer_1" xmlns="http://www.w3.org/2000/svg" xmlns:xlink="http://www.w3.org/1999/xlink" x="0px" y="0px"
	 viewBox="0 0 864.7 285.6" style="enable-background:new 0 0 864.7 285.6;" xml:space="preserve">
<style type="text/css">
	.st0{fill:#CA2026;}
	.st1{fill-rule:evenodd;clip-rule:evenodd;}
	.st2{fill-rule:evenodd;clip-rule:evenodd;fill:#FFFFFF;}
</style>
<path d="M671.2,65.4c2.5-0.8,6.5-1.1,7.4-1.1c1.3,0,2-0.6,2.2-1.7c0.2-0.8-0.8-1.3-2.7-1.3c-6.6,0-15.8,0.6-17.2,0.6
	c-1.9,0-10.7-0.6-21.5-0.6c-2.5,0-3.7,0.4-3.9,1.5c-0.1,0.8,0.6,1.5,1.6,1.5c9.7,0,11.6,2.5,10.9,6.3c-0.5,2.7-1.2,5.7-4.7,13.5
	c-12.2,27.1-42.4,88.4-51.6,107.8h-0.8L570,72.2c-1.3-7.2-2.1-9.9-3.5-9.9c-1.3,0-2.3,1.1-7,9.7l-66.1,120.5h-0.4
	c-1.2-11.2-9.5-88.8-10.3-102.3c-0.5-9.3-1.1-16.7-0.6-19.5c0.5-2.7,2.3-4.4,3.6-5.1c2.8-1.3,6.8-1.3,8.5-1.3c1.1,0,2.2-0.2,2.4-1.5
	c0.1-0.8-0.6-1.5-3.5-1.5c-10.6,0-20,0.6-21.9,0.6c-2.3,0-13.8-0.6-24.8-0.6c-2.1,0-3.5,0.4-3.6,1.5c-0.2,1.3,0.6,1.5,1.6,1.5
	c1.5,0,6.7,0.2,9.3,1.3c5.1,2.1,7.3,5.3,8.7,16.5l15.5,125.4c1.7,14.4,2.3,16.7,4.5,16.7c2.5,0,4-2.3,9-11.2
	c11.1-19.7,53.7-97,64.9-117.3h0.4l20.7,117.6c1.5,8.2,2.3,11,4.4,11c2.3,0,3.8-2.5,12.1-18.2c12.4-23.7,45.6-90.9,59.7-117.8
	C659.5,76.6,664.4,67.7,671.2,65.4 M732.3,63.1c0.2-1.3-0.8-1.7-3.1-1.7c-6.3,0-19.8,0.6-20.8,0.6c-1.1,0-14.3-0.6-21.2-0.6
	c-2.3,0-3.5,0.4-3.7,1.7c-0.1,0.8,0.6,1.3,1.5,1.3c1.5,0,4.2,0.2,6.4,0.8c4.5,1.1,5.9,4.7,5.1,11.8c-0.8,6.8-1.8,12.7-7.6,45.7
	l-6.6,37.2c-3.6,20.3-6.5,37-9.1,45.9c-1.9,6.1-3.8,10.8-8.2,11.6c-2,0.4-4.6,0.8-6.5,0.8c-1.3,0-1.8,0.6-1.9,1.3
	c-0.2,1.3,0.8,1.7,3.1,1.7c6.3,0,19.8-0.6,20.8-0.6c1.1,0,14.3,0.6,25.9,0.6c2.3,0,3.5-0.6,3.7-1.7c0.1-0.6-0.2-1.3-1.5-1.3
	c-1.9,0-6.5-0.4-9.4-0.8c-6.2-0.8-6.6-5.5-6.2-11.6c0.5-8.9,3.5-25.6,7-45.9l6.6-37.2c5.8-33,6.9-38.9,8.5-45.7
	c1.7-7.4,4.1-11,9.9-12.1c2.6-0.4,3.9-0.6,5.4-0.6C731.2,64.4,732.1,63.9,732.3,63.1 M863.9,59.9c-0.8,0-2.9,0.6-6.1,1.1
	c-3.5,0.6-8.4,1.1-15.2,1.1h-79.3c-2.5,0-10.5-0.4-16.5-1.1c-5.6-0.4-7.4-2.5-8.9-2.5c-0.8,0-2.2,2.7-2.8,4
	c-0.7,1.7-8.2,19.9-8.5,22c-0.2,1.3,0.1,1.9,0.7,1.9c0.8,0,1.6-0.4,2.5-2.1c0.9-1.5,1.8-3,4.8-6.6c4.3-5.1,9.6-6.6,22.8-6.8
	l31.4-0.4l-15.8,89.4c-3.6,20.3-6.5,37-9.1,45.9c-1.9,6.1-3.8,10.8-8.2,11.6c-2,0.4-4.6,0.8-6.5,0.8c-1.3,0-1.8,0.6-1.9,1.3
	c-0.2,1.3,0.8,1.7,3.1,1.7c6.3,0,19.8-0.6,20.8-0.6c1.1,0,14.3,0.6,25.9,0.6c2.3,0,3.5-0.6,3.7-1.7c0.1-0.6-0.2-1.3-1.5-1.3
	c-1.9,0-6.5-0.4-9.4-0.8c-6.2-0.8-6.6-5.5-6.2-11.6c0.5-8.9,3.5-25.6,7-45.9l15.8-89.4l26.6,0.4c20.2,0.4,24.4,5.3,24,11.6l-0.2,2.3
	c-0.3,3,0,3.6,1.1,3.6c0.8,0,1.6-0.8,2-2.8c0.4-2.3,3.6-16.9,4.7-23.3C864.7,61.2,865,59.9,863.9,59.9"/>
<path class="st0" d="M313.9,198.7c6.4-5.2,12-10.6,16.5-16.1c4.5-5.4,11.5-14.8,20.8-28.2c24.7-5.6,48.7-16.2,71.5-31.3
	c23.5-15.6,35-28.9,35-40.5c0-3.9-1.4-7.2-4.2-9.7c-2.8-2.5-6.4-3.7-10.8-3.7c-11.9,0-28.5,7.5-49.3,22.3
	c-20.6,14.6-39.3,35.5-55.5,61.9c-13.2,3-26,4.5-38,4.5c-15.6,0-27-2.8-33.8-8.4c-6.8-5.6-10.1-11.8-10.1-19.1
	c0-10.1,4.5-20.5,13.4-31c8.9-10.5,22-18.6,38.8-24c17-5.4,33.7-8.2,49.8-8.2c5.2,0,10.1,0.2,14.6,0.7l1.5,0.1l0.4-4.2l-1.5-0.1
	c-5.4-0.5-10.6-0.7-15.3-0.7c-28.6,0-53.8,5.9-74.8,17.6c-21.4,11.9-32.2,27.6-32.2,46.7c0,9.3,3.8,17.5,11.2,24.4
	c7.4,6.8,20,10.3,37.4,10.3c11.8,0,23.7-1.3,35.3-3.8c-20.8,31.8-41.8,51-62.4,57.4c-16.5-5.4-33.4-8.2-50.2-8.2
	c-7.8,0-13.5,0.8-17.5,2.3c-5.5,2.1-6.6,5.6-6.6,8.1c0,2.9,2.2,5.1,6.4,6.7c3.8,1.4,11.8,2.1,24.4,2.1c13.4,0,26.1-1.7,37.9-5.2
	c12.2,3.9,24.8,5.9,37.7,5.9c14,0,26.8-2,37.9-5.9c7.7-2.7,14.7-6.4,21-11c-0.4,1.5-0.5,3-0.5,4.5c0,3.4,0.8,6.2,2.3,8.4
	c1.6,2.4,3.9,3.6,6.8,3.6c5.4,0,14.4-5,27.5-15.4c-1.2,2.7-1.8,5-1.8,7.2c0,2.2,0.6,4,1.8,5.6c1.3,1.7,3.2,2.6,5.4,2.6
	c2.3,0,5.5-1.3,9.8-3.9c4.1-2.5,12-8.8,24.4-19.3l1.3-1.1l-2.9-2.9l-1.1,0.9c-11.3,9.6-19.1,15.9-23,18.5c-4.9,3.3-7.1,3.8-7.9,3.8
	c-0.6,0-1.2-0.2-1.8-0.7c-0.3-0.2-0.7-0.6-0.7-1.7c0-0.9,0.6-2.9,4.3-6.7l34.3-35.8H427l-6.1,6.4c-0.2-2.6-1.6-6.2-7.9-6.2
	c-8.6,0-19.1,3.8-31.4,11.4c-6.1,3.8-10.8,7.7-13.9,11.9c-10.1,8.8-20,14.4-29.5,16.8c-9.8,2.5-19,3.7-27.4,3.7
	c-8.4,0-18.7-1.6-30.6-4.6c5.8-1.8,11-3.9,15.5-6.3C301.4,208.1,307.5,204,313.9,198.7z M380.9,113.6c11.8-13.5,23.3-23.7,34.2-30.3
	c10.8-6.6,20.1-9.9,27.6-9.9c3.1,0,5.6,0.8,7.8,2.6c2.1,1.6,3.1,3.6,3.1,5.9c0,9.2-10,21.2-29.8,35.8c-19.2,14.1-42.5,24.9-69.3,32
	C361.1,138.2,370,126,380.9,113.6z M220.5,212.5c10.3,0,23.1,2.3,38.3,6.9c-8,2.1-18.1,3.2-30.1,3.2c-15,0-20.5-0.9-22.6-1.7
	c-2.4-0.9-3.7-2-3.7-2.9C202.4,214.4,208.8,212.5,220.5,212.5z M413.7,192.2c-1.9,2.7-6.5,7.2-13.7,13.4
	c-7.2,6.2-13.4,10.7-18.3,13.4c-5.9,3.3-8.8,4-10.1,4c-1.1,0-1.9-0.3-2.4-0.8c-0.6-0.6-0.8-1.1-0.8-1.7c0-2.7,3.1-8.8,17.7-21.9
	c11.8-10.6,20.7-16,26.6-16c3.7,0,3.7,1.7,3.7,2.6C416.4,187.2,415.5,189.6,413.7,192.2z"/>
<g>
	<path class="st1" d="M191.9,270c-20-3.6-30.8-20.1-39.4-33.9c-14.7-23.6-37.2-88.5-50.2-123.3c3.5-8.8,15.3-27.7,18.6-33l-1.8-0.9
		l-9.5,15.6c0,0-13.1-6.2-17,4.9c-3.9-10.8-17.6-5.1-17.6-5.1l-6.2-14.6l-2,1.1c2.6,6,11.2,24.8,14.4,31.8
		c-16,45.6-35.2,102.3-45.2,121.3c-10,19-21.3,36-30.5,34.9c68.8,38.7,68.3-3.9,139,11.1C168.5,280.4,163.7,269.7,191.9,270z"/>
	<path class="st2" d="M189.5,269.8c0,0-61,6.8-85.4-115.1C131.1,275.1,189.5,269.8,189.5,269.8 M73.2,216.1
		c-3.7,14.4-9.3,51-22.9,67.2c9.9-12.6,15.9-44.1,21.4-67.2c5.5-23.1,18.5-101.7,18.5-101.7S76.9,201.7,73.2,216.1 M113.6,213.3
		c-11.4-33.5-21.1-99.1-21.1-99.1s10.8,63.7,22.3,98.4c11.5,34.8,15.6,43.9,29.4,63.2C128.6,254.5,125,246.9,113.6,213.3"/>
	<g>
		<path class="st1" d="M96.1,39.8c0.6,0,1.2,0.1,1.8,0.1c4.2,0.9,5.7,5.2,3.8,9.1c-2.8,5.5-10.5,7.7-11.5,14.1
			c-0.2-4.7,3-6.4,5.5-8.8c2-2,4.6-4.3,5.2-7.3c0.4-2.2-0.1-4.1-1.8-4.9c-4.5-2.3-12.8,1.6-13.7,5.4c-1.8,7.6,10.2,3.5,5-0.4
			c1.8,0.5,2.1,1.4,2.2,2c0.2,2.3-2.8,3.7-5.1,3.5c-3.7-0.4-4.2-5.3-2.1-8C87.6,41.7,92,40.1,96.1,39.8z"/>
		<path class="st1" d="M126.2,86.4c-3.7-11.5-25.4-7.6-31.6-17c3.7,4.5,13.1,4.5,20.5,7.2c5.1,1.9,9.5,2.9,11,8.9
			C126,85.6,126.2,86.1,126.2,86.4z"/>
		<path class="st1" d="M56.3,90.6c1.7-6.3,9.7-10.4,16-13.3c4.7-2.1,10-3.8,15.3-6.1c1.5-0.6,4.3-1.6,4.4-2.7
			c0.1-1.9-4.5-1.5-4.4-3.3c0.1-1.4,3.6-1.6,5.1-1.8c-1.5,0.5-3.2,0.9-4.5,1.7c1.3,1.2,4.6,0.9,4.9,2.9c0.3,2.1-2.1,3.3-3.7,4
			c-5,2.4-11.1,4.3-16,6.5c-7.4,3.2-16.4,7.7-17.1,13.3c16.9-7.7,42.8-9.9,68.4-5.3c-19.6-1.3-37.9-1.5-53.7,1.6
			c-5.2,1-10.1,2.5-14.8,3.8C56.1,91.6,56.2,91.2,56.3,90.6z"/>
	</g>
	<path d="M27.6,113.8C9.2,97.1-0.1,78.8,0,59.1c0-13.9,5-28.5,14.2-42.3C21.2,6.5,28.1,0.3,28.4,0l5,5.6l-2.5-2.8l2.5,2.8
		c-0.1,0.1-6.6,6-13,15.6c-5.8,8.7-12.8,22.4-12.8,38c0,17.4,8.4,33.9,25.2,49.1L27.6,113.8L27.6,113.8z"/>
	<path d="M39.8,99.8C26.1,87.4,19.1,73.6,19.2,58.9c0.1-25,20.3-43.4,21.2-44.2l5.2,5.8L43,17.6l2.6,2.9C45.4,20.7,27,37.4,27,58.9
		C27,71.4,33,83.2,45.1,94L39.8,99.8L39.8,99.8z"/>
	<path d="M52.4,87.9C42.8,79.1,37.9,69.4,37.9,59C38,41.3,52.2,28.4,52.8,27.8l5.2,5.8l-2.6-2.9l2.6,2.9
		C57.9,33.8,45.7,44.9,45.7,59c0,8.1,4,15.9,11.9,23.1L52.4,87.9L52.4,87.9z"/>
	<path d="M158.4,113.8l-5-5.6c16.7-15.1,25.2-31.6,25.2-49.1c0-15.6-7-29.3-12.8-38c-6.4-9.6-13-15.5-13-15.6l5-5.6
		c0.3,0.3,7.2,6.5,14.1,16.8C181,30.6,186,45.2,186,59.1C186.1,78.8,176.8,97.1,158.4,113.8L158.4,113.8z"/>
	<path d="M146.2,99.8L141,94c12-10.9,18.1-22.7,18.1-35.1c-0.1-21.6-18.4-38.2-18.6-38.4l5.2-5.8c0.9,0.8,21.1,19.1,21.2,44.2
		C166.9,73.6,159.9,87.4,146.2,99.8L146.2,99.8z"/>
	<path d="M133.6,87.9l-5.2-5.8c7.9-7.2,12-14.9,11.9-23.1c0-14.2-12.2-25.3-12.3-25.4l5.2-5.8c0.6,0.5,14.8,13.5,14.9,31.1
		C148.1,69.4,143.2,79.1,133.6,87.9L133.6,87.9z"/>
</g>
</svg>
