<?xml version="1.0" encoding="utf-8"?>
<!-- Generator: Adobe Illustrator 20.0.0, SVG Export Plug-In . SVG Version: 6.00 Build 0)  -->
<svg version="1.1" id="Layer_1" xmlns="http://www.w3.org/2000/svg" xmlns:xlink="http://www.w3.org/1999/xlink" x="0px" y="0px"
	 viewBox="0 0 128.8 105.6" style="enable-background:new 0 0 128.8 105.6;" xml:space="preserve">
<style type="text/css">
	.st0{fill:#3C2415;}
	.st1{fill:#B1884D;}
</style>
<g>
	<g>
		<circle class="st0" cx="84.9" cy="30.6" r="30.6"/>
	</g>
	<g>
		<g>
			<path class="st1" d="M109.5,30.6c-0.1,10.5-6.7,19.9-16.6,23.4c-10,3.5-21.2-0.2-27.6-8.5c-6.4-8.4-6.6-20.2-0.7-28.9
				c5.9-8.8,17.2-12.7,27.3-9.7C102.3,10,109.5,19.9,109.5,30.6c0,0.5,0.9,0.3,0.9-0.1c-0.1-9.8-5.8-18.8-14.7-23
				C86.8,3.4,75.9,5,68.4,11.3c-7.6,6.4-10.7,16.8-8,26.3c2.6,9.4,10.8,16.4,20.3,18c7.3,1.2,15-1,20.6-5.8c5.7-4.8,8.9-11.9,9-19.3
				C110.4,30.1,109.5,30.2,109.5,30.6z"/>
		</g>
		<g>
			<path class="st1" d="M75.3,3.2C75.3,3.2,75.3,3.2,75.3,3.2c-1.4,0.5-2.7,1.1-4,1.7c0,0,0,0,0,0c0.6,1.1,1.8,1.5,2.8,1
				C75.1,5.6,75.6,4.3,75.3,3.2z M80.1,2C80.1,2,80.1,2,80.1,2c-1.4,0.2-2.9,0.6-4.2,1c0,0,0,0,0,0c0.4,1.1,1.5,1.8,2.6,1.5
				C79.6,4.2,80.3,3.2,80.1,2z M95,3.4c-1.3-0.5-2.7-0.9-4.2-1.2l0,0c-0.2,1.2,0.5,2.3,1.5,2.6C93.4,5.1,94.6,4.5,95,3.4
				C95,3.4,95,3.4,95,3.4z M60.9,18.6c0.5-1,0.1-2.2-0.9-2.9c0,0,0,0,0,0c-0.7,1.2-1.4,2.5-1.9,3.9c0,0,0,0,0,0
				C59.1,20.1,60.4,19.6,60.9,18.6z M90.2,2c-1.4-0.3-2.8-0.4-4.3-0.5c0,0,0,0,0,0c0,1.2,0.8,2.2,1.9,2.3C88.9,4,89.9,3.2,90.2,2
				C90.2,2,90.2,2,90.2,2z M63.3,14.7c0.7-0.9,0.5-2.2-0.4-3c0,0,0,0,0,0c-0.9,1.1-1.8,2.3-2.6,3.5c0,0,0,0,0,0
				C61.4,15.8,62.7,15.5,63.3,14.7z M70.7,5.3C70.7,5.3,70.7,5.3,70.7,5.3c-1.3,0.7-2.5,1.5-3.6,2.4c0,0,0,0,0,0
				c0.7,0.9,2.1,1.1,3,0.5C70.9,7.6,71.2,6.4,70.7,5.3z M66.4,11.2c0.8-0.8,0.9-2.1,0.1-3l0,0c-1.1,0.9-2.2,1.9-3.1,3l0,0
				C64.3,11.9,65.6,11.9,66.4,11.2z M96.7,6.4c1,0.5,2.2,0.1,2.9-0.9c0,0,0,0,0,0c-1.2-0.7-2.5-1.4-3.9-1.9c0,0,0,0,0,0
				C95.3,4.7,95.7,6,96.7,6.4z M111,24c0.3,1.1,1.4,1.8,2.6,1.6c0,0,0,0,0,0c-0.3-1.4-0.6-2.8-1.1-4.2c0,0,0,0,0,0
				C111.4,21.8,110.7,22.9,111,24z M113.7,26.3C113.7,26.3,113.7,26.3,113.7,26.3c-1.2,0.2-2,1.2-1.9,2.3c0.1,1.1,1,2,2.3,2l0,0
				C114,29.1,113.9,27.7,113.7,26.3z M85.2,1.6c-0.1,0-0.1,0-0.2,0c-1.4,0-2.8,0.1-4.1,0.3c0,0,0,0,0,0C81,3,82,3.9,83.1,3.8
				C84.2,3.7,85.1,2.8,85.2,1.6C85.2,1.6,85.2,1.6,85.2,1.6z M86.7,57.4c-1.1,0.1-2,1-2,2.2c0,0,0,0,0,0c0.1,0,0.1,0,0.2,0
				c1.4,0,2.8-0.1,4.1-0.3c0,0,0,0,0,0C88.9,58.2,87.8,57.4,86.7,57.4z M109.5,19.6c0.5,1,1.7,1.5,2.8,1.1c0,0,0,0,0,0
				c-0.5-1.4-1.1-2.7-1.8-4C109.4,17.4,109,18.6,109.5,19.6z M107.2,15.5c0.6,0.9,1.9,1.2,2.9,0.6c0,0,0,0,0,0
				c-0.7-1.3-1.5-2.5-2.4-3.6c0,0,0,0,0,0C106.8,13.3,106.6,14.6,107.2,15.5z M104.2,11.9c0.8,0.8,2.1,0.9,3,0.1c0,0,0,0,0,0
				c-0.9-1.1-1.9-2.2-3-3.1c0,0,0,0,0,0C103.4,9.8,103.5,11.1,104.2,11.9z M110.7,38.2c-0.3,1,0.3,2.2,1.4,2.7c0,0,0,0,0,0
				c0.5-1.3,0.9-2.7,1.2-4.2c0,0,0,0,0,0C112.1,36.5,111,37.2,110.7,38.2z M100.7,8.9c0.9,0.6,2.2,0.5,3-0.4c0,0,0,0,0,0
				c-1.1-0.9-2.3-1.8-3.5-2.5c0,0,0,0,0,0C99.6,6.9,99.8,8.2,100.7,8.9z M58.1,32.6c-0.1-1.1-1-2-2.3-2c0,1.5,0.1,2.9,0.3,4.3
				c0,0,0,0,0,0C57.4,34.7,58.2,33.7,58.1,32.6z M99.8,53c-0.9,0.6-1.2,1.9-0.6,2.9c0,0,0,0,0,0c1.3-0.7,2.5-1.5,3.6-2.4
				c0,0,0,0,0,0C102.1,52.6,100.8,52.4,99.8,53z M95.8,55.2c-1,0.4-1.5,1.7-1.1,2.8c0,0,0,0,0,0c1.4-0.5,2.7-1.1,4-1.7c0,0,0,0,0,0
				C98,55.2,96.8,54.8,95.8,55.2z M82.1,57.3c-1.1-0.1-2.1,0.7-2.4,1.8c0,0,0,0,0,0c1.4,0.3,2.8,0.4,4.3,0.5c0,0,0,0,0,0
				C84,58.4,83.2,57.4,82.1,57.3z M91.3,56.7c-1.1,0.3-1.8,1.4-1.6,2.5c0,0,0,0,0,0c1.4-0.2,2.8-0.6,4.2-1c0,0,0,0,0,0
				C93.6,57.1,92.4,56.4,91.3,56.7z M103.5,50c-0.8,0.8-0.9,2.1-0.1,3h0c1.1-0.9,2.2-1.9,3.1-3c0,0,0,0,0,0
				C105.6,49.3,104.3,49.3,103.5,50z M106.6,46.5c-0.7,0.9-0.5,2.2,0.4,3c0,0,0,0,0,0c0.9-1.1,1.8-2.3,2.6-3.5c0,0,0,0,0,0
				C108.5,45.4,107.2,45.7,106.6,46.5z M111.6,33.7c-0.1,1.1,0.7,2.1,1.8,2.4c0,0,0,0,0,0c0.3-1.4,0.4-2.8,0.5-4.3c0,0,0,0,0,0
				C112.8,31.7,111.8,32.6,111.6,33.7z M109,42.6c-0.5,1-0.1,2.2,0.9,2.9c0,0,0,0,0,0c0.7-1.2,1.4-2.5,1.9-3.9c0,0,0,0,0,0
				C110.7,41.1,109.5,41.6,109,42.6z M73.1,54.8c-1-0.5-2.2-0.1-2.9,0.9c0,0,0,0,0,0c1.2,0.7,2.5,1.4,3.9,1.9c0,0,0,0,0,0
				C74.6,56.5,74.1,55.2,73.1,54.8z M60.4,41.6c-0.5-1-1.7-1.5-2.8-1.1l0,0c0.5,1.4,1.1,2.7,1.8,4C60.5,43.9,60.9,42.6,60.4,41.6z
				 M62.7,45.7c-0.6-0.9-1.9-1.2-2.9-0.6c0,0,0,0,0,0c0.7,1.3,1.5,2.5,2.4,3.6c0,0,0,0,0,0C63.1,47.9,63.3,46.6,62.7,45.7z
				 M58.9,37.2c-0.3-1.1-1.4-1.8-2.6-1.6c0,0,0,0,0,0c0.2,1.4,0.6,2.8,1.1,4.2c0,0,0,0,0,0C58.5,39.4,59.2,38.3,58.9,37.2z
				 M58.2,27.5c0.1-1.1-0.7-2.1-1.8-2.4c0,0,0,0,0,0c-0.3,1.4-0.4,2.8-0.5,4.3c0,0,0,0,0,0C57.1,29.5,58.1,28.6,58.2,27.5z
				 M69.2,52.4c-0.9-0.6-2.2-0.5-3,0.4c0,0,0,0,0,0c1.1,0.9,2.3,1.8,3.5,2.5v0C70.3,54.3,70,53,69.2,52.4z M59.2,23
				c0.3-1-0.3-2.2-1.4-2.7c0,0,0,0,0,0c-0.5,1.3-0.9,2.7-1.2,4.2c0,0,0,0,0,0C57.7,24.7,58.8,24,59.2,23z M65.6,49.3
				c-0.8-0.8-2.1-0.9-3-0.1c0,0,0,0,0,0c0.9,1.1,1.9,2.2,3,3.1c0,0,0,0,0,0C66.4,51.4,66.4,50.1,65.6,49.3z M77.5,56.4
				c-1-0.3-2.2,0.3-2.7,1.4l0,0c1.3,0.5,2.7,0.9,4.2,1.2l0,0C79.2,57.8,78.5,56.7,77.5,56.4z"/>
		</g>
		<g>
			<rect x="70.3" y="15" class="st1" width="25.4" height="0.7"/>
			<path class="st1" d="M83.7,12.3c0-0.2-0.2-0.4-0.5-0.4c-0.2,0-0.4,0.2-0.5,0.4h0v21.7h1L83.7,12.3L83.7,12.3z"/>
			<g>
				<path class="st1" d="M95.1,29C87.1,29,79,29,71,29c3.4-4.7,3.4-8.7,0-13.5c8.1,0,16.1,0,24.2,0C98.5,20.3,98.5,24.3,95.1,29z"/>
			</g>
			<path class="st1" d="M105.2,38.1c-0.1-0.6-0.5-1.1-1.1-1.5c-0.3-0.2-0.7-0.3-1-0.3v0c0,0,0,0-0.1,0c-0.2,0-0.4,0.1-0.6,0.2
				c-0.4,0.2-0.6,0.6-0.6,1.1c0,0.7,0.6,1.3,1.3,1.3c0.5,0,1-0.3,1.2-0.8c0,0.1,0.1,0.2,0.1,0.2c0.1,0.4-0.2,1-0.5,1.2
				c-0.5,0.4-1.3,0.4-1.7,0.3c-0.6-0.1-1.3-0.2-3.1-2c-1-1.2-1.8-2.7-1.9-4.6c0-0.5,0-1.1,0-1.3l0-0.1c0-0.1,0-0.3-0.1-0.5
				c-0.1-0.5-0.4-0.9-0.8-1.2c-0.4-0.2-0.8-0.3-1.2-0.2c-0.4,0.1-0.8,0.3-1,0.7c-0.1,0.2-0.2,0.4-0.2,0.7h0c0,0,0,0,0,0
				c0,0.2,0,0.3,0.1,0.4c0.1,0.2,0.4,0.4,0.7,0.4c0.5,0,0.8-0.4,0.8-0.8c0-0.4-0.2-0.6-0.5-0.8c0.1,0,0.1,0,0.2-0.1
				c0.3-0.1,0.7,0.1,0.8,0.4c0.2,0.4,0.2,0.9,0.2,1.2c-0.1,0.3-0.1,0.5-0.4,1c-4.1,0-14.5,0-14.5,0l-0.6-1.9h-12
				c0,0,1.2,5.6,1.4,5.6c7.8-0.2,8.5,4.1,8.5,4.1l-0.1,0.3H102v0c0.1,0,0.2,0,0.2,0l0.2,0c0.2,0,0.5,0,0.7-0.1
				c0.7-0.2,1.3-0.6,1.7-1.3C105.2,39.4,105.3,38.7,105.2,38.1z"/>
			<polygon class="st1" points="73.5,38.5 75,35.5 74.3,35.5 72.7,38.5 71.9,38.5 68.4,45.1 70.7,45.1 74.3,38.5 			"/>
			<polygon class="st1" points="79.9,42.9 82.6,37.8 81.9,37.7 79.2,42.9 78.4,42.9 76,47.3 78.3,47.4 80.7,42.9 			"/>
			<polygon class="st1" points="83.1,42.9 85.8,37.8 85,37.7 82.3,42.9 81.5,42.9 79.2,47.3 81.5,47.4 83.9,42.9 			"/>
			<polygon class="st1" points="86.2,42.9 88.9,37.8 88.2,37.7 85.5,42.9 84.7,42.9 82.4,47.3 84.7,47.4 87,42.9 			"/>
			<polygon class="st1" points="89.4,42.9 92.1,37.8 91.4,37.7 88.7,42.9 87.9,42.9 85.5,47.3 87.8,47.4 90.2,42.9 			"/>
		</g>
	</g>
	<g>
		<path class="st1" d="M31.2,96.8h3.1c0.7,0,1.6,0,2.5,0.7c1.4,1,1.7,2.7,1.7,3.7c0,1.5-0.5,3-1.8,3.7c-0.9,0.5-1.8,0.5-2.8,0.5
			h-2.7V96.8z M32.8,98.3v5.7h0.7c1.2,0,1.6-0.1,2-0.2c0.6-0.2,1.3-0.8,1.3-2.6c0-0.8-0.1-2.1-1.3-2.7c-0.5-0.2-0.7-0.2-1.8-0.2
			H32.8z"/>
		<path class="st1" d="M47.6,98.3v2h4.1v1.4h-4.1v2.3h4.8v1.4H46v-8.6h6.1v1.4H47.6z"/>
		<path class="st1" d="M60.4,102.9c0.2,0.3,0.9,1.3,2.7,1.3c0.3,0,0.6,0,0.9-0.1c0.6-0.3,0.7-0.7,0.7-1c0-0.5-0.4-0.7-0.6-0.9
			c-0.2-0.1-0.2-0.1-1-0.3l-1-0.2c-0.5-0.1-0.8-0.2-1.1-0.3c-0.4-0.2-1.4-0.7-1.4-2.1c0-1.6,1.4-2.7,3.4-2.7c1.8,0,2.8,0.9,3.5,1.7
			l-1.3,1c-0.3-0.4-0.9-1.3-2.2-1.3c-0.9,0-1.6,0.4-1.6,1c0,0.7,0.8,0.9,1.6,1l0.9,0.2c1.2,0.2,2.8,0.7,2.8,2.6c0,2-1.8,2.8-3.6,2.8
			c-0.5,0-1,0-1.5-0.2c-0.6-0.2-1.6-0.6-2.2-1.6L60.4,102.9z"/>
		<path class="st1" d="M75.5,96.8v8.6h-1.6v-8.6H75.5z"/>
		<path class="st1" d="M90.9,100.7v4.7h-1.4v-0.7c-0.8,0.8-1.6,0.9-2.3,0.9c-2.7,0-4-2.1-4-4.4c0-2.7,1.8-4.6,4.1-4.6
			c1.8,0,3.1,1.1,3.6,2.5l-1.5,0.6c-0.2-0.5-0.6-1.7-2.1-1.7c-1.6,0-2.4,1.4-2.4,3.1c0,1.9,1,3,2.4,3c0.9,0,2-0.5,2.1-2h-2.1v-1.4
			H90.9z"/>
		<path class="st1" d="M103.8,96.8h1.6v8.6H104l-3.8-6l0.1,6h-1.6v-8.6h1.4l3.8,6.1L103.8,96.8z"/>
	</g>
	<g>
		<path class="st0" d="M4.6,62.2c2.6-2.3,5.9-3.5,9.8-3.5c3.9,0,7.2,1.2,9.9,3.5c2.9,2.6,4.6,6.3,4.6,10.6c0,4.2-1.7,8-4.6,10.6
			c-2.6,2.3-5.9,3.5-9.9,3.5c-3.9,0-7.2-1.2-9.8-3.5C1.6,80.8,0,77.1,0,72.8C0,68.5,1.6,64.8,4.6,62.2z M6.3,72.8c0,7,3.1,11,8.1,11
			c5.1,0,8.2-4,8.2-11c0-7.1-3.1-11-8.2-11S6.3,65.8,6.3,72.8z"/>
		<path class="st0" d="M48.9,72.8c-0.2-0.2-0.4-0.4-0.4-0.7v-1.4h8.8v1.4c0,0.9-1.3,0.7-1.3,1.8c0,0.3,0,0.6,0.2,0.9l2.3,5.9
			l2.5-5.9c0.1-0.3,0.2-0.5,0.2-0.8c0-1.4-1.6-1.1-1.6-2.1v-1.4h6.9v1.4c0,0.5-0.3,0.6-0.8,0.9c-0.9,0.5-1.3,1.4-1.8,2.5l-5,11.5
			c-1.8,4-3.8,6-6.8,6c-1.9,0-3.1-0.9-3.1-2.3c0-1.2,0.8-2,2-2c1.2,0,2.1,0.8,2.6,0.8c0.8,0,1.4-1.1,2.3-3.1l-4.5-11
			C50.6,73.8,50.3,73.5,48.9,72.8z"/>
		<path class="st0" d="M72.5,84.3c1.5,0,2.3-0.7,2.3-1.6c0-1.2-1-1.5-3.2-2.4c-3.2-1.2-5.1-2.1-5.1-5c0-2.9,2.3-5,6.3-5
			c3.2,0,5.1,1.2,5.1,2.9c0,1.4-0.9,2.2-2.3,2.2c-1.4,0-2.3-0.8-2.3-2.1c0-0.2,0-0.3,0-0.4c-0.4-0.2-0.8-0.3-1.3-0.3
			c-1.1,0-1.7,0.6-1.7,1.3c0,1.1,1.2,1.4,3.2,2.2c3.5,1.4,5.4,2.3,5.4,5.4c0,3.1-2.6,5.3-6.6,5.3c-4.4,0-6.7-1.5-6.7-4.1
			c0-1.4,0.9-2.3,2.5-2.3c1.5,0,2.3,0.8,2.3,2.3c0,0.3,0,0.6-0.1,1.1C71.2,84.1,71.8,84.3,72.5,84.3z"/>
		<path class="st0" d="M86.4,84.3c1.5,0,2.3-0.7,2.3-1.6c0-1.2-1-1.5-3.2-2.4c-3.2-1.2-5.1-2.1-5.1-5c0-2.9,2.3-5,6.3-5
			c3.2,0,5.1,1.2,5.1,2.9c0,1.4-0.9,2.2-2.3,2.2c-1.4,0-2.3-0.8-2.3-2.1c0-0.2,0-0.3,0-0.4c-0.4-0.2-0.8-0.3-1.3-0.3
			c-1.1,0-1.7,0.6-1.7,1.3c0,1.1,1.2,1.4,3.2,2.2c3.5,1.4,5.4,2.3,5.4,5.4c0,3.1-2.6,5.3-6.6,5.3c-4.4,0-6.7-1.5-6.7-4.1
			c0-1.4,0.9-2.3,2.5-2.3c1.5,0,2.3,0.8,2.3,2.3c0,0.3,0,0.6-0.1,1.1C85.1,84.1,85.8,84.3,86.4,84.3z"/>
		<path class="st0" d="M111.3,72.8c-0.2-0.2-0.4-0.4-0.4-0.7v-1.4h8.8v1.4c0,0.9-1.3,0.7-1.3,1.8c0,0.3,0,0.6,0.2,0.9l2.3,5.9
			l2.5-5.9c0.1-0.3,0.2-0.5,0.2-0.8c0-1.4-1.6-1.1-1.6-2.1v-1.4h6.9v1.4c0,0.5-0.3,0.6-0.8,0.9c-0.9,0.5-1.3,1.4-1.8,2.5l-5,11.5
			c-1.8,4-3.8,6-6.8,6c-1.9,0-3.1-0.9-3.1-2.3c0-1.2,0.8-2,2-2c1.2,0,2.1,0.8,2.6,0.8c0.8,0,1.4-1.1,2.3-3.1l-4.5-11
			C113.1,73.8,112.8,73.5,111.3,72.8z"/>
		<path class="st0" d="M42.2,86.4h7v-1.4c0-0.5-0.3-0.7-0.8-0.9c-1-0.5-1-1-1-2.1V59.2H40v1.4c0,0.5,0.4,0.6,0.9,0.9
			c1.2,0.5,1.2,0.9,1.2,2.1v8.3c-1.6-1-3.2-1.5-4.9-1.5c-4.4,0-7.4,3.2-7.4,8.5c0,5,2.8,8,7,8c1.1,0,2.1-0.2,3.1-0.5v-2.7
			c-0.3,0-0.6,0.1-0.8,0.1c-2.3,0-3.8-1.8-3.8-5.1c0-3.3,1.4-5,3.9-5c1.1,0,2,0.3,3,1.1V86.4z"/>
		<path class="st0" d="M110.8,78.2c0-0.2,0-0.4,0-0.6c0-4.6-2.9-7.3-7.7-7.3c-5.5,0-9,3.4-9,8.5c0,4.8,3.5,8.1,8.6,8.1
			c2.6,0,5.1-0.9,7-2.6c0.6-0.6,0.9-1,0.9-1.4c0-0.2-0.1-0.4-0.2-0.5l-1.3-1.4c-1.8,1.8-3.5,2.7-5.4,2.7c-2.8,0-4.5-1.9-4.5-5.5
			l0-0.6l0.1-1.2l0.2-0.8c0.4-1.9,1.5-2.9,3.1-2.9c1.6,0,2.6,0.9,2.7,2.9h-4.3v2.6H110.8z"/>
	</g>
</g>
</svg>
