<?xml version="1.0" encoding="utf-8"?>
<!-- Generator: Adobe Illustrator 20.1.0, SVG Export Plug-In . SVG Version: 6.00 Build 0)  -->
<!DOCTYPE svg PUBLIC "-//W3C//DTD SVG 1.1//EN" "http://www.w3.org/Graphics/SVG/1.1/DTD/svg11.dtd">
<svg version="1.1" id="Layer_1" xmlns="http://www.w3.org/2000/svg" xmlns:xlink="http://www.w3.org/1999/xlink" x="0px" y="0px"
	 viewBox="0 0 215.2 55.2" style="enable-background:new 0 0 215.2 55.2;" xml:space="preserve">
<style type="text/css">
	.st0{fill:#462D83;}
	.st1{fill:#A7BDC9;}
	.st2{fill:#00B3B5;}
	.st3{fill:#009D9F;}
</style>
<g>
	<path class="st0" d="M0.2,55.1v-8.2h3.6c0.4,0,0.8,0.1,1.1,0.2c0.3,0.2,0.6,0.4,0.9,0.6C6,48,6.2,48.3,6.3,48.6
		c0.1,0.3,0.2,0.7,0.2,1c0,0.3-0.1,0.7-0.2,1C6.2,51,6,51.3,5.8,51.5c-0.2,0.3-0.5,0.5-0.8,0.6c-0.3,0.2-0.7,0.2-1.1,0.2h-2v2.8H0.2
		z M1.9,51h1.9c0.3,0,0.6-0.1,0.8-0.4c0.2-0.2,0.3-0.6,0.3-1c0-0.2,0-0.4-0.1-0.6c-0.1-0.2-0.1-0.3-0.3-0.4
		c-0.1-0.1-0.2-0.2-0.4-0.3c-0.1-0.1-0.3-0.1-0.4-0.1H1.9V51z"/>
	<path class="st0" d="M7.5,55.1v-8.2h3.8c0.4,0,0.8,0.1,1.1,0.2s0.6,0.4,0.9,0.6c0.2,0.3,0.4,0.6,0.6,0.9c0.1,0.3,0.2,0.7,0.2,1
		c0,0.5-0.1,1-0.4,1.5c-0.3,0.4-0.6,0.8-1.1,0.9l2,3.1h-1.9l-1.8-2.8H9.2v2.8H7.5z M9.2,51h2.1c0.2,0,0.3,0,0.4-0.1
		c0.1-0.1,0.2-0.2,0.3-0.3c0.1-0.1,0.2-0.3,0.2-0.4c0.1-0.2,0.1-0.3,0.1-0.5c0-0.2,0-0.4-0.1-0.5c-0.1-0.2-0.1-0.3-0.3-0.4
		c-0.1-0.1-0.2-0.2-0.4-0.3c-0.1-0.1-0.3-0.1-0.4-0.1h-2V51z"/>
	<path class="st0" d="M21.4,53.7v1.4h-5.9v-8.2h5.8v1.4h-4.1v2h3.6v1.3h-3.6v2.1H21.4z"/>
	<path class="st0" d="M29.5,55.1v-5.5l-2.2,4.1h-0.9l-2.2-4.1v5.5h-1.7v-8.2h1.8l2.5,4.7l2.5-4.7h1.8v8.2H29.5z"/>
	<path class="st0" d="M32.8,55.1v-8.2h1.7v8.2H32.8z"/>
	<path class="st0" d="M39.7,53.8c0.4,0,0.7-0.1,1-0.2c0.3-0.2,0.5-0.4,0.6-0.6c0.2-0.2,0.3-0.5,0.3-0.9c0.1-0.3,0.1-0.7,0.1-1v-4.2
		h1.6v4.2c0,0.6-0.1,1.1-0.2,1.6c-0.1,0.5-0.4,0.9-0.7,1.3c-0.3,0.4-0.7,0.7-1.2,0.9c-0.5,0.2-1,0.3-1.7,0.3c-0.7,0-1.3-0.1-1.7-0.3
		c-0.5-0.2-0.9-0.5-1.2-0.9c-0.3-0.4-0.5-0.8-0.6-1.3c-0.1-0.5-0.2-1-0.2-1.5v-4.2h1.7v4.2c0,0.3,0,0.7,0.1,1
		c0.1,0.3,0.2,0.6,0.3,0.9c0.2,0.2,0.4,0.4,0.6,0.6C39,53.7,39.4,53.8,39.7,53.8z"/>
	<path class="st0" d="M51.9,55.1v-5.5l-2.2,4.1h-0.9l-2.2-4.1v5.5H45v-8.2h1.8l2.5,4.7l2.5-4.7h1.8v8.2H51.9z"/>
	<path class="st1" d="M64.8,53c0,0.3-0.1,0.7-0.2,0.9c-0.1,0.3-0.3,0.5-0.6,0.7c-0.3,0.2-0.5,0.3-0.9,0.4c-0.3,0.1-0.7,0.1-1.1,0.1
		H58v-8.2h4.6c0.3,0,0.6,0.1,0.8,0.2c0.2,0.1,0.4,0.3,0.6,0.5c0.2,0.2,0.3,0.4,0.4,0.7c0.1,0.3,0.1,0.5,0.1,0.8
		c0,0.4-0.1,0.8-0.3,1.1c-0.2,0.4-0.5,0.6-0.9,0.8c0.5,0.1,0.9,0.4,1.2,0.7C64.7,52,64.8,52.5,64.8,53z M59.6,48.2v2.1h2.2
		c0.3,0,0.5-0.1,0.7-0.3c0.2-0.2,0.3-0.4,0.3-0.8c0-0.3-0.1-0.6-0.3-0.8c-0.2-0.2-0.4-0.3-0.7-0.3H59.6z M63.2,52.7
		c0-0.1,0-0.3-0.1-0.4C63,52.1,63,52,62.9,51.9c-0.1-0.1-0.2-0.2-0.3-0.2c-0.1-0.1-0.3-0.1-0.4-0.1h-2.5v2.2h2.5
		c0.2,0,0.3,0,0.4-0.1c0.1-0.1,0.2-0.1,0.3-0.2c0.1-0.1,0.2-0.2,0.2-0.3C63.2,53,63.2,52.8,63.2,52.7z"/>
	<path class="st1" d="M65.6,55.1c0-0.3,0-0.7,0.1-0.9c0.1-0.3,0.2-0.5,0.3-0.8c0.1-0.2,0.3-0.5,0.6-0.7c0.2-0.2,0.5-0.4,0.9-0.6
		c0.3-0.2,0.6-0.3,0.9-0.4c0.3-0.1,0.5-0.2,0.6-0.4c0.2-0.1,0.3-0.2,0.4-0.3c0.1-0.1,0.1-0.2,0.1-0.4c0-0.2-0.1-0.4-0.3-0.6
		c-0.2-0.2-0.5-0.2-0.8-0.2c-0.2,0-0.4,0-0.5,0.1c-0.2,0.1-0.3,0.1-0.4,0.2c-0.1,0.1-0.3,0.2-0.4,0.3c-0.1,0.1-0.2,0.2-0.3,0.3
		l-1-1.2c0.1-0.1,0.3-0.2,0.4-0.4c0.2-0.1,0.4-0.2,0.7-0.4c0.3-0.1,0.5-0.2,0.9-0.3c0.3-0.1,0.7-0.1,1-0.1c0.4,0,0.8,0,1.1,0.1
		c0.3,0.1,0.6,0.2,0.8,0.4c0.2,0.2,0.4,0.4,0.5,0.6c0.1,0.2,0.2,0.5,0.2,0.8c0,0.3-0.1,0.5-0.2,0.7c-0.1,0.2-0.2,0.4-0.4,0.6
		c-0.2,0.2-0.3,0.3-0.5,0.4c-0.2,0.1-0.4,0.2-0.5,0.3c-0.1,0.1-0.3,0.2-0.5,0.3c-0.2,0.1-0.3,0.2-0.5,0.3c-0.2,0.1-0.3,0.2-0.4,0.4
		c-0.1,0.1-0.2,0.3-0.3,0.4h3.4v1.4H65.6z"/>
	<path class="st1" d="M79.6,53c0,0.3-0.1,0.7-0.2,0.9c-0.1,0.3-0.3,0.5-0.6,0.7c-0.3,0.2-0.5,0.3-0.9,0.4c-0.3,0.1-0.7,0.1-1.1,0.1
		h-4.1v-8.2h4.6c0.3,0,0.6,0.1,0.8,0.2c0.2,0.1,0.4,0.3,0.6,0.5c0.2,0.2,0.3,0.4,0.4,0.7c0.1,0.3,0.1,0.5,0.1,0.8
		c0,0.4-0.1,0.8-0.3,1.1c-0.2,0.4-0.5,0.6-0.9,0.8c0.5,0.1,0.9,0.4,1.2,0.7C79.4,52,79.6,52.5,79.6,53z M74.4,48.2v2.1h2.2
		c0.3,0,0.5-0.1,0.7-0.3c0.2-0.2,0.3-0.4,0.3-0.8c0-0.3-0.1-0.6-0.3-0.8c-0.2-0.2-0.4-0.3-0.7-0.3H74.4z M77.9,52.7
		c0-0.1,0-0.3-0.1-0.4c-0.1-0.1-0.1-0.3-0.2-0.4c-0.1-0.1-0.2-0.2-0.3-0.2c-0.1-0.1-0.3-0.1-0.4-0.1h-2.5v2.2h2.5
		c0.2,0,0.3,0,0.4-0.1c0.1-0.1,0.2-0.1,0.3-0.2c0.1-0.1,0.2-0.2,0.2-0.3C77.9,53,77.9,52.8,77.9,52.7z"/>
	<path class="st0" d="M83,50.9c0-0.5,0.1-1,0.3-1.5c0.2-0.5,0.4-0.9,0.8-1.3c0.3-0.4,0.8-0.7,1.3-0.9c0.5-0.2,1.1-0.4,1.7-0.4
		c0.8,0,1.4,0.2,2,0.5c0.6,0.3,1,0.8,1.2,1.3L89,49.5c-0.1-0.2-0.2-0.4-0.4-0.6s-0.3-0.3-0.5-0.4c-0.2-0.1-0.4-0.2-0.6-0.2
		c-0.2,0-0.4-0.1-0.6-0.1c-0.4,0-0.7,0.1-1,0.2c-0.3,0.2-0.5,0.4-0.7,0.6c-0.2,0.3-0.3,0.6-0.4,0.9c-0.1,0.3-0.1,0.7-0.1,1
		c0,0.4,0.1,0.7,0.2,1.1c0.1,0.3,0.3,0.6,0.5,0.9c0.2,0.3,0.5,0.5,0.8,0.6c0.3,0.2,0.6,0.2,1,0.2c0.2,0,0.4,0,0.6-0.1
		c0.2,0,0.4-0.1,0.6-0.2c0.2-0.1,0.3-0.2,0.5-0.4c0.2-0.2,0.3-0.4,0.4-0.6l1.4,0.8c-0.1,0.3-0.3,0.6-0.6,0.8
		c-0.2,0.2-0.5,0.4-0.8,0.6c-0.3,0.2-0.6,0.3-1,0.4c-0.3,0.1-0.7,0.1-1,0.1c-0.6,0-1.1-0.1-1.6-0.4c-0.5-0.2-0.9-0.6-1.3-1
		c-0.4-0.4-0.6-0.9-0.8-1.4C83.1,52,83,51.5,83,50.9z"/>
	<path class="st0" d="M94.8,55.2c-0.6,0-1.1-0.1-1.6-0.4c-0.5-0.2-0.9-0.5-1.3-0.9c-0.4-0.4-0.6-0.8-0.8-1.3c-0.2-0.5-0.3-1-0.3-1.5
		c0-0.5,0.1-1.1,0.3-1.6c0.2-0.5,0.5-0.9,0.9-1.3c0.4-0.4,0.8-0.7,1.3-0.9c0.5-0.2,1-0.3,1.6-0.3c0.6,0,1.1,0.1,1.6,0.4
		c0.5,0.2,0.9,0.6,1.3,1c0.4,0.4,0.6,0.8,0.8,1.3c0.2,0.5,0.3,1,0.3,1.5c0,0.6-0.1,1.1-0.3,1.6c-0.2,0.5-0.5,0.9-0.8,1.3
		c-0.4,0.4-0.8,0.7-1.3,0.9C96,55.1,95.4,55.2,94.8,55.2z M92.5,51c0,0.4,0.1,0.7,0.2,1c0.1,0.3,0.3,0.6,0.5,0.9
		c0.2,0.3,0.5,0.5,0.7,0.6c0.3,0.2,0.6,0.2,1,0.2c0.4,0,0.7-0.1,1-0.2c0.3-0.2,0.5-0.4,0.7-0.6c0.2-0.3,0.4-0.6,0.5-0.9
		c0.1-0.3,0.2-0.7,0.2-1c0-0.4-0.1-0.7-0.2-1c-0.1-0.3-0.3-0.6-0.5-0.9c-0.2-0.3-0.5-0.5-0.7-0.6c-0.3-0.2-0.6-0.2-1-0.2
		c-0.4,0-0.7,0.1-1,0.2c-0.3,0.2-0.5,0.4-0.7,0.6c-0.2,0.3-0.4,0.6-0.5,0.9C92.5,50.3,92.5,50.7,92.5,51z"/>
	<path class="st0" d="M101.7,49.8v5.3h-1.7v-8.2h1.3l4.4,5.4v-5.4h1.7v8.2h-1.3L101.7,49.8z"/>
	<path class="st0" d="M115.4,48.3h-2.7v6.8h-1.7v-6.8h-2.7v-1.4h7.1V48.3z"/>
	<path class="st0" d="M122.3,53.7v1.4h-5.9v-8.2h5.8v1.4H118v2h3.6v1.3H118v2.1H122.3z"/>
	<path class="st0" d="M125.2,49.8v5.3h-1.7v-8.2h1.3l4.4,5.4v-5.4h1.7v8.2h-1.3L125.2,49.8z"/>
	<path class="st0" d="M138.9,48.3h-2.7v6.8h-1.7v-6.8h-2.7v-1.4h7.1V48.3z"/>
	<path class="st1" d="M149.2,55.1v-5.5l-2.2,4.1h-0.9l-2.2-4.1v5.5h-1.7v-8.2h1.8l2.5,4.7l2.5-4.7h1.8v8.2H149.2z"/>
	<path class="st1" d="M151.6,55.1l3.4-8.2h1.3l3.3,8.2h-1.7l-0.8-2.1h-3l-0.8,2.1H151.6z M155.7,48.6l-1.2,3.3h2.4L155.7,48.6z"/>
	<path class="st1" d="M160.5,55.1v-8.2h3.8c0.4,0,0.8,0.1,1.1,0.2c0.3,0.2,0.6,0.4,0.9,0.6c0.2,0.3,0.4,0.6,0.6,0.9
		c0.1,0.3,0.2,0.7,0.2,1c0,0.5-0.1,1-0.4,1.5c-0.3,0.4-0.6,0.8-1.1,0.9l2,3.1h-1.9l-1.8-2.8h-1.6v2.8H160.5z M162.1,51h2.1
		c0.2,0,0.3,0,0.4-0.1c0.1-0.1,0.2-0.2,0.3-0.3c0.1-0.1,0.2-0.3,0.2-0.4c0.1-0.2,0.1-0.3,0.1-0.5c0-0.2,0-0.4-0.1-0.5
		c-0.1-0.2-0.1-0.3-0.3-0.4c-0.1-0.1-0.2-0.2-0.4-0.3c-0.1-0.1-0.3-0.1-0.4-0.1h-2V51z"/>
	<path class="st1" d="M168.4,55.1v-8.2h1.7v4l3.7-4h1.7l-3.3,3.7l3.5,4.6h-1.7l-2.7-3.7l-1.1,1.2v2.5H168.4z"/>
	<path class="st1" d="M182.2,53.7v1.4h-5.9v-8.2h5.8v1.4H178v2h3.6v1.3H178v2.1H182.2z"/>
	<path class="st1" d="M189.8,48.3h-2.7v6.8h-1.7v-6.8h-2.7v-1.4h7.1V48.3z"/>
	<path class="st1" d="M190.7,55.1v-8.2h1.7v8.2H190.7z"/>
	<path class="st1" d="M195.7,49.8v5.3H194v-8.2h1.3l4.4,5.4v-5.4h1.7v8.2h-1.3L195.7,49.8z"/>
	<path class="st1" d="M208.8,54.2c-0.7,0.7-1.4,1-2.3,1c-0.5,0-1.1-0.1-1.5-0.3c-0.5-0.2-0.9-0.5-1.3-0.9c-0.4-0.4-0.6-0.8-0.8-1.4
		c-0.2-0.5-0.3-1-0.3-1.6c0-0.6,0.1-1.1,0.3-1.6c0.2-0.5,0.5-0.9,0.9-1.3c0.4-0.4,0.8-0.7,1.3-0.9c0.5-0.2,1-0.3,1.6-0.3
		c0.8,0,1.4,0.2,2,0.5c0.6,0.3,1,0.8,1.2,1.3l-1.2,0.9c-0.2-0.4-0.5-0.7-0.9-0.9c-0.4-0.2-0.8-0.3-1.2-0.3c-0.4,0-0.7,0.1-1,0.2
		c-0.3,0.1-0.5,0.3-0.7,0.6c-0.2,0.3-0.4,0.5-0.5,0.9c-0.1,0.3-0.2,0.7-0.2,1.1c0,0.4,0.1,0.7,0.2,1.1c0.1,0.3,0.3,0.6,0.5,0.9
		c0.2,0.2,0.5,0.4,0.8,0.6c0.3,0.1,0.6,0.2,1,0.2c0.8,0,1.5-0.4,2.1-1.1v-0.6H207v-1.2h3.1v4.2h-1.4V54.2z"/>
	<path class="st1" d="M211.2,55.1v-1.7h1.3v1.7H211.2z"/>
	<circle class="st2" cx="125.1" cy="20.4" r="6.6"/>
	<path class="st0" d="M29.1,26.3c1.1,1,2,2,2.8,3.3c0.8,1.2,1.4,2.4,1.9,3.7c0.5,1.3,0.9,2.6,1.1,3.9c0.2,1.3,0.3,2.5,0.3,3.7H31
		h-4.2c0-0.3,0-0.7-0.1-1.3c-0.1-0.6-0.2-1.3-0.4-2c-0.2-0.7-0.5-1.5-0.8-2.3c-0.4-0.8-0.9-1.5-1.5-2.2c-0.6-0.7-1.4-1.2-2.4-1.6
		c-1-0.4-2.1-0.6-3.5-0.6h-10v10H0V0h18.2c0.1,0,0.6,0,1.2,0.1c0.7,0.1,1.5,0.2,2.4,0.5c0.9,0.3,2,0.7,3.1,1.2
		C26,2.4,27,3.2,28.1,4.2c3,3.1,4.6,7.3,4.6,12.7c0,2.1-0.3,3.9-1,5.5C31,23.9,30.2,25.3,29.1,26.3z M18.2,22.4c0.4,0,1-0.1,1.7-0.2
		c0.7-0.1,1.4-0.4,2-0.8c0.7-0.4,1.2-0.9,1.7-1.7c0.5-0.7,0.7-1.7,0.7-2.9c0-1.9-0.2-3.5-0.7-4.6c-0.5-1.1-1.1-2-1.8-2.6
		c-0.7-0.6-1.4-0.9-2.1-1.1c-0.7-0.2-1.2-0.3-1.6-0.3H8.3v14.1H18.2z"/>
	<path class="st0" d="M46.6,8.5v8.3h18.2v8.5H46.6v7h18.9v8.5H38.3V0.1h27.2v8.4H46.6z"/>
	<path class="st0" d="M79,40.8h-8.3V0h19.6c1.3,0,2.8,0.3,4.3,0.8c1.5,0.5,3,1.4,4.3,2.5c1.3,1.1,2.4,2.6,3.3,4.5
		c0.9,1.9,1.3,4.1,1.3,6.8c0,5.2-1.5,9.3-4.5,12.2c-1,1-1.9,1.7-3,2.2c-1,0.5-2,0.9-2.9,1.2c-0.9,0.3-1.7,0.4-2.3,0.4
		c-0.6,0-1.1,0.1-1.3,0.1H79V40.8z M79,22.2h10.7h-0.1c0.4,0,0.9-0.1,1.5-0.2c0.6-0.1,1.2-0.5,1.8-1c0.6-0.5,1.1-1.3,1.5-2.3
		c0.4-1,0.6-2.4,0.6-4.1c0-1.3-0.2-2.3-0.5-3.1c-0.3-0.8-0.7-1.4-1.2-1.8c-0.5-0.4-1-0.7-1.6-0.9c-0.6-0.2-1.1-0.3-1.5-0.3H79V22.2z
		"/>
	<path class="st1" d="M142.5,31.1c-0.9,1.4-1.9,2.8-3.1,3.9c-1.2,1.2-2.6,2.2-4,3.1c-1.5,0.9-3,1.5-4.7,2c-1.7,0.5-3.4,0.7-5.2,0.7
		c-2.8,0-5.4-0.5-7.8-1.6c-2.4-1.1-4.6-2.5-6.4-4.4c-1.8-1.9-3.3-4-4.3-6.5c-1.1-2.5-1.6-5.1-1.6-7.9c0-2.8,0.5-5.5,1.6-7.9
		c1.1-2.5,2.5-4.6,4.3-6.5c1.8-1.9,3.9-3.3,6.4-4.4c2.4-1.1,5.1-1.6,7.8-1.6c1.8,0,3.5,0.2,5.2,0.7c1.7,0.5,3.3,1.1,4.7,2
		c1.5,0.9,2.8,1.9,4,3.1c1.2,1.2,2.3,2.5,3.1,4l-6.2,6.2c-0.4-1.1-1-2.1-1.7-3.1c-0.7-0.9-1.6-1.7-2.5-2.4c-1-0.7-2-1.2-3.1-1.6
		c-1.1-0.4-2.3-0.6-3.6-0.6c-1.6,0-3.1,0.3-4.6,0.9c-1.4,0.6-2.7,1.5-3.8,2.6c-1.1,1.1-1.9,2.4-2.5,3.8c-0.6,1.4-0.9,3-0.9,4.7
		s0.3,3.2,0.9,4.7c0.6,1.4,1.5,2.7,2.5,3.8c1.1,1.1,2.3,2,3.8,2.6c1.4,0.6,3,0.9,4.6,0.9c1.2,0,2.4-0.2,3.6-0.6
		c1.1-0.4,2.2-0.9,3.1-1.6c1-0.7,1.8-1.5,2.5-2.4c0.7-0.9,1.3-1.9,1.7-3L142.5,31.1z"/>
	<path class="st1" d="M171.8,40.8l-2.1-6h-16.3l-2.1,6h-9.1l14.4-40.8h9.9L181,40.8H171.8z M156.4,26.4h10.3l-5.2-14.6L156.4,26.4z"
		/>
	<path class="st1" d="M190.8,40.8h-8.3V0H202c1.3,0,2.8,0.3,4.3,0.8c1.5,0.5,3,1.4,4.3,2.5c1.3,1.1,2.4,2.6,3.3,4.5
		c0.9,1.9,1.3,4.1,1.3,6.8c0,5.2-1.5,9.3-4.5,12.2c-1,1-1.9,1.7-3,2.2c-1,0.5-2,0.9-2.9,1.2c-0.9,0.3-1.7,0.4-2.3,0.4
		c-0.6,0-1.1,0.1-1.3,0.1h-10.5V40.8z M190.8,22.2h10.7h-0.1c0.4,0,0.9-0.1,1.5-0.2c0.6-0.1,1.2-0.5,1.8-1c0.6-0.5,1.1-1.3,1.5-2.3
		c0.4-1,0.6-2.4,0.6-4.1c0-1.3-0.2-2.3-0.5-3.1c-0.3-0.8-0.7-1.4-1.2-1.8c-0.5-0.4-1-0.7-1.6-0.9c-0.6-0.2-1.1-0.3-1.5-0.3h-11.2
		V22.2z"/>
	<path class="st3" d="M125.1,13.8v13.3c3.7,0,6.6-3,6.6-6.6C131.7,16.8,128.8,13.8,125.1,13.8z"/>
</g>
</svg>
