<?xml version="1.0" encoding="utf-8"?>
<!-- Generator: Adobe Illustrator 20.0.0, SVG Export Plug-In . SVG Version: 6.00 Build 0)  -->
<svg version="1.1" id="Layer_1" xmlns="http://www.w3.org/2000/svg" xmlns:xlink="http://www.w3.org/1999/xlink" x="0px" y="0px"
	 viewBox="0 0 542.735 660.721" enable-background="new 0 0 542.735 660.721" xml:space="preserve">
<g>
	<path fill="#C3002F" d="M264.581,631.446v-56.123c-8.682,6.133-20.56,8.383-29.638,7.363c-4.37-0.654-8.509-1.642-12.307-3.025
		c-2.137-0.779-4.165-1.684-6.066-2.725c-10.048-6.162-15.483-22.134-15.838-24.748c-3.14-22.969,9.976-38.452,31.677-35.142
		c6.806,1.021,11.832,4.223,14.849,8.909c10.239,15.947-5.522,24.918-17.818,26.232c1.717,2.429,4.129,5.321,8.414,4.95
		c5.862-0.526,11.106-5.43,14.354-8.909c7.084-7.642,11.384-19.582,11.384-34.152c-31.028-14.4-60.277-15.7-81.173,9.404
		c-7.687-7.316-11.477-21.995-4.455-33.162c-9.126-5.337-14.076-11.725-15.839-24.748c7.703-5.29,14.447-7.425,28.213-7.425
		c-1.222-15.467,3.99-23.789,17.818-27.223c4.81,28.677,27.284,47.86,56.425,52.191c0-25.54,0.108-95.67,0-95.747
		c-3.573-2.66-16.597-3.836-21.284-5.445c-24.578-8.444-50.764-23.773-53.455-53.95c-1.206-13.472,3.356-23.819,7.919-31.677
		c13.178-22.768,33.456-33.301,65.335-37.617c-0.634-15.529-7.548-16.581-18.809-21.283c-6.883-2.877,7.564-15.653,9.899-16.829
		c7.362-3.758,9.791,0.928,10.394-9.404h192.355c-3.775,18.864-3.56,35.816-2.896,51.973c0.443,10.761,1.135,21.589,1.021,33.028
		c-0.107,10.803-0.949,22.184-3.527,34.653c-14,67.711-27.578,105.393-62.326,164.798c-29.094,49.738-63.961,95.775-117.892,141.511
		C269.025,635.212,266.781,633.324,264.581,631.446L264.581,631.446z M271.315,637.126l-6.735-5.68
		C266.781,633.324,269.025,635.212,271.315,637.126L271.315,637.126z"/>
	<path fill="#C3002F" d="M464.543,55.251c3.758,6.713,3.805,13.194,2.475,22.273c-3.588,24.299-16.938,36.936-39.596,42.071
		c-6.605,1.484-18.732,0.789-6.436,3.96c13.395,3.449,22.707,8.476,29.203,18.808c1.84,2.938,4.1,6.542,4.949,10.394
		c0.666,3.047,0.541,5.645,0.99,8.909c-6.373-3.882-15.406-10.842-26.729-7.919c-5.383,1.376-10.053,5.971-15.838,6.93
		c-15.916,2.614-20.494-11.307-29.203-16.334c-5.383-3.109-16.904-3.882-25.736-2.969c-10.504,1.067-21.037,3.464-33.162,3.464
		c4.562,9.837,4.02,31.383-4.951,36.627c-4.934,2.861-15.514,0.371-20.293-1.485c-9.977,9.481-10.734,12.931-29.697,14.354
		c-0.835,0.046-3.897,0.99-5.444,0.495c-8.244-2.66-10.255-22.629-13.364-23.758c-3.326-1.207-6.388,1.145-9.899,0.495
		c-9.404-1.763-23.263-9.822-23.263-21.778c-1.098,0-2.367,0.154-3.465,0c-6.017-0.928-13.843,0.758-19.303,1.485
		c22.103,4.578,46.139,23.216,56.425,40.091c-8.848-1.314-18.19,0.866-26.233,1.485c-11.708,0.866-24.67-1.331-34.647-4.95
		c-9.605-3.496-13.302-10.688-20.293-16.334c-13.519-10.951-33.688,0.109-44.052,6.93c-4.748,3.093-16.472,12.946-21.283,13.859
		c-3.48,0.634-7.517-0.371-9.899-0.99c-0.835-6.141-1.346-13.039-1.98-18.809c7.332-4.469,14.37-8.29,22.768-11.878
		c5.414-2.336,11.647-5.089,16.334-8.415c3.712-2.645,7.285-6.79,11.384-8.909c7.811-4.084,17.664-5.197,25.243-9.404
		c4.749-2.661,4.733-9.017,2.97-14.353c-1.655-4.95-6.48-9.528-11.879-10.394c-7.409-1.207-55.218,15.854-47.516-3.465
		c0.912-2.32,4.811-4.408,6.435-6.435c7.331-9.219,12.667-17.231,23.758-22.768c24.717-12.374,49.155,7.579,54.94,28.213
		c2.367,8.476-0.974,18.329-2.969,24.253c8.909,0,19.612-0.294,28.212,0.99c-1.346-7.471-5.955-9.002-9.404-13.858
		c-1.315-1.841-0.696-4.254-1.98-6.435c-1.902-3.201-8.383-0.232-6.434-6.435c0.913-2.938,3.682-5.259,5.445-7.424
		c3.232-4.052,7.347-8.785,13.364-9.899c12.111-2.258,29.558-0.975,38.112,3.959c2.738,1.578,4.563,4.517,6.929,6.435
		c4.904-2.289,8.91-6.682,14.849-7.424c14.121-1.794,20.85,4.408,34.152,1.485c2.861,10.982,9.728,24.532,5.443,36.132
		c4.719-2.166,10.316-6.976,15.84-7.424c7.471-0.619,15.605,4.099,22.273,4.949c8.801,1.099,19.643-2.103,26.727-4.454
		c29.311-9.791,26.201-32.729,45.537-49.001C442.565,63.665,456.779,62.614,464.543,55.251L464.543,55.251z"/>
	<path fill="#FFFFFF" d="M263.096,118.605c0.773,5.723,1.686,9.08,2.475,14.849c-4.146-1.81-7.796-6.465-12.869-6.929
		c-7.625-0.711-16.349,6.852-19.303,11.384c-2.335,3.542-5.104,10.193-3.465,15.839c1.114,3.867,4.347,5.027,7.919,6.435
		c20.989,8.26,16.365-5.97,29.203-12.374c0-0.17,0-0.325,0-0.496c3.666-0.82,5.197,1.841,6.435,3.465
		c15.699-8.074,14.756,11.709,8.414,20.788c-3.389,4.811-2.103-3.062-1.484-5.444c-8.601-3.511,0.494-9.389-5.941-12.869
		c-15.683-8.492-14.894,21.855-9.898,31.182c0.727,1.361,1.639,3.867,2.97,4.454c1.918,0.836,7.315-0.495,9.405-0.99
		c13.781-3.356,20.152-14.106,13.857-29.202c-1.191-2.831-1.871-5.089-2.969-7.919c0.928,0.046,3.465,0.495,3.465,0.495
		c1.809,1.114,3.248,1.407,4.453,2.97c6.234,8.074,0.588,19.597,14.355,18.808c-0.172,0.016,1.824,0.604,2.475,0.495
		c2.211-0.387,4.685-4.578,5.443-6.435c5.895-14.647-2.428-27.207-14.848-29.697c-4.176-0.851-10.102,0.433-13.363-1.485
		c-4.209-2.475-1.842-6.11,0.988-7.919l0.496-0.99c4.701-1.856,19.426-2.119,10.393,2.97c3.203,0.248,6.775,0.974,8.91-0.495
		c1.424-1.005,0.99-3.464,0.99-3.464c-6.713-10.812-23.928-0.464-30.193,4.454c1.701,3.666,2.305,10.317-0.494,13.364
		c-1.732,1.872-3.543,2.011-6.93,2.475c0.434-5.676,3.883-7.362,5.939-12.869C265.4,132.897,271.448,125.148,263.096,118.605
		L263.096,118.605z"/>
	<path fill="#FFFFFF" d="M461.078,65.15c-24.221,2.722-38.73,30.053-47.516,49.001c4.361-3,10.115-5.816,13.363-9.899
		c3.975-5.027,6.311-11.013,10.395-15.839c5.537-6.589,12.529-10.904,19.303-16.333C457.336,71.492,462.115,65.026,461.078,65.15
		L461.078,65.15z"/>
	<path fill="#FFFFFF" d="M460.584,71.585c-5.461,4.423-11.57,10.301-15.344,16.334c-4.146,6.604-6.342,12.312-11.879,17.323
		c-3.217,2.893-6.914,5.77-10.395,8.415c20.262-1.608,32.666-15.251,37.121-32.668C460.707,78.514,463.043,72.652,460.584,71.585
		L460.584,71.585z"/>
	<path fill="#FFFFFF" d="M157.669,81.978c-16.844,0.078-27.114,13.411-32.667,25.243c13.055,0,29.852-8.321,42.566-3.96
		c5.537,1.887,8.894,7.78,10.889,13.364c2.258,6.357,1.748,17.138-1.979,21.778c-5.012,6.202-23.402,8.6-31.182,12.869
		c-14.292,7.811-26.48,17.803-43.061,24.253c0.634,3.294,1.129,5.692,1.98,8.909c0.355-0.186,1.485-0.495,1.485-0.495
		c13.332-5.599,24.748-15.126,37.122-21.283c6.636-3.326,15.56-3.047,22.768-5.94c5.785-2.336,10.085-7.146,15.839-9.404
		c10.286-4.052,22.087-4.455,35.637-4.455c0.263-0.649,0.542-1.81,0.99-2.475l0.99-0.495c0.371-0.603,0.727-1.067,0.99-1.484
		c0.588-0.975,0.372-1.516,0.99-2.475c-12.126,0-23.897,0.634-33.657,2.475c-1.593,0.294-2.026,0.216-3.465,0.495
		c4.594-8.878,9.713-22.799,5.444-35.637C185.356,91.29,173.585,81.901,157.669,81.978L157.669,81.978z"/>
	<path fill="#FFFFFF" d="M229.933,95.837c-6.666,0.836-9.188,3.944-6.929,9.899c5.553,14.678,17.695,19.489,34.152,12.869
		c-3.496-1.624-4.423-2.691-6.929-4.949c6.713,0,10.734,1.083,16.333,1.485c-0.371-1.067-1.098-2.521-1.485-3.465
		c-1.16-2.753-2.119-4.47-3.96-6.435C254.867,98.544,244.596,93.981,229.933,95.837L229.933,95.837z"/>
	<path fill="#FFFFFF" d="M282.398,99.302c-4.748,0.959-5.754,9.59-6.93,14.354c7.951-6.249,6.033-3.511,4.951,5.939
		c-0.232,1.964-1.361,7.501,0,7.424c1.143-0.078,3.447-2.413,4.453-2.97c7.998-4.485,17.557-9.898,28.213-4.949
		c-1.006-6.729-3.295-12.931-1.98-18.809C301.764,101.545,290.828,97.554,282.398,99.302L282.398,99.302z"/>
	<path fill="#FFFFFF" d="M398.713,123.06c-6.355,0.959-13.996,5.012-20.787,5.94c-11.74,1.593-32.574-3.419-38.607-0.495
		c-2.305,1.098-3.805,3.186-5.443,4.949c-1.285,1.361-2.537,3.249-3.961,4.455c23.264-3.464,47.006-0.294,64.346-8.909
		C395.527,128.366,404.096,122.225,398.713,123.06L398.713,123.06z"/>
	<path fill="#FFFFFF" d="M408.613,129c-4.502,0.51-6.496,2.908-8.91,5.444c-1.453,1.516-2.428,1.902-4.453,2.97
		c7.238,4.068,19.906,3.991,31.182,4.455c-8.785,2.784-22.119,3.604-33.162,3.465c18.869,15.715,30.547-3.728,53.949,4.949
		c-1.639-3.526-3.016-5.831-5.443-8.414C436.732,136.517,419.565,127.731,408.613,129L408.613,129z"/>
	<path fill="#FFFFFF" d="M185.882,156.223c4.114,8.739,15.127,10.626,23.263,15.343c2.15,1.238,5.599,5.491,7.919,5.94
		c0,0-4.207,0.031-6.435-0.495c-11.291-2.676-20.278-8.569-32.667-10.394c1.593,2.568,2.599,4.748,4.455,6.929
		c2.846,3.356,8.136,7.115,12.374,8.909c8.631,3.635,20.85,5.398,33.657,4.455c3.372-0.263,7.981-1.036,11.384-1.485
		C225.046,171.35,209.903,161.513,185.882,156.223L185.882,156.223z"/>
	<path fill-rule="evenodd" clip-rule="evenodd" d="M222.636,579.661c-2.057-0.782-4.083-1.693-6.066-2.725
		C218.47,577.977,220.499,578.882,222.636,579.661L222.636,579.661z"/>
	<path fill="#C3002F" d="M283.389,117.616C293.645,121.235,279.537,127.995,283.389,117.616L283.389,117.616z"/>
	<path fill="#C3002F" d="M272.005,133.454c1.964,0.109,0.772,1.81,0.989,1.981c-1.84,1.283-4.949,4.268-6.929,4.949
		c-3.402,1.129-19.025,6.806-14.848,2.97c0.603-0.572,1.84-2.088,2.475-2.475C257.496,138.451,266.808,133.145,272.005,133.454
		L272.005,133.454z"/>
	<path fill="#C3002F" d="M275.469,133.949C279.244,139.131,271.51,140.492,275.469,133.949L275.469,133.949z"/>
	<path fill="#C3002F" d="M285.863,134.939C297.016,139.069,279.197,145.658,285.863,134.939L285.863,134.939z"/>
	<path fill="#C3002F" d="M271.015,137.414C279.088,141.729,267.69,146.354,271.015,137.414L271.015,137.414z"/>
	<path fill="#C3002F" d="M289.824,140.384C297.481,144.482,286.76,148.628,289.824,140.384L289.824,140.384z"/>
	<path fill="#C3002F" d="M283.883,141.374c2.893-0.542,3.527,2.165,1.98,3.464C285.106,144.421,280.342,142.008,283.883,141.374
		L283.883,141.374z"/>
	<path fill="#C3002F" d="M303.682,142.858c8.709-1.346,12.064,5.29,12.375,12.869C313.551,152.572,301.949,143.122,303.682,142.858
		L303.682,142.858z"/>
	<path fill="#C3002F" d="M302.197,147.313c5.892-0.402,8.135,8.709,8.908,14.354c-3.959-2.46-7.393-6.187-8.908-10.889
		C301.981,150.113,301.191,147.375,302.197,147.313L302.197,147.313z"/>
	<path fill="#FFFFFF" d="M201.721,441.813c5.893,21.515,23.124,39.163,43.061,46.525c6.094,2.243,13.24,2.815,19.798,4.455
		c0.108,3.094-0.279,7.13,0,10.889c-6.187-1.887-12.606-3.913-18.809-5.444c-27.965-6.914-46.65-2.567-62.859,12.869
		c-0.356-1.686-1.361-4.564-0.99-7.425c0.758-6.062,6.033-12.296,10.889-14.353c1.593-0.681,2.784-0.511,4.455-0.99
		c-3.944-1.206-9.59-3.155-12.869-4.949c-5.012-2.753-7.765-5.321-10.889-9.899c-8.399-12.312,24.237-4.284,28.708-2.475
		C197.034,461.055,196.323,452.191,201.721,441.813L201.721,441.813z M262.601,226.011c10.89-1.794,20.37,4.563,22.769,11.384
		c0.633,1.825,0.309,3.109,0.494,5.445c0.726-3.326,2.939-8.043,4.949-10.394c3.342-3.944,13.24-8.754,21.283-5.94
		c3.311,1.16,4.486,4.3,5.939,7.424c-11.986,3.511-19.303,12.668-19.303,28.213c-5.893-0.882-11.662-2.861-17.324-3.465
		c-0.912-0.108-5.924,0.959-7.918,0c-0.434-0.216,0.277-1.593-0.496-1.979c0,0,0.572-2.32,0.496-2.97
		c-1.27-10.456-9.854-17.617-19.799-19.798C255.424,230.187,258.038,226.754,262.601,226.011L262.601,226.011z M359.117,251.254
		c4.516,11.477-0.494,21.237-10.395,25.738c11.523-0.835,22.969,5.228,26.729,15.344c-7.641,5.444-20.402,5.599-30.193,1.98
		c2.182,3.078,3.805,5.011,4.951,9.404c2.057,7.95-0.078,14.616-2.971,19.798c-5.135-13.828-11.307-23.882-22.273-31.678
		c-27.33-19.427-88.643-18.947-101.466,12.869c-3.217,7.935-3.016,21.051,0,28.707c14.462,36.751,60.647,30.889,100.972,41.577
		c19.969,5.29,36.07,16.179,45.041,32.667c7.531,13.858,10.285,30.95,4.453,49.99c-8.584,27.981-38.344,43.742-69.787,48.012
		v-12.869c22.859-3.852,40.633-21.346,45.041-43.557c7.021-35.56-24.477-58.372-49.596-65.564
		c-8.568-2.46-18.926-3.899-28.113-4.719c-16.365-1.47-33.889-7.301-46.031-14.85c-13.225-8.213-29.311-24.902-24.253-48.011
		c2.707-12.42,9.342-21.144,16.334-29.202c11.059-12.807,30.533-21.701,55.931-19.798c13.039,0.974,22.33,0.097,38.33,5.597
		C333.334,280.085,351.816,265.299,359.117,251.254L359.117,251.254z M273.984,286.892c10.039,0,16.24,0.943,23.758,3.464v72.264
		c-9.109-1.237-16.256-2.537-23.758-4.95V286.892L273.984,286.892z M273.984,386.873c7.27,1.067,14.353,2.289,21.283,3.465
		c0,31.77-1.824,65.659,0.494,96.517c1.254,16.812-1.592,34.725,3.465,47.021c3.156,7.703,10.35,13.441,18.314,16.334
		c-15.668,5.042-28.121-4.161-32.668-15.344c-0.975,1.701-1.949,3.372-2.969,5.444c-4.439,8.848-10.348,18.329-17.819,24.253
		c-6.667,5.259-16.365,12.358-29.203,10.89c-15.127-1.748-35.699-24.764-22.768-42.566c6.11-8.43,31.321-13.303,30.192,4.454
		c-0.557,8.538-14.214,8.925-22.273,6.93c0.572,3.852,1.005,7.362,2.475,10.394c1.237,2.599,4.068,5.939,6.434,7.425
		c2.861,1.778,6.883,3.666,11.879,2.97c15.452-2.181,26.047-19.381,29.697-33.657c0.557-2.212,2.072-19.566,1.485-13.364
		c0.681-8.661,1.485-22.582,1.485-35.637v-5.939C273.49,446.995,273.984,416.973,273.984,386.873L273.984,386.873z"/>
	<path fill="#FFFFFF" d="M263.096,286.892c-24.89-3.052-42.35,29.512-29.203,50.485c6.141,9.807,18.159,15.375,30.688,18.809
		c0-26.245,0-45.46,0-69.029C264.41,287.157,264.794,287.1,263.096,286.892L263.096,286.892z"/>
	<path fill="none" stroke="#C3002F" stroke-width="6.4" stroke-miterlimit="3.8637" d="M448.664,4.362l89.664,105.652
		c0,0-34.91,32.835-47.891,53.399c-5.699,9.672-8.508,17.665-12.797,29.419c-18.92,51.836-0.244,86.985-11.418,141.022
		c-14.299,69.147-28.418,108.387-64.068,169.334c-31.506,53.865-69.828,103.77-130.801,153.406
		c-60.976-49.639-91.426-85.352-130.802-153.407c-35.361-61.116-49.77-100.186-64.068-169.333
		c-11.173-54.036,7.502-89.186-11.418-141.022c-4.289-11.753-7.098-19.747-12.796-29.419c-12.98-20.564-47.864-53.416-47.864-53.416
		L94.042,4.362c58.404,43.561,104.456,58.842,177.311,58.842C344.211,63.203,390.26,47.922,448.664,4.362L448.664,4.362z
		 M517.828,109.042c-2.809,2.8-6.019,6.053-9.398,9.571c-10.33,10.759-23.404,25.28-30.797,36.99
		c-3.225,5.476-5.758,10.67-7.967,15.965c-2.029,4.868-3.883,10.004-6.117,16.122c-10.486,28.733-10.439,52.866-9.51,75.446
		c0.443,10.761,1.135,21.589,1.021,33.028c-0.107,10.803-0.949,22.184-3.527,34.653c-14,67.711-27.578,105.393-62.326,164.798
		c-29.094,49.738-63.961,95.775-117.892,141.511c-53.284-44.504-81.419-78.607-117.781-141.45
		c-34.516-59.655-48.372-97.203-62.362-164.858c-2.579-12.469-3.42-23.85-3.527-34.653c-0.113-11.439,0.578-22.267,1.022-33.028
		c0.93-22.58,0.977-46.713-9.51-75.446c-2.232-6.117-4.086-11.254-6.117-16.122c-2.209-5.295-4.741-10.489-7.966-15.964
		c-7.389-11.706-20.455-26.229-30.778-36.993c-3.378-3.522-6.589-6.777-9.396-9.58l71.595-84.375
		c55.894,39.219,103.575,53.548,174.859,53.548c71.285,0,118.967-14.329,174.859-53.548L517.828,109.042L517.828,109.042z"/>
	<path fill="#C3002F" d="M82.875,199.163h376.957c-1.158,4.089-2.113,8.086-2.897,12H85.772
		C84.988,207.248,84.033,203.251,82.875,199.163L82.875,199.163z"/>
</g>
</svg>
