<?xml version="1.0" encoding="utf-8"?>
<!-- Generator: Adobe Illustrator 20.0.0, SVG Export Plug-In . SVG Version: 6.00 Build 0)  -->
<svg version="1.1" id="Layer_1" xmlns="http://www.w3.org/2000/svg" xmlns:xlink="http://www.w3.org/1999/xlink" x="0px" y="0px"
	 viewBox="0 0 407.7 121.8" style="enable-background:new 0 0 407.7 121.8;" xml:space="preserve">
<style type="text/css">
	.st0{fill:#004C45;}
	.st1{fill:#82BC00;}
</style>
<g>
	<path class="st0" d="M12.6,68.5c-5.3,0-9.9-1.4-12.6-3.1l2.7-6.3c1.7,1.3,4.8,2.5,8.5,2.5c4.2,0,7.1-2.6,7.1-6.1
		c0-3.7-2-5.5-6.7-7.2C3,45.2,1.2,40.6,1.2,36.2c0-6.9,5.8-12.6,14.5-12.6c5.1,0,8.9,1.2,11.9,3L25,32.4c-1.3-1.1-4.1-2.4-7.3-2.4
		c-4.2,0-6.5,2.7-6.5,5.7c0,3.5,2.8,5.3,6.8,6.8c8.9,3.4,10.9,7.7,10.9,12.8C28.9,62.4,22.6,68.5,12.6,68.5"/>
	<path class="st0" d="M101.9,44c-9.7,1.1-15.7,3.1-15.7,11c0,5.6,3.5,8.1,9.6,8.1c2.4,0,4.7-0.5,6.2-1.2V44z M95.1,68.6
		c-12.5,0-18.6-4.8-18.6-13.2c0-11.4,11.6-14.7,25.5-16V37c0-5.6-3.7-7.2-9-7.2c-4.4,0-8.6,1.4-11.4,2.7l-2.4-5.6
		c3-1.4,8.5-3.3,15.7-3.3c9.4,0,16.9,3.8,16.9,15v26.9C108,67.3,102.2,68.6,95.1,68.6"/>
	<path class="st0" d="M139.9,30.8c-1.5-0.5-3.2-0.7-4.8-0.7c-1.9,0-3.6,0.3-4.9,1.1v36.6h-10.3v-41c3.9-1.8,8.6-3.1,16.5-3.1h1.9
		l3.6,0.1L139.9,30.8z"/>
	<path class="st1" d="M251.1,29.8c-7.3,0-8.7,8-8.7,16.2c0,8.2,1.6,15.8,8.7,15.8c7.4,0,8.7-7.6,8.7-15.8
		C259.8,37.8,258.5,29.8,251.1,29.8 M251.1,68.6c-12.8,0-19-9.6-19-22.4c0-13,6.2-22.5,19-22.5c12.9,0,19,9.6,19,22.5
		C270.1,58.9,263.9,68.6,251.1,68.6"/>
	<path class="st1" d="M293.7,68.6c-12.2,0-17.7-5.1-17.7-14.6V24.4h10.3v30.2c0,4.1,2.4,7.3,7.7,7.3c3,0,5.1-0.5,6.9-1.5v-36h10.3
		v40.8C307.4,67.1,301.7,68.6,293.7,68.6"/>
	<path class="st1" d="M344.5,67.8V37c0-3.5-1.7-7.2-8.2-7.2c-3.4,0-5.2,0.5-7.1,1.2v36.8h-10.3v-41c4.3-1.9,10.2-3.1,17.9-3.1
		c13.6,0,18.1,6.3,18.1,13.3v30.9H344.5z"/>
	<polygon class="st0" points="167,44.3 182.7,24.4 172.2,24.4 157.7,44 157.6,44 157.6,0 157.5,0 147.3,11.2 147.3,67.8 157.6,67.8 
		157.6,45.6 157.7,45.6 173,67.8 184.6,67.8 	"/>
	<path class="st1" d="M210.7,23.9c-3.5,0-6.7,0.7-10.2,2.3V0l-10.3,11.3v56.4h10.3v-36c2.3-1.3,4.5-1.8,7.3-1.8
		c6.2,0,8.1,3.5,8.1,7.3v30.5h10.3V37C226.2,30.4,222.2,23.9,210.7,23.9"/>
	<path class="st1" d="M386.9,61.3c-1.2,0.7-2.9,1-5.3,1c-8,0-11.3-6.4-11.3-16.2c0-9.2,3-16.5,12-16.5c1.6,0,3.1,0.2,4.6,0.6V61.3z
		 M386.9,11.4v13.4c-2-0.6-4.3-0.8-6.8-0.8c-11.9,0-20,8.5-20,22.6c0,13.8,7.8,22,21.3,22c7.1,0,12.3-1.2,15.9-3.1V0L386.9,11.4z"/>
	<path class="st0" d="M49.4,62.4c-1.9,0-3.4-0.2-4.6-0.7V30.4c1.4-0.6,3-0.9,5.3-0.9c8.4,0,11.3,6,11.3,16.4
		C61.5,56.4,57.5,62.4,49.4,62.4 M50.4,23.6c-7.3,0-12.4,1.4-15.8,3.1v62l10.2-11.3v-10c1.5,0.6,4.2,0.9,6.9,0.9
		c11.9,0,20.1-8.6,20.1-22.8C71.7,31.7,63.7,23.6,50.4,23.6"/>
</g>
<g>
	<path class="st0" d="M90.3,96.2c0-0.3,0-0.5,0-0.6c0-1.7-1.1-2.7-4.4-2.7c-3.6,0-4.9,1.3-5.2,3.3l-0.1,1.2c0,0.2,0,0.4,0,0.4
		c0,1.2,0.8,1.8,1.7,2.1l6.1,2.5c2,0.8,3.2,2.1,3.2,4.1c0,0.2,0,0.5,0,0.7l-0.3,2.8c-0.3,2.8-2.2,5.1-8,5.1c-5.1,0-6.9-1.9-6.9-4.4
		c0-0.2,0-0.5,0-0.8l0.2-1.8c0-0.4,0.2-0.5,0.6-0.5h1.4c0.4,0,0.5,0.2,0.5,0.5l-0.2,1.5c0,0.3,0,0.5,0,0.7c0,1.7,1.2,2.8,4.6,2.8
		c3.7,0,5.2-1.3,5.4-3.3l0.3-2.2c0-0.2,0-0.3,0-0.5c0-1.4-1.2-2-2.5-2.5l-5.5-2.2c-1.8-0.7-3-2.1-3-3.8c0-0.1,0-0.4,0-0.7l0.2-1.8
		c0.3-2.8,1.9-5.1,7.7-5.1c5.1,0,6.7,1.9,6.7,4.3c0,0.2,0,0.5,0,0.7l-0.2,1.6c0,0.3-0.2,0.5-0.6,0.5h-1.4c-0.3,0-0.5-0.1-0.4-0.5
		L90.3,96.2z"/>
	<path class="st0" d="M104.1,112.9c-1,0.8-2.9,2-5.9,2c-2.9,0-4.4-1.5-4.4-3.6c0-0.2,0-0.4,0-0.6L95.4,98c0-0.3,0.2-0.5,0.6-0.5h1.4
		c0.3,0,0.5,0.1,0.5,0.5l-1.5,12.1c0,0.2,0,0.3,0,0.5c0,1.3,0.8,2.1,2.8,2.1c2.5,0,4.4-1.3,5.3-1.9l1.5-12.8c0-0.3,0.2-0.5,0.6-0.5
		h1.4c0.3,0,0.4,0.2,0.4,0.5l-2,16.1c0,0.4-0.2,0.5-0.6,0.5h-1.3c-0.3,0-0.5-0.1-0.5-0.5L104.1,112.9z"/>
	<path class="st0" d="M124.1,101c0,0.2,0,0.5,0,0.7l-0.1,0.6c-0.1,0.3-0.2,0.5-0.6,0.5h-1.3c-0.3,0-0.4-0.2-0.4-0.5l0-0.5
		c0-0.1,0-0.4,0-0.5c0-1.3-0.8-2.1-3.6-2.1c-3.1,0-4.1,1-4.3,2.6l-1,8.2c0,0.2,0,0.5,0,0.7c0,1.4,0.9,2.2,3.6,2.2
		c3.1,0,4.1-1,4.3-2.7l0.1-0.8c0-0.4,0.2-0.5,0.6-0.5h1.3c0.4,0,0.5,0.2,0.5,0.5l-0.1,0.9c-0.3,2.6-1.9,4.5-6.8,4.5
		c-4.2,0-5.8-1.5-5.8-3.8c0-0.2,0-0.4,0-0.7l1.1-8.7c0.3-2.7,1.9-4.5,6.8-4.5C122.6,97.2,124.1,98.8,124.1,101z"/>
	<path class="st0" d="M140,101c0,0.2,0,0.5,0,0.7l-0.1,0.6c-0.1,0.3-0.2,0.5-0.6,0.5H138c-0.3,0-0.5-0.2-0.4-0.5l0-0.5
		c0-0.1,0-0.4,0-0.5c0-1.3-0.8-2.1-3.6-2.1c-3.1,0-4.1,1-4.3,2.6l-1,8.2c0,0.2,0,0.5,0,0.7c0,1.4,0.9,2.2,3.6,2.2
		c3.1,0,4.1-1,4.3-2.7l0.1-0.8c0-0.4,0.2-0.5,0.6-0.5h1.3c0.4,0,0.5,0.2,0.4,0.5l-0.1,0.9c-0.3,2.6-1.9,4.5-6.8,4.5
		c-4.2,0-5.8-1.5-5.8-3.8c0-0.2,0-0.4,0-0.7l1.1-8.7c0.3-2.7,1.9-4.5,6.8-4.5C138.5,97.2,140,98.8,140,101z"/>
	<path class="st0" d="M155.4,106c0,0.3-0.2,0.5-0.5,0.5H145l-0.5,3.7c0,0.3,0,0.5,0,0.7c0,1.4,0.9,2.2,3.7,2.2
		c3.1,0,4.2-1.1,4.4-2.6l0.1-0.7c0-0.3,0.2-0.5,0.6-0.5h1.2c0.3,0,0.5,0.2,0.4,0.5l-0.1,0.7c-0.4,2.7-1.8,4.5-6.7,4.5
		c-4.3,0-5.9-1.5-5.9-3.8c0-0.2,0-0.4,0-0.7l1.1-8.7c0.3-2.7,2-4.5,6.9-4.5c4.2,0,5.8,1.5,5.8,3.8c0,0.2,0,0.5,0,0.7L155.4,106z
		 M145.3,104.6h8l0.4-2.7c0-0.2,0-0.4,0-0.6c0-1.3-0.9-2.2-3.7-2.2c-3.1,0-4.1,1.1-4.3,2.6L145.3,104.6z"/>
	<path class="st0" d="M169.4,101.5c0-0.3,0-0.4,0-0.6c0-1-1.1-1.8-3.6-1.8c-2.6,0-3.8,0.7-4,2.1l-0.1,0.8c0,0.3,0,0.4,0,0.5
		c0,0.8,0.4,1.4,1.5,1.7l5.2,1.7c1.7,0.6,2.6,1.6,2.6,2.8c0,0.3,0,0.5-0.1,0.7l-0.2,1.9c-0.2,2.1-2.2,3.7-6.7,3.7
		c-4.1,0-5.9-1.6-5.9-3.4c0-0.1,0-0.3,0-0.6l0.1-0.9c0-0.3,0.2-0.5,0.5-0.5h1.3c0.2,0,0.4,0.1,0.3,0.5l-0.1,0.6c0,0.2,0,0.6,0,0.7
		c0,1.1,1.4,1.8,3.8,1.8c2.7,0,4.2-0.8,4.4-2.1l0.1-1.2c0-0.2,0-0.3,0-0.6c0-0.8-0.8-1.2-1.8-1.6l-5-1.7c-1.4-0.5-2.4-1.6-2.4-3
		c0-0.1,0-0.2,0-0.6l0.1-1.3c0.2-2.1,1.9-3.8,6.4-3.8c4,0,5.6,1.7,5.6,3.5c0,0.2,0,0.2,0,0.6l-0.1,0.8c0,0.3-0.2,0.5-0.6,0.5h-1.3
		c-0.3,0-0.4-0.1-0.4-0.5L169.4,101.5z"/>
	<path class="st0" d="M184.8,101.5c0-0.3,0-0.4,0-0.6c0-1-1.1-1.8-3.6-1.8c-2.6,0-3.8,0.7-4,2.1l-0.1,0.8c0,0.3,0,0.4,0,0.5
		c0,0.8,0.4,1.4,1.5,1.7l5.2,1.7c1.7,0.6,2.6,1.6,2.6,2.8c0,0.3,0,0.5-0.1,0.7l-0.2,1.9c-0.2,2.1-2.2,3.7-6.7,3.7
		c-4.1,0-5.9-1.6-5.9-3.4c0-0.1,0-0.3,0-0.6l0.1-0.9c0-0.3,0.2-0.5,0.5-0.5h1.3c0.2,0,0.4,0.1,0.3,0.5l-0.1,0.6c0,0.2,0,0.6,0,0.7
		c0,1.1,1.4,1.8,3.8,1.8c2.7,0,4.2-0.8,4.4-2.1l0.1-1.2c0-0.2,0-0.3,0-0.6c0-0.8-0.8-1.2-1.8-1.6l-5-1.7c-1.4-0.5-2.4-1.6-2.4-3
		c0-0.1,0-0.2,0-0.6l0.1-1.3c0.2-2.1,1.9-3.8,6.4-3.8c4,0,5.6,1.7,5.6,3.5c0,0.2,0,0.2,0,0.6l-0.1,0.8c0,0.3-0.2,0.5-0.6,0.5h-1.3
		c-0.3,0-0.5-0.1-0.4-0.5L184.8,101.5z"/>
	<path class="st0" d="M198.9,114.1c0,0.3-0.2,0.5-0.6,0.5h-1.4c-0.3,0-0.4-0.1-0.4-0.5l2-16.1c0-0.3,0.2-0.5,0.5-0.5h1.4
		c0.4,0,0.5,0.2,0.5,0.5L198.9,114.1z M201.3,94.1c0,0.3-0.2,0.5-0.6,0.5h-1.4c-0.3,0-0.4-0.2-0.4-0.5l0.4-3.2
		c0-0.3,0.2-0.5,0.6-0.5h1.4c0.3,0,0.4,0.1,0.4,0.5L201.3,94.1z"/>
	<path class="st0" d="M214.5,101.5c0-0.3,0-0.4,0-0.6c0-1-1.1-1.8-3.6-1.8c-2.6,0-3.8,0.7-4,2.1l-0.1,0.8c0,0.3,0,0.4,0,0.5
		c0,0.8,0.4,1.4,1.5,1.7l5.2,1.7c1.7,0.6,2.6,1.6,2.6,2.8c0,0.3,0,0.5-0.1,0.7l-0.2,1.9c-0.2,2.1-2.2,3.7-6.7,3.7
		c-4.1,0-5.9-1.6-5.9-3.4c0-0.1,0-0.3,0-0.6l0.1-0.9c0-0.3,0.2-0.5,0.5-0.5h1.3c0.2,0,0.4,0.1,0.3,0.5l-0.1,0.6c0,0.2,0,0.6,0,0.7
		c0,1.1,1.4,1.8,3.8,1.8c2.7,0,4.2-0.8,4.4-2.1l0.1-1.2c0-0.2,0-0.3,0-0.6c0-0.8-0.8-1.2-1.8-1.6l-5-1.7c-1.4-0.5-2.4-1.6-2.4-3
		c0-0.1,0-0.2,0-0.6l0.1-1.3c0.2-2.1,1.9-3.8,6.4-3.8c4,0,5.6,1.7,5.6,3.5c0,0.2,0,0.2,0,0.6l-0.1,0.8c0,0.3-0.2,0.5-0.6,0.5h-1.3
		c-0.3,0-0.5-0.1-0.4-0.5L214.5,101.5z"/>
	<path class="st0" d="M226.5,101.7c0.3-2.7,2.2-4.5,7-4.5c4.2,0,6.1,1.5,6.1,3.8c0,0.2,0,0.4,0,0.6l-1.1,8.7c-0.3,2.7-2.1,4.5-7,4.5
		c-4.3,0-6.1-1.6-6.1-3.8c0-0.2,0-0.4,0-0.6L226.5,101.7z M237.2,101.9v-0.4c0-1.4-1.1-2.3-3.8-2.3c-3.1,0-4.3,1-4.5,2.7l-1,8.4
		c0,0.1,0,0.3,0,0.4c0,1.4,1,2.3,3.8,2.3c3.1,0,4.2-1,4.4-2.7L237.2,101.9z"/>
	<path class="st0" d="M252.9,112.9c-1,0.8-2.9,2-5.9,2c-2.9,0-4.4-1.5-4.4-3.6c0-0.2,0-0.4,0-0.6l1.6-12.6c0-0.3,0.2-0.5,0.6-0.5
		h1.4c0.3,0,0.5,0.1,0.5,0.5l-1.5,12.1c0,0.2,0,0.3,0,0.5c0,1.3,0.8,2.1,2.8,2.1c2.5,0,4.4-1.3,5.3-1.9l1.5-12.8
		c0-0.3,0.2-0.5,0.6-0.5h1.4c0.3,0,0.4,0.2,0.4,0.5l-2,16.1c0,0.4-0.2,0.5-0.6,0.5h-1.3c-0.3,0-0.5-0.1-0.5-0.5L252.9,112.9z"/>
	<path class="st0" d="M269.8,97.8l-0.1,1.1c0,0.4-0.2,0.5-0.6,0.5c-2.5,0.1-5,1.6-5.9,2.3l-1.5,12.4c0,0.3-0.2,0.5-0.6,0.5h-1.4
		c-0.3,0-0.5-0.1-0.4-0.5l2-16.1c0-0.3,0.2-0.5,0.5-0.5h1.3c0.3,0,0.5,0.2,0.5,0.5l-0.1,1.7c1.1-0.9,3.3-2.5,6-2.5
		C269.7,97.3,269.9,97.4,269.8,97.8z"/>
	<path class="st0" d="M282.5,98l-0.1,1.3c1.1-0.8,3.2-2.1,6.1-2.1c2.9,0,4.4,1.5,4.4,3.7c0,0.2,0,0.5,0,0.7l-1.1,8.8
		c-0.3,2.6-1.8,4.4-5.3,4.4c-2.8,0-4.8-1.2-5.7-2l-1,8.4c0,0.4-0.2,0.5-0.6,0.5h-1.4c-0.3,0-0.5-0.1-0.5-0.5l2.8-23.2
		c0-0.3,0.2-0.5,0.6-0.5h1.3C282.4,97.5,282.6,97.6,282.5,98z M290.4,102.1c0-0.2,0.1-0.4,0.1-0.6c0-1.2-0.8-2.1-2.8-2.1
		c-2.5,0-4.6,1.4-5.4,2l-1.2,9.5c0.7,0.6,2.4,1.9,5,1.9c2.3,0,3.2-1.2,3.4-2.6L290.4,102.1z"/>
	<path class="st0" d="M297.4,114.1c0,0.3-0.2,0.5-0.6,0.5h-1.4c-0.3,0-0.5-0.2-0.4-0.5l2.8-23.2c0-0.3,0.2-0.5,0.6-0.5h1.4
		c0.3,0,0.4,0.2,0.4,0.5L297.4,114.1z"/>
	<path class="st0" d="M312,112.8c-1.1,0.8-3.2,2.1-6.1,2.1c-2.9,0-4.4-1.5-4.4-3.7c0-0.2,0-0.5,0.1-0.7l1.1-8.8
		c0.3-2.6,1.9-4.4,5.3-4.4c2.9,0,4.8,1.3,5.7,2.1l0.2-1.3c0.1-0.3,0.2-0.5,0.6-0.5h1.3c0.3,0,0.5,0.1,0.4,0.5l-2,16.1
		c0,0.3-0.2,0.5-0.6,0.5h-1.3c-0.3,0-0.4-0.1-0.4-0.5L312,112.8z M304,110.1c0,0.2,0,0.3,0,0.5c0,1.2,0.8,2.1,2.8,2.1
		c2.5,0,4.6-1.4,5.4-1.9l1.2-9.5c-0.7-0.6-2.4-2-5-2c-2.2,0-3.2,1.2-3.4,2.6L304,110.1z"/>
	<path class="st0" d="M322.6,109.8c0,0.2,0,0.4,0,0.6c0,1.3,0.9,2.2,3.7,2.2h0.6c0.4,0,0.5,0.2,0.5,0.5l-0.1,1
		c0,0.4-0.2,0.5-0.6,0.5h-0.9c-4.2,0-5.6-1.4-5.6-3.6c0-0.2,0-0.6,0-0.8l1.3-10.6h-2.1c-0.4,0-0.5-0.2-0.4-0.5l0.1-0.8
		c0-0.3,0.2-0.5,0.6-0.5l2.1-0.1h0l0.4-3.7c0-0.3,0.2-0.5,0.6-0.5h1.4c0.4,0,0.5,0.2,0.4,0.5l-0.5,3.7h3.9c0.4,0,0.5,0.2,0.4,0.5
		l-0.1,1c0,0.3-0.2,0.5-0.6,0.5h-3.9L322.6,109.8z"/>
	<path class="st0" d="M333.3,97.6l0.3-2.8c0.3-2.7,2.1-4.5,7-4.5h0.3c0.3,0,0.5,0.1,0.4,0.5l-0.1,1c0,0.4-0.3,0.5-0.6,0.5h-0.2
		c-3.1,0-4.2,1-4.4,2.7l-0.3,2.6h3.8c0.3,0,0.5,0.1,0.5,0.5l-0.1,1c0,0.3-0.2,0.5-0.6,0.5h-3.8l-2.7,21.7c0,0.4-0.2,0.5-0.6,0.5
		h-1.4c-0.3,0-0.5-0.1-0.4-0.5l2.7-21.7h-2.2c-0.3,0-0.5-0.2-0.5-0.5l0.1-0.8c0-0.3,0.2-0.5,0.6-0.5l1.9-0.1H333.3z"/>
	<path class="st0" d="M342.3,101.7c0.3-2.7,2.2-4.5,7-4.5c4.2,0,6.1,1.5,6.1,3.8c0,0.2,0,0.4,0,0.6l-1.1,8.7c-0.3,2.7-2.1,4.5-7,4.5
		c-4.3,0-6.1-1.6-6.1-3.8c0-0.2,0-0.4,0-0.6L342.3,101.7z M353,101.9v-0.4c0-1.4-1.1-2.3-3.8-2.3c-3.1,0-4.3,1-4.5,2.7l-1,8.4
		c0,0.1,0,0.3,0,0.4c0,1.4,1,2.3,3.8,2.3c3.1,0,4.2-1,4.4-2.7L353,101.9z"/>
	<path class="st0" d="M368.9,97.8l-0.1,1.1c0,0.4-0.2,0.5-0.6,0.5c-2.5,0.1-5,1.6-5.9,2.3l-1.5,12.4c0,0.3-0.2,0.5-0.6,0.5h-1.4
		c-0.3,0-0.5-0.1-0.4-0.5l2-16.1c0-0.3,0.2-0.5,0.5-0.5h1.3c0.3,0,0.5,0.2,0.4,0.5l-0.1,1.7c1.1-0.9,3.3-2.5,6-2.5
		C368.8,97.3,368.9,97.4,368.9,97.8z"/>
	<path class="st0" d="M374.1,97.5c0.3,0,0.5,0.2,0.5,0.5l-0.1,1.3c1-0.8,2.9-2.1,5.9-2.1c2.3,0,3.8,0.9,4.2,2.4
		c1-0.7,2.9-2.4,6.3-2.4c2.8,0,4.4,1.5,4.4,3.6c0,0.2,0,0.4,0,0.7l-1.6,12.6c0,0.3-0.2,0.5-0.6,0.5h-1.4c-0.3,0-0.5-0.1-0.5-0.5
		l1.5-12c0-0.2,0-0.5,0-0.6c0-1.3-0.8-2.2-2.8-2.2c-2.6,0-4.6,1.4-5.3,2c0,0.2,0,0.4,0,0.6l-1.5,12.1c0,0.3-0.2,0.5-0.6,0.5h-1.4
		c-0.3,0-0.5-0.1-0.4-0.5l1.5-11.9c0-0.3,0.1-0.5,0.1-0.6c0-1.3-0.8-2.2-2.8-2.2c-2.5,0-4.4,1.3-5.3,1.9l-1.5,12.8
		c0,0.3-0.2,0.5-0.6,0.5h-1.5c-0.3,0-0.4-0.1-0.4-0.5l2-16.1c0-0.3,0.2-0.5,0.5-0.5H374.1z"/>
	<path class="st0" d="M400.5,114.1c0,0.4-0.2,0.5-0.6,0.5h-1.4c-0.3,0-0.5-0.1-0.4-0.5l0.3-2.7c0-0.3,0.2-0.5,0.6-0.5h1.5
		c0.3,0,0.4,0.2,0.4,0.5L400.5,114.1z"/>
	<path class="st0" d="M401,91.6v0.8h-1.6v5.2h-1v-5.2h-1.6v-0.8H401z M407.7,97.6h-1v-4.7h0l-1.7,4.7h-0.8l-1.6-4.7h0v4.7h-1v-6h1.5
		l1.5,4.5h0l1.5-4.5h1.5V97.6z"/>
</g>
</svg>
