<?xml version="1.0" encoding="utf-8"?>
<!-- Generator: Adobe Illustrator 20.1.0, SVG Export Plug-In . SVG Version: 6.00 Build 0)  -->
<!DOCTYPE svg PUBLIC "-//W3C//DTD SVG 1.1//EN" "http://www.w3.org/Graphics/SVG/1.1/DTD/svg11.dtd">
<svg version="1.1" id="Layer_1" xmlns="http://www.w3.org/2000/svg" xmlns:xlink="http://www.w3.org/1999/xlink" x="0px" y="0px"
	 viewBox="0 0 390.5 263.4" style="enable-background:new 0 0 390.5 263.4;" xml:space="preserve">
<style type="text/css">
	.st0{fill:#353434;}
	.st1{fill:#FFFFFF;}
	.st2{opacity:7.000000e-02;}
	.st3{fill:#F2644E;}
	.st4{fill:#DB5245;}
	.st5{fill:#DDDCDB;}
	.st6{fill:#D14842;}
	.st7{fill:#D84B48;}
	.st8{fill:#3CB664;}
	.st9{opacity:0.4;}
	.st10{opacity:0.5;fill:#D14842;}
</style>
<g>
	<g>
		<path class="st0" d="M389.4,217.8c-2.1-2.5-5.2-2.1-9.1,0.8c-2.6,2-5.4,3.9-8.5,6.1c-0.1-1.4-0.2-2-0.2-2.6c0.4-8.3,1-16.7,1.2-25
			c0-2.1-0.7-5.1-2.1-6.2c-1.3-1-4.4-0.7-6.3,0.1c-1.6,0.7-2.5,2.8-3.2,3.7c-2.8-1.3-5.5-3.2-8.5-3.7c-12.6-2.2-23.8,7.6-23.6,21.1
			c0.1,5.1-2.3,7.3-6,9.1c-4.2,2.1-6.4,0.6-6.1-4c0.3-4.4,0.8-8.9,1.1-13.3c0.5-7.5-3.8-13-11-12.8c-3.2,0.1-6.6,1.7-9.4,3.4
			c-3.4,2-6.2,4.9-9.3,7.5c0.6-1.9,0.5-4.6,0.2-7.4c-0.2-2-1.4-3-3.5-3.2c-4.7-0.3-7.8,2.2-8,6.9c-0.2,5.3-0.2,10.6-0.3,15.8
			c0,0.9-0.1,2.1-0.6,2.6c-2.3,1.8-4.6,3.6-7.2,4.8c-3.3,1.5-6.4-0.1-7.2-3.6c-0.6-2.5-0.6-5.1-0.4-7.7c0.3-3.7,1.1-7.4,1.5-11.1
			c0.4-4.1-1.3-6.6-4.3-7.1c-4.2-0.6-7.6,1.3-8.1,5.2c-0.6,5.4-0.5,10.9-0.8,16.3c-0.1,1.2,0,2.9-0.7,3.6c-1.6,1.6-3.5,2.9-5.5,3.9
			c-4.1,2.2-6.4,0.7-6.1-4c0.3-4.4,0.8-8.9,1.1-13.3c0.6-7.5-3.8-13-11-12.8c-3.2,0.1-6.6,1.7-9.4,3.4c-3.4,2-6.2,4.9-9.3,7.5
			c0.6-1.9,0.5-4.6,0.2-7.4c-0.2-2-1.4-3-3.5-3.2c-4.7-0.4-7.8,2.2-8,6.9c-0.2,5.2-0.2,10.4-0.3,15.5c0,0.9-0.2,2.2-0.8,2.8
			c-2,1.7-4,3.3-6.3,4.5c-4.3,2.3-6.6,0.8-6.3-4c0.3-4.2,0.8-8.4,1.1-12.7c0.3-4.6-0.5-8.8-4.6-11.5c-4.3-2.7-8.9-2.8-13.2-0.1
			c-2.8,1.8-5.3,4.3-7.8,6.6c-1.1,1-2,2.4-3.2,3.9c-0.2-3.3-0.4-6-0.7-8.8c-0.2-2.1-1.5-2.9-3.6-3.1c-4.6-0.3-7.7,2.3-7.9,7
			c-0.2,5.2-0.2,10.4-0.3,15.5c0,1-0.2,2.3-0.8,2.8c-2.2,1.7-4.5,3.3-7,4.6c-4,2-7,0.2-7.4-4.2c-0.2-1.8-0.2-3.7-0.1-5.6
			c0.2-4.4,0.5-8.9,0.6-13.3c0.1-4.3-2.3-6.4-6.3-6.2c-3.1,0.2-5,2.3-5.4,6.4c-0.5,5.5-0.8,10.9-1.3,16.4c-0.4,4.7-3,6.9-7.8,6.9
			c-4.4,0-7.6-2.4-7.7-6.8c-0.1-4.8,0.5-9.7,0.8-14.5c0.3-3.6-1-6.1-3.8-6.9c-3.1-0.9-6,0.3-6.9,4c-1.1,4.6-2.2,9.6-1.6,14.3
			c0.5,4-0.7,5.8-3.7,7.8c-6.9,4.5-11.6,2.7-13.3-5.3c-0.2-0.7-0.2-1.5-0.3-2.2c-0.4-7.3-0.2-7.4,6.9-8.8c3.6-0.7,7-2,8.6-5.8
			c1.3-3.2,0.2-5-3.2-5.3c-2.1-0.2-4.3,0-6.7,0c0.4-1.4,0.8-2.5,1.1-3.6c1.3-5.9,3.3-11.8,2-18c-0.5-2.4-1.1-4.8-3.7-5.6
			c-2.7-0.8-5.1,0.6-6.4,2.8c-2.3,4-4.3,8.2-6,12.4c-1.3,3.2-1.8,6.7-2.7,10c-1.1,0.1-1.9,0.1-2.7,0.3c-2.5,0.5-4.6,1.4-5.2,4.2
			c-0.5,2.8,0.9,4.8,3.1,6.3c0.6,0.4,1.2,0.9,1.9,1.1c1.7,0.4,1.9,1.5,1.8,3c-0.1,3.9-0.2,7.9,0,11.8c0.5,9.4,8.4,16.8,17.8,16.3
			c5.9-0.3,11.1-2.6,15.5-6.8c3.6,4.6,8.5,6.1,14,6.2c5.7,0.1,10-2.8,13.6-6.9c2.7,4,6,7.4,10.8,7c4.2-0.3,8.4-2,12.8-3.1
			c0.9,2.1,3.3,3,6.2,2.2c2.9-0.8,3.8-3.2,4.2-5.9c0.1-0.9,0.3-1.8,0.3-2.8c0.7-8.2,5.5-14.1,11.2-19.2c1.1-1,3.6-1.7,4.6-1.1
			c1.1,0.6,1.8,2.9,1.8,4.5c-0.1,4.3-0.9,8.6-1,13c-0.3,9.1,6.5,14.8,15.4,12.7c3.6-0.8,6.9-2.5,10.5-3.9c0.9,2.6,3.2,3.5,6.1,2.9
			c3.1-0.7,4.1-3.1,4.5-6c0.1-0.9,0.3-1.8,0.3-2.8c0.7-8.3,5.6-14.2,11.5-19.4c1-0.9,3.4-1.5,4.4-0.9c1.1,0.6,1.8,2.7,1.7,4.2
			c-0.1,4-0.7,8-1,12c-0.8,10.4,6.1,16.4,16.2,13.6c4.1-1.1,7.8-3.3,11.9-5.1c6.7,6.9,13.4,7.4,23.7,1.2c1.2,3.1,3.6,3.9,6.5,3.1
			c3.1-0.8,4-3.3,4.3-6.2c0.1-0.8,0.2-1.6,0.3-2.5c0.6-8.2,5.4-14.1,11.2-19.3c1.1-1,3.5-1.7,4.6-1.2c1.1,0.6,1.8,2.9,1.8,4.4
			c-0.1,4.3-0.9,8.6-1,13c-0.3,9.3,6.6,15.1,15.6,12.7c4.3-1.1,8.3-3.4,12.7-5.3c8.1,5.9,15.4,6.1,24.3,0.3c0.3-0.2,0.8-0.1,1,0.3
			c0.7,1.8-0.1,2.8-1.8,4c-3.9,2.7-7.9,5.4-11.2,8.7c-5.9,6.1-5.2,14.8,0.9,19.7c8.2,6.5,19.4,2.4,22.2-8.4
			c1.2-4.6,1.3-9.6,1.7-14.4c0.1-1.8,0.9-2.6,2.4-3.3c4.5-2.3,9-4.6,13.1-7.5C390.8,224,391.4,220.1,389.4,217.8z M353.6,218.3
			c-2.8,2-5.8,2.7-9,1.1c-3.1-1.6-4.1-4.7-3.7-7.9c0.4-2.6,1.3-5.4,2.8-7.6c2-2.9,5-3.3,8.2-1.8c3.8,1.8,4.9,1.8,8.7-0.3
			C360.1,208.4,359,214.3,353.6,218.3z M359.4,249.3c-0.2,0.7-1.1,2-2,1.8c-1.2-0.2-1.5-1.7-1.5-2.6c0-3,3.5-7.8,4.9-6.6
			C361.3,242.5,360.4,246.8,359.4,249.3z"/>
		<path class="st0" d="M169.2,142.1c-0.8,0.6-1.7,1.3-2.8,2c-2.1,1.3-4.8,2.7-8,4c-3.3,1.3-7.1,2.4-11.4,3.3
			c-4.3,0.9-9.1,1.4-14,1.6c-5.1,0.2-10.4,0.1-16-0.4c-5.5-0.4-11.3-1.3-17.2-2.2c-5.9-1-11.9-2-17.8-3c-11.9-2.1-24.5-4.6-37-2.2
			c-3.1,0.6-5.9,1.4-8.7,2.5c-2.8,1.1-5.5,2.3-8.1,4.1c-2.5,1.7-4.9,4-6.5,6.8c-0.5,0.8-0.9,1.6-1.2,2.4c-7.4,2-14.2,6.3-17.6,12.2
			c-4.3,7.4-4.1,19.9,3.6,25.4c4.4,3.1,9.5,4.3,14.7,5.3c4.9,1,10,1.7,14.8,3.2c5.7,1.8,7.4,9.1,2.9,13.1c-7.9,7.2-23.1,4-27.3-5.8
			c-1.1-2.5-2.4-4.3-5.5-3.7c-3.6,0.6-5.6,2.6-5.8,5.8c-0.5,5.5,2,9.6,6.3,12.7c4.3,3.1,9.4,4.2,14.5,4.8c7.8,0.8,15.4,0,22.5-3.9
			c12.3-6.8,12.5-25.7,3.7-32.1c-4.6-3.3-9.9-4.5-15.3-5.4c-5.3-0.9-10.6-1.7-15.7-3.2c-4.9-1.4-6.4-6.4-3.8-10.8
			c0.8-1.4,1.9-2.8,3.2-3.7c1.4-1,2.8-1.9,4.3-2.6c0.3,1.2,0.6,2.3,1,3.3c0.5,1.2,1,2.3,1.7,3.4c0.4,0.7,0.8,1.2,1.1,1.6
			c0.4,0.5,0.8,0.9,1.1,1.4c0,0,11.8,13.1,21.9,0.6l0,0c4.9-5.8,4-14.7-3-19.2c-3.4-2.2-7.6-3.4-11.9-3.7c0.4-0.4,0.8-0.7,1.3-1
			c3.5-2.5,8.4-4.4,13.6-5.5c5-1,10.6-1.1,16.3-0.7c5.7,0.5,11.6,1.5,17.6,2.5c6,1,12.1,1.9,18,2.9c6,0.9,11.9,1.7,17.7,2.1
			c5.8,0.4,11.5,0.6,16.9,0.2c5.5-0.4,10.5-1.2,15.1-2.2c4.6-1.1,8.8-2.4,12.4-4c3.6-1.5,6.6-3.3,9-4.9c2.3-1.7,4-3.2,5.1-4.3
			c0.4-0.4,0.7-0.7,0.9-1C173.5,143.3,171.3,142.7,169.2,142.1z M36,171c1,0.2,2,0.7,2.8,1.5c2.5,1.9,0.1,4.2,0.1,4.2
			c-3,3.4-7.4-1.1-7.4-1.1c-1.1-0.9-2.1-2.6-2.7-4.5c-0.1-0.4,0.2-0.9,0.6-0.9C31.6,170.2,33.8,170.5,36,171z"/>
		<path class="st0" d="M257.3,187.1c4.5,0.1,7.8-3.1,7.9-7.7c0.1-3.8-2.2-6.3-5.9-6.4c-4.3-0.1-8.5,3.7-8.5,7.7
			C250.7,184.3,253.5,187,257.3,187.1z"/>
	</g>
	<g>
		<path class="st1" d="M195.2,7.2c-44.5,0-80.6,31-80.6,69.3c0,38.3,36.1,69.3,80.6,69.3s80.6-31,80.6-69.3
			C275.8,38.2,239.7,7.2,195.2,7.2z M228.2,86.6c-8.4,5.4-20.1,8.7-33,8.7c-12.9,0-24.6-3.3-33-8.7c-0.7-1.9-1.1-3.8-1.1-5.8
			c0-12.8,15.3-23.1,34.2-23.1c18.9,0,34.2,10.3,34.2,23.1C229.4,82.8,228.9,84.7,228.2,86.6z"/>
		<g class="st2">
			<path class="st0" d="M195.2,139.4c-43.2,0-78.5-29.3-80.5-66.1c-0.1,1.1-0.1,2.1-0.1,3.2c0,38.3,36.1,69.3,80.6,69.3
				s80.6-31,80.6-69.3c0-1.1,0-2.2-0.1-3.2C273.7,110.1,238.4,139.4,195.2,139.4z"/>
		</g>
		<path class="st3" d="M217.3,143c1-6.3,1.6-12.7,1.6-19.4c0-11.7-1.7-22.9-4.9-33.4c-5.8,1.7-12.1,2.7-18.9,2.7
			c-6.7,0-13.1-1-18.9-2.7c-3.1,10.4-4.9,21.7-4.9,33.4c0,6.6,0.6,13.3,1.6,19.6c7.1,2.1,14.4,2.6,22.1,2.6
			C202.9,145.8,210.3,144.8,217.3,143z"/>
		<path class="st4" d="M161.8,85.6L161.8,85.6c-0.1-0.3-0.2-0.7-0.3-1c0-0.1-0.1-0.2-0.1-0.3c-0.1-0.3-0.1-0.6-0.2-0.8
			c0-0.2-0.1-0.4-0.1-0.6c0-0.2-0.1-0.4-0.1-0.6c0-0.4-0.1-0.9-0.1-1.3c0-5.1,2.5-9.8,6.7-13.7c0,0,0,0,0,0
			c1.4-13.8-6.2-20.5-6.2-20.5L151.2,50l-2,15.8l9.9,19.8H161.8z"/>
		<path class="st4" d="M228.6,85.6L228.6,85.6c0.1-0.3,0.2-0.7,0.3-1c0-0.1,0.1-0.2,0.1-0.3c0.1-0.3,0.1-0.6,0.2-0.8
			c0-0.2,0.1-0.4,0.1-0.6c0-0.2,0.1-0.4,0.1-0.6c0-0.4,0.1-0.9,0.1-1.3c0-5.1-2.5-9.8-6.7-13.7c0,0,0,0,0,0
			c-1.4-13.8,6.2-20.5,6.2-20.5l10.3,3.5l2,15.8l-9.9,19.8H228.6z"/>
		<path class="st5" d="M243.9,66.4C243.9,66.4,243.9,66.4,243.9,66.4c0-0.2,0-0.4-0.1-0.5c0-0.2,0-0.4-0.1-0.6
			c0-0.4-0.1-0.8-0.2-1.3c0-0.5-0.2-1-0.3-1.6c-0.2-0.6-0.3-1.2-0.5-1.9c-0.3-0.6-0.6-1.3-0.8-2c-0.3-0.7-0.7-1.4-1.1-2
			c-0.4-0.7-0.8-1.4-1.3-2c-0.5-0.6-1-1.2-1.4-1.8c-0.5-0.6-1-1.1-1.5-1.6c-0.5-0.5-1-1-1.5-1.4c-0.5-0.4-1-0.8-1.4-1.2
			c-0.4-0.4-0.9-0.6-1.2-0.9c-0.4-0.3-0.7-0.5-0.9-0.7c-0.5-0.4-0.8-0.6-0.8-0.6c-0.5-0.4-1.2-0.3-1.7,0.2c-0.5,0.5-0.4,1.3,0.1,1.8
			c0,0,0.3,0.2,0.8,0.7c0.2,0.2,0.5,0.5,0.9,0.8c0.3,0.3,0.8,0.6,1.1,1c0.4,0.4,0.7,0.8,1.1,1.2c0.4,0.4,0.8,0.9,1.2,1.4
			c0.4,0.5,0.8,1,1.2,1.6c0.4,0.6,0.7,1.1,1.1,1.7c0.4,0.6,0.6,1.2,0.9,1.8c0.3,0.6,0.6,1.2,0.7,1.8c0.2,0.6,0.4,1.1,0.5,1.7
			c0.1,0.5,0.2,1.1,0.2,1.5c0.1,0.5,0.2,0.9,0.1,1.3c0,0.4,0,0.7,0,1c0,0.6,0,0.9,0,0.9l0,0c0,6.7-4.3,13.2-12.1,18.2
			c-8.4,5.4-19.6,8.3-31.7,8.3c-12,0-23.2-2.9-31.5-8.2c-0.1,0-0.1-0.1-0.2-0.1c-7.8-5-12.1-11.4-12.1-18.2c0,0,0,0,0,0
			c0,0,0-0.3,0-0.9c0-0.3,0-0.6,0-1c0-0.4,0-0.8,0.1-1.3c0.1-0.5,0.2-1,0.2-1.5c0.2-0.5,0.3-1.1,0.5-1.7c0.1-0.6,0.4-1.2,0.7-1.8
			c0.3-0.6,0.5-1.2,0.9-1.8c0.4-0.6,0.7-1.1,1.1-1.7c0.4-0.5,0.8-1.1,1.2-1.6c0.4-0.5,0.8-1,1.2-1.4c0.4-0.4,0.8-0.8,1.1-1.2
			c0.3-0.4,0.8-0.7,1.1-1c0.3-0.3,0.6-0.5,0.9-0.8c0.5-0.4,0.8-0.7,0.8-0.7c0.5-0.4,0.6-1.1,0.2-1.7c-0.4-0.6-1.2-0.7-1.7-0.3
			c0,0-0.3,0.2-0.8,0.6c-0.3,0.2-0.6,0.4-0.9,0.7c-0.4,0.3-0.8,0.5-1.2,0.9c-0.4,0.4-0.9,0.8-1.4,1.2c-0.5,0.4-1,0.9-1.5,1.4
			c-0.5,0.5-1,1-1.5,1.6c-0.5,0.6-0.9,1.2-1.4,1.8c-0.5,0.6-0.9,1.3-1.3,2c-0.4,0.7-0.8,1.3-1.1,2c-0.3,0.7-0.6,1.4-0.8,2
			c-0.2,0.7-0.4,1.3-0.5,1.9c-0.2,0.6-0.3,1.1-0.3,1.6c-0.1,0.5-0.1,0.9-0.2,1.3c0,0.2,0,0.4-0.1,0.6c0,0.2,0,0.3-0.1,0.5
			c0,0,0,0.1,0,0.1c0,0.1,0,0.2,0,0.2c0,0.2,0,0.3,0,0.5c0.3,8.1,5.3,15.7,14.1,21.5c0.1,0,0.1,0.1,0.2,0.1
			c9.2,5.9,21.4,9.1,34.3,9.1c13,0,25.2-3.2,34.4-9.1c9-5.8,14-13.4,14.3-21.7C243.9,66.8,243.9,66.6,243.9,66.4z"/>
		<path class="st3" d="M243.9,68c26.1,0.8,29.2,20.7,29.6,25.1c1.5-5.4,2.4-10.9,2.4-16.7c0-8.2-1.3-16.7-6.5-27.2
			c-0.3-0.5-15.1-13.6-40.1-2.9C229.2,46.2,240.7,51.7,243.9,68z"/>
		<path class="st3" d="M146.6,68c-26.1,0.8-29.2,20.7-29.6,25.1c-1.5-5.4-2.4-10.9-2.4-16.7c0-8.2,1.3-16.7,6.5-27.2
			c0.3-0.5,15.1-13.6,40.1-2.9C161.2,46.2,149.7,51.7,146.6,68z"/>
		<path class="st6" d="M244,66.4L244,66.4c0-0.2,0-0.4-0.1-0.5l-0.2-1.9c0-0.5-0.2-1-0.3-1.7l-0.5-1.9c-0.2-0.4-0.3-0.8-0.5-1.2
			l-0.3-0.8c-0.3-0.7-0.7-1.4-1.1-2c-0.1-0.2-0.3-0.4-0.4-0.6l0,0c-0.3-0.5-0.5-0.9-0.9-1.3c-0.3-0.4-0.7-0.8-1-1.3l-0.5-0.6
			c-0.3-0.4-0.7-0.7-1-1.1l-0.2-0.2c-0.1-0.1-0.2-0.2-0.3-0.4c-0.5-0.5-1-1-1.5-1.4l-1.4-1.2c-0.3-0.3-0.6-0.4-0.8-0.6l0,0
			c-0.1-0.1-0.3-0.2-0.4-0.3l-0.9-0.7c-0.5-0.4-0.8-0.6-0.8-0.6c-0.2-0.2-0.5-0.2-0.8-0.2c-0.4,0-0.9,0.2-1.1,0.6
			c-0.4,0.6-0.3,1.3,0.2,1.8l1.6,1.4c0.1,0.1,0.3,0.2,0.4,0.3c0.2,0.2,0.5,0.4,0.7,0.7l1.1,1.2c0.4,0.4,0.8,0.9,1.2,1.4l1.2,1.5
			l1.1,1.7c0.3,0.4,0.4,0.8,0.6,1.2c0.1,0.2,0.2,0.4,0.3,0.6l0,0.1c0.3,0.6,0.5,1.1,0.7,1.7l0,0.1c0.2,0.6,0.3,1.1,0.5,1.6l0.2,1.5
			c0.1,0.4,0.2,0.9,0.1,1.3l0,1l0,0.4c0,0.3,0,0.4,0,0.4c0,0.5,0,1-0.1,1.5l0,0.1l0.1,0c0.6,0,1.2,0,1.8,0c1.4,0,2.5,0.1,3.1,0.1
			l0.1,0l0-0.1c0,0,0-0.1,0-0.1c0,0,0-0.1,0-0.1l0-0.1c0-0.2,0-0.3,0-0.5c0-0.2,0-0.3,0-0.5C244,66.5,244,66.5,244,66.4z"/>
		<path class="st7" d="M214.2,90.3L214.2,90.3l-0.2-0.1c0,0,0,0,0,0c-1.3,0.4-2.6,0.7-4,1l-0.6,0.1c-1.1,0.2-2.2,0.4-3.4,0.6
			c-0.1,0-0.1,0-0.2,0c-0.1,0-0.2,0-0.2,0l0,0c-0.3,0.1-0.7,0.1-1,0.2c-0.6,0.1-1.2,0.1-1.8,0.2l-0.4,0c-2.7,0.3-4.9,0.4-7.1,0.4
			c-2.2,0-4.4-0.1-7.1-0.4l-0.4,0c-0.6-0.1-1.2-0.1-1.8-0.2c-0.3,0-0.6-0.1-0.9-0.1l-0.6-0.1c-1.2-0.2-2.3-0.4-3.3-0.6
			c-0.2,0-0.3-0.1-0.5-0.1l-0.2,0c-1.3-0.3-2.6-0.6-3.9-1c0,0,0,0-0.1,0c0,0,0,0-0.1,0l-0.1,0l0,0.1c-0.4,1.4-0.9,3-1.3,4.7l0,0.1
			l0.1,0c6.4,1.9,13.2,2.8,20.2,2.8c7,0,13.8-0.9,20.2-2.8l0.1,0l0-0.1C215,93.2,214.6,91.7,214.2,90.3z"/>
		<path class="st6" d="M160.5,45.9c-0.3,0-0.5,0.1-0.8,0.2c0,0-0.3,0.2-0.8,0.6l-0.9,0.7c-0.1,0.1-0.2,0.2-0.3,0.2l-0.1,0
			c-0.3,0.2-0.5,0.4-0.8,0.6l-0.6,0.5c-0.3,0.2-0.6,0.5-0.9,0.7c-0.5,0.4-1.1,0.9-1.5,1.4c-0.1,0.1-0.2,0.2-0.3,0.4l-0.2,0.2
			l-0.1,0.1c-0.3,0.3-0.6,0.7-0.9,1l-1.4,1.8c-0.3,0.4-0.6,0.9-0.9,1.3l0,0c-0.1,0.2-0.2,0.4-0.4,0.6c-0.4,0.7-0.8,1.3-1.1,2
			l-0.4,0.8c-0.2,0.4-0.3,0.8-0.5,1.2l-0.5,1.9c-0.2,0.5-0.3,1.1-0.3,1.6l-0.2,1.3l-0.1,0.6c0,0.1-0.1,0.3-0.1,0.5l0,0.1
			c0,0.1,0,0.2,0,0.2c0,0.2,0,0.4,0,0.5c0,0.2,0,0.4,0,0.6l0,0.4l0.1,0c0.5,0,1.7-0.1,3.1-0.1c0.6,0,1.3,0,1.8,0l0.1,0l0-0.1
			c-0.1-0.6-0.1-1.1-0.1-1.5c0,0,0-0.1,0-0.3l0-1.5c0-0.4,0.1-0.8,0.1-1.3l0.2-1.5c0.1-0.3,0.2-0.6,0.3-0.9c0.1-0.2,0.1-0.5,0.2-0.7
			l0-0.1c0.1-0.6,0.4-1.1,0.7-1.6l0-0.1c0.1-0.2,0.2-0.4,0.3-0.6l0-0.1c0.2-0.4,0.4-0.8,0.6-1.2c0.1-0.2,0.3-0.5,0.4-0.7
			c0.1-0.2,0.2-0.4,0.4-0.6l0.2-0.4c0.4-0.5,0.8-1.1,1.2-1.6c0.4-0.5,0.8-1,1.2-1.4l1.1-1.2c0.2-0.2,0.5-0.4,0.7-0.7
			c0.2-0.1,0.3-0.2,0.4-0.3l1.6-1.4c0.5-0.5,0.6-1.2,0.2-1.8C161.3,46.1,160.9,45.9,160.5,45.9z M153.8,56.9
			c-0.1,0.1-0.1,0.3-0.2,0.4C153.7,57.1,153.8,57,153.8,56.9z"/>
		<path class="st0" d="M278.3,71.5c1-4.6,3.5-18.4-2.2-25.5c-2.1-2.6-5-4-8.6-4.1l-2.6,0.1c2.4,3.4,4.2,7.3,4.2,7.3
			c1,0.2,1.5,0.9,1.5,0.9c3.2,4,2.1,14.8,0.7,20.6c-0.2,0.6-0.1,1.2,0.1,1.8c6.5,19.7,5.4,34.1-3.2,42.8c-6.9,7-18.7,10.5-35.1,10.5
			c-18.6,0-36.7-4.8-37.2-4.9l0,0c-0.3-0.1-0.6-0.1-1-0.1c-0.3,0-0.6,0-1,0.1l0,0c-0.4,0.1-18.5,4.9-37.2,4.9
			c-16.4,0-28.2-3.5-35.1-10.5c-8.6-8.7-9.6-23-3.2-42.8c0.2-0.6,0.2-1.2,0.1-1.8c-1.5-5.8-2.5-16.6,0.7-20.6c0,0,0.5-0.7,1.5-0.9
			c0,0,1.8-3.8,4.2-7.3l-2.6-0.1c-3.6,0.2-6.5,1.6-8.6,4.1c-5.7,7.1-3.2,20.9-2.2,25.5c-7,21.8-5.3,38.2,5.1,48.6
			c8.3,8.4,21.8,12.7,40.2,12.7c0,0,0,0,0,0c17.5,0,34-3.9,37.9-5c4,1,20.4,5,37.9,5c0,0,0,0,0,0c18.4,0,31.9-4.3,40.2-12.7
			C283.6,109.7,285.3,93.4,278.3,71.5z"/>
		<path class="st6" d="M278.7,76.9h-6c-2,0-3.6-1.6-3.6-3.6V62.8c0-2,1.6-3.6,3.6-3.6h6c2,0,3.6,1.6,3.6,3.6v10.6
			C282.3,75.3,280.7,76.9,278.7,76.9z"/>
		<path class="st6" d="M117.6,76.9h-6c-2,0-3.6-1.6-3.6-3.6V62.8c0-2,1.6-3.6,3.6-3.6h6c2,0,3.6,1.6,3.6,3.6v10.6
			C121.1,75.3,119.5,76.9,117.6,76.9z"/>
		<g>
			<path class="st8" d="M166.2,5.6v75.7c4.7,0.1,4.8,2.8,9.6,2.8c4.9,0,4.9-2.8,9.7-2.8c4.9,0,4.9,2.8,9.7,2.8
				c4.9,0,4.9-2.8,9.7-2.8c4.9,0,4.9,2.8,9.7,2.8c4.8,0,4.9-2.7,9.5-2.8V5.6c0-3.1-2.5-5.6-5.6-5.6h-46.7
				C168.7,0,166.2,2.5,166.2,5.6z"/>
			<path class="st0" d="M214.7,84.1c0.3,0,0.6,0,0.9,0V0h-10.1v81.4C209.9,81.6,210.1,84.1,214.7,84.1z"/>
			<g class="st9">
				<path class="st1" d="M188.2,36.1h-2c-0.7,0-1.3-0.6-1.3-1.3V9.2c0-0.7,0.6-1.3,1.3-1.3h2c0.7,0,1.3,0.6,1.3,1.3v25.6
					C189.5,35.5,189,36.1,188.2,36.1z"/>
				<path class="st1" d="M188.2,49h-2c-0.7,0-1.3-0.6-1.3-1.3v-7.6c0-0.7,0.6-1.3,1.3-1.3h2c0.7,0,1.3,0.6,1.3,1.3v7.6
					C189.5,48.4,189,49,188.2,49z"/>
				<path class="st1" d="M179.9,58.4h-2c-0.7,0-1.3-0.6-1.3-1.3V9.2c0-0.7,0.6-1.3,1.3-1.3h2c0.7,0,1.3,0.6,1.3,1.3v47.9
					C181.2,57.8,180.6,58.4,179.9,58.4z"/>
			</g>
		</g>
		<path class="st6" d="M198.2,134.4h-6c-2,0-3.6-1.6-3.6-3.6v-11.9c0-2,1.6-3.6,3.6-3.6h6c2,0,3.6,1.6,3.6,3.6v11.9
			C201.8,132.8,200.2,134.4,198.2,134.4z"/>
		<path class="st10" d="M218.2,136.5c-7.3,1.9-15,2.9-23,2.9c-8,0-15.7-1-23-2.9c0.2,2.3,0.5,4.5,0.9,6.7c7,1.7,14.4,2.7,22.1,2.7
			c0,0,0,0,0,0c1.8,0,3.6-0.1,5.4-0.2c0.2,0,0.4,0,0.6,0c5.5-0.4,10.9-1.2,16.1-2.6C217.7,140.9,217.9,138.7,218.2,136.5z"/>
	</g>
</g>
</svg>
