<?xml version="1.0" encoding="utf-8"?>
<!-- Generator: Adobe Illustrator 20.1.0, SVG Export Plug-In . SVG Version: 6.00 Build 0)  -->
<!DOCTYPE svg PUBLIC "-//W3C//DTD SVG 1.1//EN" "http://www.w3.org/Graphics/SVG/1.1/DTD/svg11.dtd">
<svg version="1.1" id="Layer_1" xmlns="http://www.w3.org/2000/svg" xmlns:xlink="http://www.w3.org/1999/xlink" x="0px" y="0px"
	 viewBox="0 0 663.7 317.7" style="enable-background:new 0 0 663.7 317.7;" xml:space="preserve">
<style type="text/css">
	.st0{fill:#FFFFFF;}
</style>
<path class="st0" d="M546.6,40.6h-66.1v35.6h21.9v92.2h-21.9v35.3h83.6v-35h-17.5V83.3c11-5,18.1-6.8,25.8-6.8h8.9
	c8,0,11,0.9,13.6,3.6c2.4,2.7,3.6,6.5,3.6,13.3v75.3H581v35h82.7v-35.3h-21.1V88.7c0-24-2.7-32.6-9.5-39.1
	c-6.2-6.2-14.8-9.2-29.1-9.2h-14.8c-15.1,0-21.7,3-42.7,22V40.6z M396.2,203.7h66.1v-35.3h-21.9V40.6h-67v35.3h22.8V161
	c-11,4.8-18.1,6.8-25.8,6.8h-8.9c-8,0-11-1.2-13.6-3.9c-2.4-2.4-3.6-6.2-3.6-13.3v-110h-65.3v35.6h21.1v79.5
	c0,23.7,2.7,32.3,9.5,39.2c6.2,6.2,14.8,9.2,29.1,9.2h14.8c14.8,0,21.6-3.3,42.7-21.9V203.7z M257.7,168.5h-25.5
	c-7.4,0-10.4-0.6-11.6-1.8c-1.8-1.8-2.4-4.2-2.4-11.3V76.2H258V40.6h-39.7V0h-44.2v40.6h-21.9v35.6h21.9v90.5
	c0,16.6,2.1,24,7.4,29.4c5.6,5.6,13.3,8.9,28.8,8.9c12.2,0,23.4-1.8,30.6-3.6l16.9-4.2V168.5z M2.1,88.7c0,22.8,1.8,30.8,8.6,37.7
	c4.7,5,11.3,7.4,24.3,8.9l47.5,5.9c7.1,0.9,9.2,1.5,10.7,3c1.5,1.8,2.4,4.2,2.4,12.2c0,8.6-0.6,11.3-2.1,12.5
	c-1.2,1.2-3.3,2.1-8.9,2.1H50.4c-5.6,0-7.4-0.6-8.6-2.1c-1.5-1.8-2.1-4.7-2.4-16.9H0c0.6,29.1,3.3,37.7,9.8,44.2
	c5,5.3,13.6,7.7,28.2,7.7h63.2c11.9,0,19-2.1,24-7.1c6.8-6.8,11.3-18.1,11.3-42.4c0-21.1-1.8-32.3-7.7-38.3
	c-4.4-4.4-10.7-6.8-23.1-8.3l-49.8-5.9c-7.1-0.9-8.9-1.5-10.7-3c-2.1-1.8-2.7-4.4-2.7-11.9c0-7.7,0.9-10.1,2.4-11.6
	c1.5-1.5,3.6-1.8,8.9-1.8H83c5.3,0,7.4,0.6,8.6,2.1c1.5,1.8,2.1,3.6,2.7,15.7h39.4c-0.6-27.6-3-37.1-9.5-43.6
	c-4.7-4.7-13.3-7.1-27.9-7.1h-59c-12.5,0-19,2.4-24,7.4C6.8,54.6,2.1,66.4,2.1,88.7"/>
<path class="st0" d="M633.3,265.3v28.3h-4.9v3.3h27.1V286h-3.7v7.6H637v-13.2h11v-3.2h-11v-11.9h14.6v6.9h3.7v-10.2h-26.8v3.3H633.3
	z M591.8,265.3l9.6,30.2c0.4,1.2,0.8,1.5,2.2,1.5h2.5c1.4,0,1.8-0.3,2.2-1.5l9.6-30.2h4.2v-3.3h-13v3.3h5l-8.6,28.1h-1l-8.5-28.1h5
	v-3.3h-13.4v3.3H591.8z M575.8,293.5v-28.3h5.1v-3.3h-14v3.3h5.1v28.3h-5.1v3.3h14v-3.3H575.8z M545.8,293.5v-28.3h9.1v7.8h3.7
	v-11.1h-29.4v11.1h3.7v-7.8h9.1v28.3h-5.1v3.3H551v-3.3H545.8z M513.5,296.9c2.8,0,4.3-0.4,5.3-1.3c1.7-1.7,2-3.8,2.2-10.1h-3.8
	c-0.1,5-0.4,6.4-1.1,7.2c-0.5,0.5-1.1,0.8-3,0.8h-9.5c-2,0-2.5-0.2-3-0.7c-0.7-0.8-1.2-2.6-1.2-13.3c0-10.7,0.4-12.5,1.2-13.3
	c0.5-0.5,1-0.7,3-0.7h9.5c1.9,0,2.5,0.2,3,0.7c0.8,0.7,1.1,2.4,1.1,6.7h3.8c-0.1-5.8-0.5-7.9-2.1-9.5c-0.9-1-2.4-1.3-5.3-1.3h-10.7
	c-3,0-4.2,0.4-5.2,1.4c-1.7,1.7-2.4,4.2-2.4,16.1c0,11.8,0.6,14.4,2.4,16.1c1,1,2.2,1.4,5.2,1.4H513.5z M472.3,265.2h1l5.2,16.8
	h-11.3L472.3,265.2z M468.6,296.9v-3.3h-5l2.6-8.4c3.2,0,10.6-0.1,13.3-0.1l2.6,8.4h-5v3.3h13.3v-3.3h-4.2l-9.7-30.3
	c-0.4-1.2-0.8-1.5-2.1-1.5h-2.7c-1.4,0-1.7,0.3-2.1,1.5l-9.7,30.3h-4.2v3.3H468.6z M427.4,278v-12.8h10.5c1.7,0,2.6,0.2,3.1,0.7
	c0.6,0.6,1.1,1.7,1.1,5.7c0,3.9-0.5,4.9-1.1,5.5c-0.5,0.5-1.3,0.9-3.1,0.9H427.4z M445.6,287.4c-0.2-5.6-1.2-7-4.6-7.6v-0.1
	c3.4-0.7,5-2.1,5-8.2c0-5.1-0.6-6.7-2-8.1c-1.1-1-2.6-1.4-5.1-1.4h-20.1v3.3h4.9v28.3h-4.9v3.3h13.7v-3.3h-5.1v-12.4h9.3
	c2,0,3,0.3,3.8,1.1c0.7,0.7,1.1,1.7,1.2,5.2c0.2,7,0.5,8,1.1,8.7c0.4,0.4,1,0.7,2.5,0.7h5.2v-3.4H446
	C445.9,292.2,445.8,290.7,445.6,287.4 M387.9,265.3v28.3H383v3.3h27.1V286h-3.7v7.6h-14.9v-13.2h11v-3.2h-11v-11.9h14.6v6.9h3.7
	v-10.2H383v3.3H387.9z M362.2,293.5v-28.3h9.1v7.8h3.7v-11.1h-29.4v11.1h3.7v-7.8h9.1v28.3h-5.1v3.3h14.1v-3.3H362.2z M329.9,291.8
	h-0.7l-13.8-28.5c-0.5-1.1-0.9-1.4-2.1-1.4h-9.6v3.3h4.9v28.3h-4.9v3.3h13.5v-3.3h-5.1v-27.3h0.6l14.1,29.3c0.5,1.1,0.9,1.3,2.1,1.3
	h4.4v-31.6h4.8v-3.3h-13.4v3.3h5.1V291.8z M290.6,293.5v-28.3h5.1v-3.3h-14v3.3h5.1v28.3h-5.1v3.3h14v-3.3H290.6z M243.9,289.2h-1.7
	c-1.9,0-2.6-0.2-3.1-0.7c-0.7-0.7-0.9-1.8-0.9-5c0-3.2,0.2-4,0.7-4.5c0.4-0.4,1.2-0.8,2.2-0.9l1.3-0.3c1.1,1.3,4.1,4.5,6.4,7.2
	l-1.8,2.7C246.1,288.9,245.5,289.2,243.9,289.2 M246,263.1c-2.5,0-3.7,0.3-4.6,1.2c-1.1,1.1-1.4,2.6-1.4,6.6c0,2.1,0.3,3.5,0.9,4.6
	l-0.3,0c-2.1,0.2-3.4,0.8-4.1,1.5c-1.2,1.2-1.4,2.3-1.4,6.5c0,4,0.4,5.8,1.6,7c1,1,2.4,1.4,4.9,1.4h3c2.3,0,3.3-0.7,4.6-2.5l1.4-2.1
	h0.2l4,4.5h5V289h-3.3l-4.1-4.6l4.1-6.3h3v-2.8h-4.8l-4.1,6.8h-0.3l-5-5.7c-0.9-1-1.4-1.7-1.7-2.3c-0.2-0.6-0.5-1.7-0.5-3.2
	c0-3.1,0.1-4.1,0.6-4.6c0.5-0.4,1.1-0.6,2.5-0.6h1.9c1.2,0,1.8,0.1,2.2,0.6c0.5,0.4,0.7,1.3,0.7,4.7h3.1c0-4.2-0.3-5.7-1.4-6.9
	c-0.8-0.8-2-1.1-4.1-1.1H246z M202.7,291.8H202l-13.8-28.5c-0.5-1.1-0.9-1.4-2.1-1.4h-9.6v3.3h4.9v28.3h-4.9v3.3H190v-3.3h-5.1
	v-27.3h0.6l14.1,29.3c0.5,1.1,0.9,1.3,2.1,1.3h4.4v-31.6h4.8v-3.3h-13.4v3.3h5.1V291.8z M166.8,272.5c-0.2-5.5-0.5-7.7-2.2-9.3
	c-0.9-1-2.3-1.3-5.2-1.3h-10.8c-3,0-4.2,0.4-5.2,1.4c-1.7,1.7-2.4,4.2-2.4,16.1c0,11.8,0.6,14.3,2.4,16c1,1,2.2,1.4,5.2,1.4h10.9
	c2.9,0,4.3-0.4,5.4-1.5c1.5-1.6,2.1-3.4,2.1-12.8v-3.2h-12.6v3.2h8.9v1.1c0,6.8-0.5,8.2-1.2,9c-0.4,0.5-1.1,0.7-3.1,0.7h-9.8
	c-2,0-2.6-0.2-3.1-0.7c-0.8-0.8-1.2-2.5-1.2-13.2c0-10.8,0.5-12.5,1.2-13.3c0.5-0.5,1.1-0.7,3.1-0.7h9.6c2,0,2.6,0.2,3,0.7
	c0.8,0.7,1,2.3,1.1,6.4H166.8z M126,293.5v-28.3h5.1v-3.3h-14v3.3h5.1v28.3h-5.1v3.3h14v-3.3H126z M107.6,287.2
	c0-4.6-0.5-6.4-1.7-7.7c-0.9-1-2.4-1.4-5.1-1.7l-10.3-1c-1.9-0.2-2.6-0.3-3.1-0.9c-0.7-0.7-0.9-1.5-0.9-4.6c0-3,0.2-4.5,0.9-5.2
	c0.6-0.6,1.3-0.8,2.9-0.8h9c1.6,0,2.3,0.1,2.8,0.7c0.6,0.6,0.8,1.6,0.9,6.1h3.8c-0.1-6-0.5-7.4-1.9-8.8c-1-1.1-2.5-1.4-5.1-1.4H89.8
	c-2.6,0-4,0.5-5,1.5c-1.5,1.5-2,3.6-2,7.9c0,4.5,0.4,6.2,1.7,7.4c0.9,1,2.4,1.5,5.1,1.7l10.3,1c1.9,0.2,2.6,0.4,3.1,0.9
	c0.7,0.7,0.9,1.6,0.9,4.8c0,3.3-0.2,4.7-0.9,5.3c-0.6,0.6-1.3,0.8-2.9,0.8H89.8c-1.6,0-2.3-0.2-2.8-0.7c-0.6-0.6-0.9-1.5-0.9-6.3
	h-3.8c0.1,6.3,0.6,7.7,1.9,9.1c1,1.1,2.5,1.4,5.1,1.4h11.3c2.6,0,4.1-0.5,5.1-1.5C107.1,293.9,107.6,291.9,107.6,287.2 M49.8,265.3
	v28.3h-4.9v3.3H72V286h-3.7v7.6H53.5v-13.2h11v-3.2h-11v-11.9H68v6.9h3.7v-10.2H44.9v3.3H49.8z M16.3,265.3h10.1
	c2.2,0,3.2,0.2,4.2,1.2c1.4,1.3,2.2,4.1,2.2,12.9c0,8.7-0.9,11.5-2.2,12.8c-1,1-1.9,1.2-4.2,1.2H16.3V265.3z M26.7,261.9H7.7v3.3
	h4.9v28.3H7.7v3.3h18.9c3.6,0,5.4-0.6,7-2.1c2-2,3.2-5.9,3.2-15.3c0-9.4-1.2-13.3-3.2-15.3C32.1,262.6,30.2,261.9,26.7,261.9"/>
<g>
	<rect y="240.6" class="st0" width="663.7" height="1"/>
</g>
<g>
	<rect y="317.2" class="st0" width="663.7" height="1"/>
</g>
</svg>
