<?xml version="1.0" encoding="utf-8"?>
<!-- Generator: Adobe Illustrator 20.0.0, SVG Export Plug-In . SVG Version: 6.00 Build 0)  -->
<svg version="1.1" id="Layer_1" xmlns="http://www.w3.org/2000/svg" xmlns:xlink="http://www.w3.org/1999/xlink" x="0px" y="0px"
	 viewBox="0 0 619.3 477.4" style="enable-background:new 0 0 619.3 477.4;" xml:space="preserve">
<style type="text/css">
	.st0{display:none;}
	.st1{display:inline;stroke:#000000;stroke-width:8.6181;stroke-miterlimit:3.8637;}
	.st2{display:inline;fill:#FFFFFF;stroke:#000000;stroke-miterlimit:10;}
	.st3{fill-rule:evenodd;clip-rule:evenodd;}
  path,rect,polygon{fill:white;} 
</style>
<g>
	<g class="st0">
		<path class="st1" d="M136.2,176.5c0-95.1,77.1-172.2,172.2-172.2c95.1,0,172.2,77.1,172.2,172.2c0,95.1-77.1,172.2-172.2,172.2
			C213.2,348.6,136.2,271.6,136.2,176.5L136.2,176.5z"/>
		<path class="st2" d="M395.4,63.4c-24.1-18.6-54.3-29.6-87.1-29.6c-32.8,0-63,11-87,29.6h54.9l34.2,61.5L344,63.4H395.4L395.4,63.4
			z"/>
		<path class="st2" d="M416.2,269.9c21.7-25,34.8-57.7,34.8-93.4c0-38.3-15.1-73-39.6-98.7l-62.7,92L416.2,269.9L416.2,269.9z"/>
		<path class="st2" d="M221.3,289.6c24.1,18.6,54.3,29.6,87.1,29.6c32.8,0,63-11,87.1-29.6h-49.8l-38.6-67.5L267,289.6H221.3
			L221.3,289.6z"/>
		<path class="st2" d="M165.6,176.5c0,35.8,13.1,68.4,34.9,93.5l68.4-100.8l-64-91C180.5,103.8,165.6,138.4,165.6,176.5L165.6,176.5
			z"/>
	</g>
	<g>
		<path d="M52.4,473.5l-21.5-14.6l-22,15c-1.6,1.2-3.2,2.4-4.5,3.6l-4.4-6c0,0,4.4-2.3,15.4-9.8l9.6-6.5l-9.7-6.6
			C4.4,441,0,438.7,0,438.7l4.5-6c1.5,1.3,3.3,2.7,5.2,4.1L31,451.2l21.7-14.8c1.6-1.2,3.2-2.4,4.5-3.6l4.4,6c0,0-4.4,2.3-15.4,9.8
			l-9.3,6.4l9.4,6.4c11,7.5,15.4,9.8,15.4,9.8l-4.5,6C55.8,476.1,54.2,474.8,52.4,473.5L52.4,473.5z"/>
		<path class="st3" d="M159.4,476v-41.6H92.3v5.9h5.2V470h-5.4v6H159.4L159.4,476z M152.5,468.6c0,0-12,1.4-24.1,1.4h-24v-29.7h24
			c0,0,14.7,0,24.1,1.4V468.6L152.5,468.6z"/>
		<path d="M264.2,476.1v-8.8c-8.5,2.7-30.9,2.9-30.9,2.9l-24.1-0.1v-11.9h24.1c14.1,0,19.3,0.6,19.3,0.6l0.1-7.2
			c-7.1,0.8-19.4,0.7-19.4,0.7h-24.1v-12h24.1c22.4,0,30.9,2.8,30.9,2.8v-8.7h-61.9v17.8h-16.5v5.9h16.5v17.9H264.2L264.2,476.1z"/>
		<path d="M367.7,476.1v-23.8h-55v-12h24c0,0,20.3-0.5,30.9,2.9l0.1-8.8h-62v23.7h55v11.9h-24c0,0-18.4,0.3-31-2.9v8.8H367.7
			L367.7,476.1z"/>
		<polygon points="411.9,476.1 411.9,434.4 405.1,434.4 405.1,476.1 411.9,476.1 		"/>
		<path d="M528.6,458.8v-7.2c-4.9,0.7-16.6,0.7-16.6,0.7h-33.8v5.9h27v11.9H457v-29.8H481c20.1,0,30.9,2.8,30.9,2.8v-8.7h-61.8v41.7
			H512v-17.9C522.5,458.1,528.6,458.8,528.6,458.8L528.6,458.8z"/>
		<path d="M619.3,476.1v-41.7h-62v41.7h7v-34.4c0,0,6-1.3,24.1-1.3c18,0,23.9,1.4,23.9,1.4v34.4H619.3L619.3,476.1z"/>
	</g>
</g>
<path d="M309.7,26.6c-97.3,0-176.5,79.2-176.5,176.5s79.2,176.5,176.5,176.5c97.3,0,176.5-79.2,176.5-176.5S407,26.6,309.7,26.6z
	 M309.7,60.4c32.8,0,63,11,87.1,29.6h-51.4l-33.6,61.5L277.5,90h-54.9C246.7,71.4,276.9,60.4,309.7,60.4z M167,203.1
	c0-38.1,14.9-72.7,39.2-98.3l64,91l-68.4,100.8C180.1,271.5,167,238.8,167,203.1z M309.7,345.8c-32.8,0-63-11-87.1-29.6h45.7
	l39.9-67.5l38.7,67.5h49.8C372.6,334.8,342.4,345.8,309.7,345.8z M417.6,296.5l-67.5-100.1l62.7-92c24.5,25.6,39.6,60.4,39.6,98.7
	C452.4,238.8,439.3,271.5,417.6,296.5z"/>
</svg>
