<?xml version="1.0" encoding="utf-8"?>
<!-- Generator: Adobe Illustrator 20.0.0, SVG Export Plug-In . SVG Version: 6.00 Build 0)  -->
<svg version="1.1" id="Layer_1" xmlns="http://www.w3.org/2000/svg" xmlns:xlink="http://www.w3.org/1999/xlink" x="0px" y="0px"
	 viewBox="0 0 225 51.3" style="enable-background:new 0 0 225 51.3;" xml:space="preserve">
<style type="text/css">
	.st0{fill-rule:evenodd;clip-rule:evenodd;}
</style>
<g>
	<path d="M16.5,7.2C7.4,7.2,0,14.6,0,23.7s7.4,16.5,16.5,16.5c9.1,0,16.5-7.4,16.5-16.5S25.6,7.2,16.5,7.2z M12.8,23l-6.4,9.4
		c-2-2.3-3.3-5.4-3.3-8.7c0-3.6,1.4-6.8,3.7-9.2L12.8,23z M8.3,13.1c2.2-1.7,5.1-2.8,8.1-2.8c3.1,0,5.9,1,8.1,2.8h-4.8l-3.1,5.7
		l-3.2-5.7H8.3z M12.6,34.2l3.7-6.3l3.6,6.3h4.7C22.3,36,19.5,37,16.5,37c-3.1,0-5.9-1-8.1-2.8H12.6z M20.2,23.1l5.9-8.6
		c2.3,2.4,3.7,5.6,3.7,9.2c0,3.3-1.2,6.4-3.2,8.7L20.2,23.1z"/>
	<g>
		<g>
			<path d="M75,29.1l-5.7-3.9l-5.8,4c-0.4,0.3-0.8,0.6-1.2,0.9l-1.2-1.6c0,0,1.2-0.6,4.1-2.6l2.5-1.7l-2.6-1.7
				c-2.9-2-4.1-2.6-4.1-2.6l1.2-1.6c0.4,0.3,0.9,0.7,1.4,1.1l5.6,3.8l5.7-3.9c0.4-0.3,0.8-0.6,1.2-0.9l1.2,1.6c0,0-1.2,0.6-4.1,2.6
				l-2.5,1.7l2.5,1.7c2.9,2,4.1,2.6,4.1,2.6l-1.2,1.6C75.9,29.8,75.5,29.5,75,29.1L75,29.1z"/>
		</g>
		<g>
			<path class="st0" d="M103.3,29.8v-11H85.6v1.6H87v7.9h-1.4v1.6H103.3L103.3,29.8z M101.5,27.8c0,0-3.2,0.4-6.4,0.4h-6.4v-7.9h6.4
				c0,0,3.9,0,6.4,0.4V27.8L101.5,27.8z"/>
		</g>
		<g>
			<path d="M131.1,29.8v-2.3c-2.3,0.7-8.2,0.8-8.2,0.8l-6.4,0v-3.2h6.4c3.7,0,5.1,0.2,5.1,0.2l0-1.9c-1.9,0.2-5.1,0.2-5.1,0.2h-6.4
				v-3.2h6.4c5.9,0,8.2,0.7,8.2,0.7v-2.3h-16.4v4.7h-4.4v1.6h4.4v4.7H131.1L131.1,29.8z"/>
		</g>
		<g>
			<path d="M158.4,29.8v-6.3h-14.5v-3.2h6.4c0,0,5.4-0.1,8.2,0.8l0-2.3H142v6.3h14.5v3.2h-6.4c0,0-4.9,0.1-8.2-0.8v2.3H158.4
				L158.4,29.8z"/>
		</g>
		<g>
			<polygon points="170.1,29.8 170.1,18.8 168.3,18.8 168.3,29.8 170.1,29.8 			"/>
		</g>
		<g>
			<path d="M201,25.2v-1.9c-1.3,0.2-4.4,0.2-4.4,0.2h-9v1.6h7.2v3.2H182v-7.9h6.4c5.3,0,8.2,0.7,8.2,0.7v-2.3h-16.3v11h16.3v-4.7
				C199.4,25.1,201,25.2,201,25.2L201,25.2z"/>
		</g>
		<g>
			<path d="M225,29.8v-11h-16.4v11h1.8v-9.1c0,0,1.6-0.3,6.4-0.3c4.8,0,6.3,0.4,6.3,0.4v9.1H225L225,29.8z"/>
		</g>
	</g>
	<g>
		<rect x="46.1" width="1" height="51.3"/>
	</g>
</g>
</svg>
