<?xml version="1.0" encoding="utf-8"?>
<!-- Generator: Adobe Illustrator 19.1.0, SVG Export Plug-In . SVG Version: 6.00 Build 0)  -->
<svg version="1.1" id="Layer_1" xmlns="http://www.w3.org/2000/svg" xmlns:xlink="http://www.w3.org/1999/xlink" x="0px" y="0px"
	 viewBox="116 -206 1024 1024" style="enable-background:new 116 -206 1024 1024;" xml:space="preserve">
<path d="M570.1,180.3l-94.7,94.7l10.5,10.5l-10.5,10.5l-21.1,21.1l10.5,10.5l-21.1,21.1l10.5,10.5l-31.6,31.6l-10.5-10.5l-21.1,21.1
	l-10.5-10.5l-10.5,10.5l-10.5-10.5l-10.5,10.5L328,380.3l10.5-10.5L328,359.3l21.1-21.1l-10.5-10.5l73.7-73.7l10.5,10.5l42.1-42.1
	l10.5,10.5l42.1-42.1l10.5,10.5l31.6-31.6L570.1,180.3z M917.5,106.6L917.5,106.6L928,96.1l-10.5-10.5L928,75.1L906.9,54l-10.5,10.5
	L885.9,54l-10.5,10.5l0,0l0,0L864.8,54l-10.5,10.5L843.8,54l-10.5,10.5l84.2,84.2l10.5-10.5l-10.5-10.5l10.5-10.5L917.5,106.6z
	 M464.8,432.9l-52.6,52.6l10.5,10.5l-21.1,21.1l10.5,10.5l-21.1,21.1l10.5,10.5l-10.5,10.5l21.1,21.1l10.5-10.5l10.5,10.5l21.1-21.1
	l10.5,10.5l21.1-21.1l10.5,10.5l52.6-52.6L464.8,432.9z M906.9,180.3l10.5,10.5l-21.1,21.1l10.5,10.5l-21.1,21.1l10.5,10.5
	l-31.6,31.6l10.5,10.5l-31.6,31.6l10.5,10.5L706.9,485.6l-10.5-10.5l-31.6,31.6l-10.5-10.5l-21.1,21.1l-10.5-10.5l-21.1,21.1
	l-10.5-10.5l-10.5,10.5L454.3,401.4l10.5-10.5l-10.5-10.5l21.1-21.1l-10.5-10.5l21.1-21.1l-10.5-10.5l31.6-31.6l-10.5-10.5
	l147.4-147.4l10.5,10.5l31.6-31.6l10.5,10.5L728,85.6l10.5,10.5l21.1-21.1l10.5,10.5l21.1-21.1l10.5,10.5l10.5-10.5l105.3,105.3
	L906.9,180.3z M791.2,275.1l-10.5-10.5l10.5-10.5l-10.5-10.5l10.5-10.5l-10.5-10.5l10.5-10.5l-21.1-21.1l-10.5,10.5l-10.5-10.5
	l-10.5,10.5L728,190.8l-10.5,10.5l-10.5-10.5l-21.1,21.1l10.5,10.5l-10.5,10.5l10.5,10.5L685.9,254l10.5,10.5l-10.5,10.5l21.1,21.1
	l10.5-10.5l10.5,10.5l10.5-10.5l10.5,10.5l10.5-10.5l10.5,10.5L791.2,275.1z M801.7,411.9l-94.7,94.7l-10.5-10.5l-31.6,31.6
	l-10.5-10.5l-21.1,21.1l-10.5-10.5l-31.6,31.6l10.5,10.5l-21.1,21.1l10.5,10.5l-10.5,10.5l10.5,10.5l-10.5,10.5l21.1,21.1l10.5-10.5
	l10.5,10.5l21.1-21.1l10.5,10.5l73.7-73.7l-10.5-10.5l42.1-42.1l-10.5-10.5l42.1-42.1L780.6,454l31.6-31.6L801.7,411.9z"/>
</svg>
